<svg width="360" height="317" viewBox="0 0 360 317" fill="none" xmlns="http://www.w3.org/2000/svg">
<path d="M289.558 224.216C265.366 272.548 215.35 305.8 157.7 305.8C144.633 305.8 131.944 304.098 119.874 300.883V309.755C131.995 312.781 144.667 314.397 157.7 314.397C220.216 314.397 274.255 277.448 299.117 224.216H289.558ZM157.7 2.43591C144.014 2.43591 130.74 4.20686 118.086 7.54242C119.014 10.2074 119.599 13.0444 119.788 15.9845C131.892 12.7521 144.598 11.0327 157.7 11.0327C215.35 11.0327 265.366 44.2852 289.558 92.6164H299.117C274.255 39.4022 220.216 2.43591 157.7 2.43591ZM8.09807 114.246C3.93722 128.259 1.71924 143.08 1.71924 158.416C1.71924 172.807 3.67931 186.734 7.35875 199.973H16.2994C12.3965 186.786 10.316 172.842 10.316 158.416C10.316 143.991 12.4137 129.858 16.3682 116.602C13.4797 116.189 10.6943 115.381 8.09807 114.246Z" fill="white" stroke="white" stroke-width="3.43872" stroke-linecap="round" stroke-linejoin="round"/>
<path d="M57.5297 277.878C54.6068 275.436 51.7698 272.874 49.036 270.209C48.2795 271.516 47.5574 272.857 46.8352 274.198C47.0931 274.301 47.3682 274.405 47.6262 274.559C47.7465 274.611 47.8497 274.662 47.9528 274.731C48.142 274.834 48.3311 274.938 48.503 275.075C50.3599 276.262 51.8558 278.084 52.939 279.769C53.1453 280.078 53.3344 280.388 53.5064 280.68C53.6783 280.973 53.8502 281.265 53.9878 281.54C54.0738 281.695 54.1597 281.849 54.2285 281.987C54.2801 282.09 54.3317 282.193 54.3832 282.296C54.4864 282.468 54.5724 282.64 54.6411 282.795C54.6411 282.812 54.6411 282.829 54.6411 282.847C54.7271 283.019 54.7959 283.173 54.8475 283.294C54.8475 283.362 54.8991 283.431 54.9162 283.483C54.9678 283.586 55.0022 283.655 55.0194 283.706C55.0194 283.706 55.0538 283.775 55.0538 283.792C55.0538 283.792 55.071 283.775 55.0882 283.689C55.1054 283.655 55.1226 283.603 55.1398 283.552C55.1398 283.483 55.1741 283.431 55.2085 283.345C55.2429 283.277 55.2773 283.191 55.3117 283.105C55.3289 283.07 55.3461 283.036 55.3461 283.001C55.3805 282.933 55.3977 282.864 55.4321 282.795C55.4321 282.778 55.4492 282.744 55.4492 282.726C55.5352 282.52 55.6212 282.296 55.7243 282.039C55.8619 281.695 56.0166 281.299 56.2058 280.869C56.5668 280.027 56.9967 279.03 57.5125 277.895H57.4953L57.5297 277.878ZM49.036 270.209C48.2795 271.516 47.5574 272.857 46.8352 274.198C47.0931 274.301 47.3682 274.405 47.6262 274.559C47.7465 274.611 47.8497 274.662 47.9528 274.731C48.142 274.834 48.3311 274.938 48.503 275.075C50.3599 276.262 51.8558 278.084 52.939 279.769C53.1453 280.078 53.3344 280.388 53.5064 280.68C53.6783 280.973 53.8502 281.265 53.9878 281.54C54.0738 281.695 54.1597 281.849 54.2285 281.987C54.2801 282.09 54.3317 282.193 54.3832 282.296C54.4864 282.468 54.5724 282.64 54.6411 282.795C54.6411 282.812 54.6411 282.829 54.6411 282.847C54.7271 283.019 54.7959 283.173 54.8475 283.294C54.8475 283.362 54.8991 283.431 54.9162 283.483C54.9678 283.586 55.0022 283.655 55.0194 283.706C55.0194 283.706 55.0538 283.775 55.0538 283.792C55.0538 283.792 55.071 283.775 55.0882 283.689C55.1054 283.655 55.1226 283.603 55.1398 283.552C55.1398 283.483 55.1741 283.431 55.2085 283.345C55.2429 283.277 55.2773 283.191 55.3117 283.105C55.3289 283.07 55.3461 283.036 55.3461 283.001C55.3805 282.933 55.3977 282.864 55.4321 282.795C55.4321 282.778 55.4492 282.744 55.4492 282.726C55.5352 282.52 55.6212 282.296 55.7243 282.039C55.8619 281.695 56.0166 281.299 56.2058 280.869C56.5668 280.027 56.9967 279.03 57.5125 277.895H57.4953C54.5724 275.436 51.7354 272.874 49.0016 270.209H49.036ZM100.737 216.926H7.42747C6.2755 216.926 5.34705 217.855 5.34705 219.024V312.317C5.34705 313.468 6.2755 314.397 7.42747 314.397H100.737C101.889 314.397 102.818 313.468 102.818 312.317V219.024C102.818 217.855 101.889 216.926 100.737 216.926ZM67.5192 276.176C66.9862 276.863 66.4876 277.585 65.9889 278.325C65.6795 278.772 65.3872 279.236 65.0777 279.7C65.0433 279.735 65.0261 279.752 65.0089 279.786C64.7338 280.199 64.4587 280.646 64.1836 281.093C63.8913 281.574 63.599 282.039 63.3239 282.52H63.3067C62.6706 283.552 62.0688 284.6 61.4842 285.649C61.1231 286.303 60.7621 286.939 60.4182 287.575C60.1947 287.97 59.9884 288.366 59.782 288.761C59.5757 289.14 59.3694 289.535 59.1803 289.913C57.9939 292.183 56.9967 294.246 56.2402 295.845C56.051 296.258 55.8619 296.653 55.69 297.014C55.6212 297.186 55.5352 297.358 55.4664 297.513C53.1453 302.585 52.2512 298.716 52.2512 298.716C51.9246 297.668 51.6151 296.67 51.3228 295.742C51.1165 295.123 50.9273 294.538 50.7382 293.954C50.4803 293.111 50.2052 292.303 49.9301 291.564C49.8441 291.306 49.7582 291.065 49.6722 290.824C49.5174 290.343 49.3455 289.896 49.1736 289.449C48.7609 288.349 48.3827 287.369 48.0216 286.475C47.7121 285.77 47.437 285.116 47.1619 284.497C47.0244 284.205 46.8868 283.895 46.7493 283.62C46.3538 282.761 45.9584 281.987 45.5629 281.23C45.2878 280.732 45.0299 280.233 44.772 279.752C44.6173 279.494 44.4969 279.253 44.3766 278.995C43.8264 280.078 43.2934 281.162 42.7775 282.228C42.7088 282.365 42.64 282.503 42.5884 282.64C42.021 283.844 41.488 285.013 40.955 286.131C40.6112 286.87 40.2845 287.609 39.9578 288.314C38.8918 290.67 37.9633 292.785 37.2412 294.487C36.9489 295.174 36.6738 295.793 36.4503 296.326C36.3299 296.602 36.2268 296.842 36.1236 297.083C35.9345 297.547 35.7797 297.925 35.6422 298.218C35.5906 298.338 35.539 298.458 35.4703 298.579C35.2983 298.906 35.1608 299.181 35.0232 299.404C34.9201 299.593 34.8169 299.731 34.6966 299.868C34.5934 299.989 34.5074 300.075 34.4043 300.161C34.2667 300.298 34.1292 300.367 34.0088 300.384C33.5102 300.539 33.0975 300.057 32.8053 299.507C32.7021 299.335 32.6161 299.146 32.5473 298.957C32.4614 298.768 32.3926 298.596 32.341 298.458C32.3238 298.407 32.3066 298.372 32.2894 298.321C32.2894 298.287 32.2723 298.252 32.2551 298.218C32.2035 298.115 32.1347 297.943 32.0315 297.719C31.894 297.427 31.7221 297.031 31.5329 296.55C30.8968 295.003 29.8823 292.527 28.6616 289.466C28.6616 289.415 28.61 289.363 28.61 289.311C28.4037 288.796 28.1974 288.245 27.9738 287.695C27.9051 287.523 27.8363 287.351 27.7675 287.179C27.63 286.784 27.4752 286.389 27.3205 285.976C27.1657 285.563 26.9938 285.151 26.8047 284.721C26.5296 284.085 26.2373 283.431 25.9278 282.778C25.6183 282.107 25.2916 281.437 24.9478 280.766C23.5723 278.084 21.9905 275.35 20.4946 272.978C19.996 272.187 19.5146 271.43 19.0504 270.742C18.6033 270.037 18.1563 269.401 17.7265 268.834C17.5201 268.542 17.331 268.266 17.1419 268.026C16.9699 267.768 16.798 267.544 16.6261 267.321C15.6632 266.083 15.6116 265.533 15.9211 265.326C16.1962 265.172 16.6948 265.24 17.1763 265.361C17.2278 265.361 17.2794 265.378 17.3138 265.395C17.4342 265.43 17.5545 265.464 17.6577 265.498C17.7093 265.515 17.7608 265.533 17.8124 265.55C17.95 265.601 18.0703 265.636 18.1219 265.67C18.1563 265.687 18.1735 265.687 18.1735 265.687C18.5861 265.842 18.9816 265.997 19.377 266.169C19.8928 266.392 20.3915 266.633 20.8729 266.908C21.1824 267.063 21.4575 267.235 21.7498 267.407C22.1968 267.682 22.6438 267.974 23.0565 268.249C23.0565 268.266 23.1081 268.301 23.1424 268.318C23.5895 268.645 24.0193 268.989 24.432 269.332C24.7414 269.59 25.0337 269.848 25.326 270.123C25.6011 270.381 25.8762 270.656 26.1513 270.931C26.6156 271.413 27.0626 271.894 27.458 272.393C27.8191 272.823 28.163 273.253 28.4725 273.7C28.524 273.751 28.5584 273.82 28.61 273.889C28.8679 274.25 29.1258 274.628 29.3665 275.006C29.6072 275.367 29.8308 275.746 30.0543 276.107C30.0887 276.176 30.1231 276.227 30.1574 276.296C30.3981 276.726 30.6217 277.138 30.8452 277.534C30.8624 277.551 30.8452 277.551 30.8452 277.551C31.0515 277.946 31.2406 278.308 31.4126 278.669C31.98 279.838 32.3754 280.887 32.6677 281.677C32.7881 281.987 32.874 282.262 32.9428 282.486C33.046 282.829 33.1147 283.07 33.1663 283.225C33.1835 283.276 33.2007 283.311 33.2007 283.345V283.38H33.2179C33.3726 282.623 33.5274 281.867 33.6821 281.11C34.026 279.614 34.4043 278.136 34.8169 276.691C35.0232 275.969 35.2467 275.247 35.4703 274.542C35.6938 273.837 35.9345 273.132 36.1752 272.445C36.3987 271.774 36.6394 271.121 36.8629 270.484C37.3616 269.126 37.8774 267.802 38.4104 266.547C38.7714 265.722 39.1153 264.914 39.4592 264.123C39.8718 263.212 40.2845 262.317 40.6971 261.458C41.6428 259.446 42.5712 257.675 43.3965 256.162C43.5513 255.887 43.6888 255.629 43.8264 255.388C44.2562 254.598 44.6517 253.91 45.0127 253.308C45.6489 252.208 46.1131 251.434 46.3366 251.09C46.6289 250.609 46.904 250.162 47.1447 249.697C47.3339 249.353 47.5058 249.01 47.6605 248.649C47.8325 248.305 47.9872 247.944 48.142 247.548C48.2451 247.29 48.3311 247.05 48.4342 246.774C48.5374 246.482 48.6406 246.155 48.7609 245.829C48.8641 245.519 48.9673 245.175 49.0704 244.832C49.2424 244.264 49.2939 243.748 49.2252 243.267V243.181C49.208 243.009 49.1736 242.837 49.1392 242.682C49.0876 242.51 49.036 242.339 48.9673 242.184C48.8985 242.029 48.8297 241.874 48.7437 241.72C48.6578 241.565 48.5546 241.427 48.4514 241.29C48.3483 241.152 48.2451 241.032 48.142 240.911C48.1248 240.911 48.1248 240.894 48.1076 240.877C47.97 240.757 47.8497 240.636 47.7121 240.516C47.437 240.275 47.1275 240.069 46.7837 239.88C46.6117 239.777 46.4398 239.691 46.2507 239.605C46.0271 239.484 45.7692 239.381 45.5113 239.295C45.2706 239.209 45.0815 239.106 44.9268 239.003C44.8752 238.969 44.8064 238.934 44.772 238.9C44.6688 238.831 44.6001 238.762 44.5657 238.676C44.5313 238.625 44.5141 238.59 44.4969 238.539C44.4625 238.436 44.4797 238.35 44.4969 238.246C44.5141 238.195 44.5313 238.143 44.5485 238.092C44.5485 238.074 44.5485 238.057 44.5485 238.04C44.5829 237.989 44.6173 237.92 44.6688 237.868C44.686 237.834 44.7032 237.817 44.7376 237.799C44.7892 237.731 44.858 237.679 44.9268 237.61C45.0127 237.507 45.1159 237.438 45.219 237.37C45.4254 237.215 45.6489 237.06 45.8724 236.923C46.0787 236.785 46.285 236.665 46.457 236.561C46.543 236.51 46.6289 236.458 46.7665 236.424C46.99 236.338 47.2995 236.269 47.6605 236.183C47.7637 236.166 47.8669 236.132 47.97 236.132C48.1763 236.097 48.3827 236.08 48.6062 236.046C49.8613 235.891 51.4431 235.822 52.8874 235.96C53.5751 236.011 54.2285 236.114 54.7959 236.269C57.5125 237.008 57.6844 236.2 58.9224 235.53C60.1775 234.876 66.436 231.764 71.5425 231.042C73.3822 230.784 74.9468 230.956 76.1848 231.3C76.3567 231.335 76.5114 231.386 76.6662 231.438C76.8209 231.472 76.9757 231.524 77.1132 231.592C77.3367 231.661 77.5259 231.747 77.715 231.833C77.8869 231.919 78.0589 232.005 78.2308 232.091C78.334 232.126 78.4371 232.194 78.5231 232.246C78.6262 232.297 78.7122 232.349 78.7982 232.401C79.1249 232.59 79.3484 232.762 79.4687 232.865C79.5031 232.865 79.5203 232.899 79.5375 232.934C79.5547 232.951 79.5719 232.951 79.5719 232.951C79.8298 233.037 80.0705 233.157 80.2768 233.277C80.4316 233.363 80.5863 233.467 80.7239 233.57C80.9646 233.742 81.1709 233.948 81.36 234.154C81.5148 234.326 81.6351 234.498 81.7555 234.653C81.8758 234.842 81.9962 235.014 82.0822 235.203C82.1853 235.375 82.2713 235.53 82.3229 235.667C82.3916 235.805 82.426 235.925 82.4604 236.028C82.512 236.183 82.5292 236.269 82.5292 236.269C86.7932 237.885 84.7472 239.588 83.5608 239.588C82.3745 239.588 80.6035 239.949 80.6035 239.949C78.0245 241.049 76.3223 240.757 76.3223 240.757C75.9097 241.187 73.7776 242.253 73.5369 242.39C73.4682 243.215 73.3994 243.938 73.3306 244.574C73.279 244.832 73.2618 245.072 73.2274 245.296C73.1931 245.554 73.1415 245.794 73.1071 246.035C73.0727 246.276 73.0211 246.499 72.9695 246.706C72.918 246.912 72.8836 247.118 72.832 247.307C72.5397 248.339 72.1442 249.233 71.5253 250.265C71.3362 250.591 71.1298 250.952 70.8891 251.314C70.8031 251.451 70.7 251.589 70.614 251.709C70.3561 252.07 70.1326 252.328 69.9263 252.5C69.8403 252.586 69.7543 252.637 69.6856 252.689C69.5996 252.741 69.5308 252.775 69.4792 252.792C69.4105 252.809 69.3589 252.827 69.3073 252.827C68.8603 252.827 68.7399 252.122 68.8087 251.537C68.8431 251.434 68.8603 251.331 68.8947 251.228C69.1869 250.265 69.1182 248.425 69.1182 248.425H69.101C68.9118 248.614 68.7227 248.786 68.568 248.941C68.3788 249.078 68.2241 249.216 68.0694 249.353C67.7083 249.68 67.416 249.886 67.1581 250.041C66.6251 250.402 66.35 250.419 66.2468 250.265C66.1781 250.162 66.1953 250.007 66.2124 249.835C66.2296 249.749 66.2468 249.663 66.264 249.594C66.3156 249.474 66.35 249.371 66.3672 249.336H66.35C65.7138 249.766 64.1836 251.159 62.6018 252.637C62.1548 253.05 61.6905 253.497 61.2607 253.91C59.4897 255.578 57.9767 257.056 57.9767 257.056C57.1342 257.985 56.2917 259.034 55.4321 260.151C55.1398 260.547 54.8303 260.959 54.538 261.389C54.2285 261.819 53.919 262.249 53.6267 262.679C52.8014 263.882 51.9761 265.154 51.1852 266.478C50.8414 267.063 50.4975 267.613 50.1364 268.215C49.7582 268.851 49.3799 269.504 49.0188 270.175C48.2623 271.482 47.5402 272.823 46.8181 274.164C47.076 274.267 47.3511 274.37 47.609 274.525C47.7293 274.577 47.8325 274.628 47.9356 274.697C48.1248 274.8 48.3139 274.903 48.4858 275.041C50.3427 276.227 51.8386 278.05 52.9218 279.735C53.1281 280.044 53.3172 280.354 53.4892 280.646C53.6611 280.938 53.833 281.23 53.9706 281.506C54.0566 281.66 54.1425 281.815 54.2113 281.953C54.2629 282.056 54.3145 282.159 54.3661 282.262C54.4692 282.434 54.5552 282.606 54.624 282.761C54.624 282.778 54.624 282.795 54.624 282.812C54.7099 282.984 54.7787 283.139 54.8303 283.259C54.8303 283.328 54.8819 283.397 54.8991 283.448C54.9506 283.552 54.985 283.62 55.0022 283.672C55.0022 283.672 55.0366 283.741 55.0366 283.758C55.0366 283.758 55.0538 283.741 55.071 283.655C55.0882 283.62 55.1054 283.569 55.1226 283.517C55.1226 283.448 55.157 283.397 55.1913 283.311C55.2257 283.242 55.2601 283.156 55.2945 283.07C55.3117 283.036 55.3289 283.001 55.3289 282.967C55.3633 282.898 55.3805 282.829 55.4149 282.761C55.4149 282.743 55.4321 282.709 55.4321 282.692C55.518 282.486 55.604 282.262 55.7072 282.004C55.8447 281.66 55.9994 281.265 56.1886 280.835C56.5496 279.993 56.9795 278.995 57.4953 277.861C57.822 277.173 58.1658 276.433 58.5269 275.66C58.7332 275.23 58.9395 274.8 59.1803 274.336C59.6445 273.425 60.1259 272.479 60.6589 271.499C60.9168 271.017 61.1919 270.502 61.4842 269.986C62.1548 268.748 62.9113 267.441 63.7366 266.1C64.1492 265.43 64.5619 264.759 65.0089 264.071C65.2152 263.727 65.4387 263.383 65.6795 263.04C65.903 262.696 66.1265 262.352 66.3672 262.008C66.8142 260.701 66.7111 259.79 66.3844 259.171C66.2296 258.844 66.0233 258.586 65.7998 258.397C65.6966 258.294 65.5935 258.225 65.4903 258.157C65.198 257.967 64.9573 257.899 64.9573 257.899C64.1664 257.727 63.7538 257.486 63.599 257.245C63.5131 257.108 63.5131 256.953 63.5818 256.816C63.6506 256.644 63.7882 256.489 63.9773 256.334C64.0804 256.231 64.2008 256.145 64.3212 256.059C64.5791 255.887 64.8713 255.715 65.1464 255.595C66.2984 255.045 69.5136 255.595 70.9579 255.904C72.4193 256.197 72.9695 256.197 73.6745 255.646C74.3794 255.096 78.4371 253.549 82.3573 252.895C83.3029 252.741 84.1454 252.741 84.8675 252.844C85.091 252.878 85.3146 252.913 85.5209 252.964C86.1914 253.119 86.7244 253.342 87.1543 253.566C87.3434 253.652 87.4982 253.755 87.6357 253.858C88.0655 254.133 88.2719 254.357 88.2719 254.357C90.0256 255.148 90.6274 257.056 90.6274 257.056C90.8165 257.177 91.0057 257.28 91.1604 257.4C91.3151 257.503 91.4527 257.606 91.573 257.692C91.745 257.813 91.8825 257.933 91.9857 258.036C92.192 258.243 92.3124 258.415 92.3639 258.569C92.4327 258.758 92.3811 258.913 92.2436 259.016C92.1748 259.068 92.0888 259.102 92.0029 259.154C91.9169 259.188 91.8138 259.223 91.7106 259.257C91.4871 259.326 91.2292 259.36 90.9713 259.395C90.8165 259.395 90.679 259.395 90.5414 259.395C90.0256 259.412 89.613 259.395 89.613 259.395C88.3063 259.893 86.0023 260.048 86.0023 260.048C85.5037 260.443 83.9047 260.839 83.9047 260.839C83.9047 260.839 84.1626 262.386 82.8043 265.619C82.3229 266.771 81.7555 267.527 81.2741 267.957C81.0849 268.112 80.913 268.215 80.7583 268.266C80.5175 268.335 80.3456 268.301 80.2253 268.163C80.0705 267.957 80.0533 267.544 80.2596 266.96C80.6723 265.739 80.6379 265.344 80.5175 265.258C80.4488 265.154 80.3456 265.206 80.3456 265.206C77.7322 267.269 78.5403 265.619 78.5403 265.619C78.4887 265.653 78.4543 265.653 78.4199 265.653C78.334 265.653 78.2824 265.567 77.4915 266.169C77.3711 266.238 77.2508 266.341 77.096 266.478C76.8897 266.65 76.6662 266.839 76.3911 267.063C75.4798 267.819 74.1215 269.006 72.1099 270.828C71.9035 271.017 71.68 271.224 71.4737 271.447C71.2502 271.654 71.0267 271.877 70.8031 272.118C70.3561 272.582 69.9263 273.063 69.4792 273.579C68.9978 274.129 68.5336 274.714 68.0694 275.316C67.8802 275.574 67.6739 275.849 67.4676 276.124L67.5192 276.176ZM57.5297 277.878C54.6068 275.436 51.7698 272.874 49.036 270.209C48.2795 271.516 47.5574 272.857 46.8352 274.198C47.0931 274.301 47.3682 274.405 47.6262 274.559C47.7465 274.611 47.8497 274.662 47.9528 274.731C48.142 274.834 48.3311 274.938 48.503 275.075C50.3599 276.262 51.8558 278.084 52.939 279.769C53.1453 280.078 53.3344 280.388 53.5064 280.68C53.6783 280.973 53.8502 281.265 53.9878 281.54C54.0738 281.695 54.1597 281.849 54.2285 281.987C54.2801 282.09 54.3317 282.193 54.3832 282.296C54.4864 282.468 54.5724 282.64 54.6411 282.795C54.6411 282.812 54.6411 282.829 54.6411 282.847C54.7271 283.019 54.7959 283.173 54.8475 283.294C54.8475 283.362 54.8991 283.431 54.9162 283.483C54.9678 283.586 55.0022 283.655 55.0194 283.706C55.0194 283.706 55.0538 283.775 55.0538 283.792C55.0538 283.792 55.071 283.775 55.0882 283.689C55.1054 283.655 55.1226 283.603 55.1398 283.552C55.1398 283.483 55.1741 283.431 55.2085 283.345C55.2429 283.277 55.2773 283.191 55.3117 283.105C55.3289 283.07 55.3461 283.036 55.3461 283.001C55.3805 282.933 55.3977 282.864 55.4321 282.795C55.4321 282.778 55.4492 282.744 55.4492 282.726C55.5352 282.52 55.6212 282.296 55.7243 282.039C55.8619 281.695 56.0166 281.299 56.2058 280.869C56.5668 280.027 56.9967 279.03 57.5125 277.895H57.4953L57.5297 277.878ZM55.4492 282.795C55.4492 282.795 55.3977 282.933 55.3805 283.001C55.4149 282.933 55.432 282.864 55.4664 282.795H55.4492ZM55.3289 283.105C55.3289 283.105 55.2601 283.277 55.2429 283.345C55.2773 283.277 55.3117 283.191 55.3461 283.105H55.3289ZM55.1226 283.655V283.689C55.1226 283.689 55.157 283.603 55.1741 283.552C55.157 283.586 55.1398 283.638 55.1226 283.655ZM55.1054 283.689C55.1054 283.689 55.0882 283.775 55.071 283.792C55.071 283.792 55.0882 283.775 55.1054 283.689ZM57.5297 277.878C57.0139 279.012 56.584 280.027 56.2402 280.869C56.6012 280.027 57.0311 279.03 57.5469 277.895H57.5297V277.878Z" fill="#82AE40"/>
<path d="M90.679 257.091C90.679 257.091 90.0772 255.182 88.3235 254.391C88.3235 254.391 86.329 252.276 82.4089 252.93C78.5059 253.583 74.4311 255.148 73.7261 255.681C73.0212 256.214 72.471 256.231 71.0267 255.939C69.5653 255.629 66.3672 255.096 65.2153 255.629C64.0633 256.179 62.3611 257.331 65.009 257.933C65.009 257.933 67.5708 258.69 66.4188 262.042C58.6645 273.597 55.0882 283.809 55.0882 283.809C55.0882 283.809 52.1309 276.176 46.8353 274.198C50.2912 267.682 54.177 261.303 57.994 257.073C57.994 257.073 64.837 250.368 66.3844 249.319C66.3329 249.439 65.2325 252.104 69.1182 248.425C69.1182 248.425 69.187 250.265 68.8947 251.228C68.6024 252.173 68.9635 254.254 70.8892 251.296C72.8148 248.339 73.1759 246.946 73.537 242.373C73.537 242.373 75.8925 241.187 76.3395 240.739C76.3395 240.739 78.0417 241.032 80.6208 239.931C80.6208 239.931 82.3917 239.57 83.5781 239.57C84.7644 239.57 86.8105 237.868 82.5464 236.252C82.5464 236.252 81.9619 233.742 79.6063 232.934C79.6063 232.934 76.649 230.286 71.5597 231.008C66.4704 231.747 60.1947 234.842 58.9568 235.513C57.7017 236.183 57.5469 236.974 54.8303 236.252C52.0965 235.513 47.4543 235.942 46.4914 236.544C45.5286 237.146 43.1043 238.384 45.5286 239.278C47.9529 240.155 49.8786 242.012 49.0705 244.797C48.2624 247.6 47.523 249.147 46.3367 251.073C45.1503 252.999 36.3128 267.149 33.218 283.362C33.218 283.362 29.8308 269.865 18.1735 265.67C18.1735 265.67 13.9783 263.899 16.6261 267.304C19.2739 270.708 24.8103 279.408 27.3205 285.959C29.8308 292.527 31.894 297.392 32.2551 298.201C32.6162 299.009 33.665 302.705 35.6423 298.201C36.6739 295.845 40.0094 287.747 44.3766 278.961C44.5142 279.219 44.6345 279.477 44.7893 279.735C46.9041 283.638 48.847 287.455 52.2685 298.699C52.2685 298.699 53.1625 302.568 55.4837 297.496C57.7876 292.441 65.1637 277.173 72.1787 270.863C79.1937 264.535 78.1621 265.911 78.6091 265.653C78.6091 265.653 77.801 267.304 80.4144 265.258C80.4144 265.258 81.0162 264.948 80.3285 267.011C79.6235 269.057 81.532 268.885 82.8903 265.653C84.2486 262.438 83.9907 260.89 83.9907 260.89C83.9907 260.89 85.5897 260.495 86.1055 260.1C86.1055 260.1 88.4095 259.945 89.7162 259.446C89.7162 259.446 95.1837 259.756 90.7306 257.091H90.679Z" fill="white"/>
<path d="M78.4543 2.43591H29.7104C16.2478 2.43591 5.34705 13.3367 5.34705 26.7993V75.5432C5.34705 89.0058 16.265 99.9065 29.7104 99.9065H78.4543C91.9169 99.9065 102.818 88.9886 102.818 75.5432V26.7993C102.818 13.3367 91.8997 2.43591 78.4543 2.43591Z" fill="white"/>
<path d="M77.5776 50.4061L50.8587 77.1594C45.735 82.2831 36.9662 78.638 36.9662 71.3995V46.7095C36.9662 46.5203 37.0522 45.6778 37.0522 45.6778C37.4821 40.5885 41.6945 36.548 46.9214 36.548H71.8349C79.0906 36.548 82.7185 45.3168 77.5776 50.4405V50.4061Z" fill="url(#paint0_linear_168_8013)"/>
<path d="M65.0262 36.5136H46.9041C41.6772 36.5136 37.4648 40.5541 37.035 45.6606C37.035 45.6606 36.9318 46.5203 36.949 46.6922V57.4554C31.6705 54.1199 28.1802 48.2569 28.1802 41.5685C28.1802 31.1836 36.5879 22.8103 46.9385 22.8103C55.5525 22.8103 62.791 28.6046 65.009 36.5136H65.0262Z" fill="url(#paint1_linear_168_8013)"/>
<path opacity="0.1" d="M58.9395 60.9629C65.3699 55.8908 71.8003 36.5135 71.8003 36.5135H63.7193C60.3322 39.2817 44.1014 44.9556 36.9661 47.8785V57.1459C36.9661 65.4332 53.0937 65.5708 58.9395 60.9629Z" fill="white"/>
<path opacity="0.18" d="M71.061 36.5137H63.1004C59.5241 39.2302 43.9467 44.9385 36.9661 47.8786V56.8881C36.9661 64.8659 52.4575 64.9175 58.2518 60.7395C61.5873 58.3495 64.8713 52.7444 67.1409 47.5004C69.6339 41.7061 71.061 36.4965 71.061 36.4965V36.5137Z" fill="#F9F6FD"/>
<path opacity="0.26" d="M70.3046 36.5135H62.4644C58.6818 39.1957 43.8093 44.9384 36.9318 47.8785V56.6472C36.9318 64.3156 51.8215 64.2984 57.5298 60.5502C61.1061 58.1946 64.5792 52.7443 66.7456 47.6206C69.2042 41.7747 70.3046 36.5307 70.3046 36.5307V36.5135Z" fill="#F2EDFB"/>
<path opacity="0.35" d="M69.5824 36.5137H61.8625C57.9079 39.1787 43.6716 44.9213 36.9489 47.8786V56.4067C36.9489 63.7827 51.2368 63.6968 56.8419 60.344C60.6761 58.0573 64.3212 52.7444 66.3672 47.6895C68.7915 41.7749 69.548 36.4965 69.548 36.4965H69.5652L69.5824 36.5137Z" fill="#ECE4F9"/>
<path opacity="0.43" d="M68.8432 36.5135H61.2436C57.0827 39.1269 43.517 44.904 36.9318 47.8785V56.1658C36.9318 63.2324 50.6523 63.1292 56.1371 60.1203C60.2464 57.8852 64.0118 52.7271 65.989 47.7753C68.3446 41.8091 68.8088 36.5135 68.8088 36.5135H68.826H68.8432Z" fill="#E6DBF7"/>
<path opacity="0.51" d="M68.1209 36.5137H60.6417C56.2745 39.0927 43.3793 44.9041 36.9489 47.8786V55.9253C36.9489 62.6823 50.1364 62.5792 55.4664 59.9314C59.8336 57.765 63.771 52.7616 65.6451 47.8614C67.9662 41.8093 68.1038 36.4965 68.1038 36.4965H68.1209V36.5137Z" fill="#DFD2F5"/>
<path opacity="0.59" d="M67.3816 36.5135H60.0571C55.5008 39.0582 43.2761 44.8868 36.9661 47.8785V55.6844C36.9661 62.1492 49.6034 62.0461 54.7958 59.7249C59.4381 57.6617 63.513 52.7615 65.2668 47.9645C67.5191 41.8436 67.3816 36.5135 67.3816 36.5135Z" fill="#D9C8F2"/>
<path opacity="0.67" d="M66.6251 36.5137H59.421C54.6755 39.0239 43.1214 44.8869 36.9489 47.8786V55.4266C36.9489 61.5819 49.0532 61.5132 54.091 59.5015C59.1287 57.4899 63.238 52.7444 64.8885 48.0334C67.0893 41.8609 66.6423 36.4965 66.6423 36.4965L66.6251 36.5137Z" fill="#D2BFF0"/>
<path opacity="0.75" d="M65.903 36.5137H58.8192C53.8846 38.9895 42.9839 44.8526 36.9489 47.8786V55.1859C36.9489 61.0318 48.5202 61.0146 53.4032 59.3124C58.6473 57.4727 62.9457 52.7444 64.5275 48.1365C66.6595 41.8781 65.903 36.4965 65.903 36.4965V36.5137Z" fill="#CCB6EE"/>
<path opacity="0.84" d="M65.1637 36.5135H58.2003C53.0594 38.955 42.8292 44.8524 36.9318 47.8785V54.9451C36.9318 60.4814 47.9873 60.533 52.6984 59.1059C58.2347 57.4209 62.6535 52.7443 64.1493 48.2395C66.2126 41.9295 65.1637 36.5307 65.1637 36.5307V36.5135Z" fill="#C6ADEC"/>
<path opacity="0.92" d="M64.4415 36.5135H57.5984C52.2856 38.9035 42.7087 44.8353 36.9661 47.8785V54.7044C36.9661 59.9485 47.4886 60.0688 52.0277 58.8996C57.8735 57.4038 62.3782 52.7443 63.7881 48.3256C65.7998 41.9295 64.4415 36.5135 64.4415 36.5135Z" fill="#BFA4EA"/>
<path d="M51.3399 58.6762C57.4952 57.4039 62.1203 52.7272 63.427 48.3944C65.3699 41.9296 63.7193 36.4965 63.7193 36.4965H56.9966C51.4775 38.8692 42.5712 44.801 36.9661 47.8614V54.4466C36.9661 59.3812 46.9556 59.6047 51.3399 58.6934V58.6762Z" fill="#B99BE8"/>
<path d="M65.714 41.5685C65.714 51.9191 57.3063 60.3096 46.9557 60.3096C43.2763 60.3096 39.8548 59.2608 36.9662 57.4382V46.675C36.9662 46.4859 37.0522 45.6434 37.0522 45.6434C37.4821 40.5541 41.6945 36.5136 46.9214 36.5136H65.0434C65.4905 38.1126 65.7312 39.832 65.7312 41.5685H65.714Z" fill="url(#paint2_linear_168_8013)"/>
<path d="M354.962 116.911H267.945V199.32H354.962V116.911Z" fill="url(#paint3_linear_168_8013)"/>
<path d="M357.919 109.672H264.61C263.458 109.672 262.529 110.618 262.529 111.77V205.063C262.529 206.232 263.458 207.16 264.61 207.16H357.919C359.071 207.16 360 206.232 360 205.063V111.77C360 110.618 359.071 109.672 357.919 109.672ZM346.864 152.192C345.557 152.708 343.253 152.846 343.253 152.846C342.755 153.241 341.156 153.637 341.156 153.637C341.156 153.637 341.396 155.201 340.038 158.416C338.697 161.632 336.789 161.821 337.493 159.757C338.198 157.711 337.579 158.021 337.579 158.021C334.966 160.067 335.774 158.416 335.774 158.416C335.327 158.674 336.376 157.316 329.361 163.626C322.329 169.936 314.97 185.204 312.649 190.259C311.273 193.268 310.396 193.13 309.932 192.511C309.588 192.099 309.433 191.463 309.433 191.463C307.112 183.829 305.462 179.616 304 176.47C303.295 174.991 302.642 173.753 301.971 172.498C301.817 172.24 301.696 171.982 301.559 171.724C297.192 180.51 293.856 188.626 292.824 190.964C290.83 195.469 289.798 191.772 289.437 190.964C289.076 190.156 287.013 185.29 284.503 178.722C281.992 172.171 276.456 163.471 273.808 160.067C271.16 156.68 275.356 158.451 275.356 158.451C287.013 162.646 290.4 176.143 290.4 176.143C293.512 159.929 302.35 145.762 303.519 143.836C303.794 143.406 304.035 142.994 304.258 142.581C305.049 141.171 305.634 139.744 306.253 137.578C307.061 134.792 305.152 132.953 302.745 132.076C302.745 132.076 302.734 132.07 302.711 132.059C301.146 131.491 301.593 130.769 302.367 130.167C302.797 129.823 303.33 129.531 303.674 129.308C304.499 128.792 308.127 128.414 310.861 128.792C311.273 128.843 311.669 128.912 312.013 129.015C314.729 129.755 314.884 128.947 316.139 128.293C317.394 127.623 323.67 124.528 328.742 123.788C333.831 123.049 336.789 125.714 336.789 125.714C339.144 126.522 339.729 129.032 339.729 129.032C344.01 130.649 341.947 132.351 340.777 132.351C339.608 132.351 337.82 132.729 337.82 132.729C335.241 133.83 333.539 133.52 333.539 133.52C333.092 133.967 330.736 135.153 330.736 135.153C330.375 139.727 329.997 141.12 328.089 144.077C326.163 147.017 325.785 144.954 326.094 144.008C326.386 143.028 326.318 141.188 326.318 141.188C322.432 144.868 323.532 142.203 323.584 142.082C322.019 143.131 315.176 149.837 315.176 149.837C314.626 150.439 314.093 151.075 313.543 151.762C310.585 155.459 307.645 160.273 304.946 165.259C304.619 165.827 304.327 166.394 304.018 166.962C304.293 167.065 304.568 167.185 304.826 167.323C309.623 169.695 312.27 176.573 312.27 176.573C312.27 176.573 312.442 176.074 312.786 175.197C314.041 171.999 317.549 163.798 323.601 154.806C324.753 151.436 322.191 150.696 322.191 150.696C319.526 150.077 321.245 148.926 322.397 148.375C323.549 147.825 326.765 148.375 328.209 148.685C329.67 148.994 330.221 148.994 330.908 148.427C331.613 147.877 335.688 146.329 339.591 145.676C343.511 145.023 345.523 147.137 345.523 147.137C347.277 147.928 347.878 149.837 347.878 149.837C352.349 152.502 346.864 152.192 346.864 152.192Z" fill="url(#paint4_linear_168_8013)"/>
<defs>
<linearGradient id="paint0_linear_168_8013" x1="58.4755" y1="37.1326" x2="58.4755" y2="79.7212" gradientUnits="userSpaceOnUse">
<stop stop-color="#B07BF6"/>
<stop offset="1" stop-color="#5B42FF"/>
</linearGradient>
<linearGradient id="paint1_linear_168_8013" x1="46.6118" y1="22.7931" x2="46.6118" y2="57.4383" gradientUnits="userSpaceOnUse">
<stop stop-color="#94FFE5"/>
<stop offset="1" stop-color="#6BD2E4"/>
</linearGradient>
<linearGradient id="paint2_linear_168_8013" x1="64.9403" y1="48.4116" x2="37.6196" y2="48.4116" gradientUnits="userSpaceOnUse">
<stop stop-color="#52CEF2"/>
<stop offset="1" stop-color="#31ADF9"/>
</linearGradient>
<linearGradient id="paint3_linear_168_8013" x1="353.81" y1="200.472" x2="269.097" y2="115.759" gradientUnits="userSpaceOnUse">
<stop offset="0.5" stop-color="white"/>
<stop offset="0.9" stop-color="white"/>
</linearGradient>
<linearGradient id="paint4_linear_168_8013" x1="359.398" y1="206.541" x2="263.131" y2="110.291" gradientUnits="userSpaceOnUse">
<stop offset="0.1" stop-color="#B07BF6"/>
<stop offset="0.16" stop-color="#A77EF6"/>
<stop offset="0.25" stop-color="#8E88F6"/>
<stop offset="0.37" stop-color="#6797F7"/>
<stop offset="0.5" stop-color="#31ADF9"/>
<stop offset="0.9" stop-color="#94FFE5"/>
</linearGradient>
</defs>
</svg>
