<svg width="60" height="49" viewBox="0 0 60 49" fill="none" xmlns="http://www.w3.org/2000/svg">
<path d="M46.3757 48.5196C45.6178 48.8261 45.0223 48.718 44.4449 48.718C31.7593 48.718 19.0556 48.6458 6.36997 48.772C2.6527 48.8081 -0.0179535 45.6528 9.1525e-05 42.5877C0.0903164 30.3631 0.0722715 18.1386 9.1525e-05 5.89599C-0.0179535 3.13735 2.63466 -0.0179534 5.86471 7.69157e-05C21.8887 0.108259 37.8946 0.0361375 53.9185 0.0541678C57.5275 0.0541678 59.9455 2.4522 59.9455 6.04023C59.9636 18.1566 59.8733 30.273 59.9997 42.3893C60.0357 45.5266 57.2027 49.0966 53.4674 48.736C51.5546 48.5557 49.5877 48.6819 47.6569 48.736C46.8268 48.754 46.5381 48.4475 46.3757 47.6542C45.8885 45.2742 45.2569 42.9302 44.7156 40.5502C44.4088 39.252 44.5351 39.1439 45.7983 38.621C48.7035 37.413 50.526 35.2854 50.5802 32.094C50.6884 26.9013 50.7245 21.6905 50.5802 16.4978C50.49 12.8917 47.4945 9.79053 43.3622 9.68235C39.9336 9.5922 36.487 9.66432 33.0585 9.66432C27.9518 9.66432 22.8631 9.68235 17.7564 9.66432C14.9774 9.66432 12.6857 10.5658 11.0617 12.9098C10.1775 14.1719 9.74438 15.5783 9.74438 17.1108C9.74438 21.8708 9.74438 26.6308 9.74438 31.3908C9.74438 36.0967 13.2451 39.1619 17.6661 39.1258C22.9894 39.0717 28.3127 39.1258 33.6359 39.0717C34.6284 39.0717 35.4404 39.2881 36.2164 39.9552C39.5366 42.804 42.893 45.5987 46.3577 48.5377L46.3757 48.5196Z" fill="#0411B1"/>
<path d="M39.302 21.7987C39.302 23.5116 39.4103 25.2425 39.284 26.9374C39.1035 29.4075 38.3998 31.6613 36.5051 33.4643C34.0329 35.8083 31.0374 35.9886 27.9698 35.5378C24.4149 35.0149 22.1593 32.8874 21.2751 29.3534C20.9503 28.0552 20.7518 26.7571 20.7518 25.4228C20.7698 22.7183 20.7518 19.9957 20.7518 17.2911C20.7518 16.5699 20.8059 15.8487 21.0044 15.1636C21.4014 13.7392 21.9789 13.2884 23.3503 13.3064C24.7037 13.3245 25.263 13.7752 25.6059 15.2537C25.7503 15.8848 25.7683 16.5699 25.7683 17.2371C25.7683 19.8334 25.7864 22.4478 25.7683 25.0442C25.7683 25.9457 25.8585 26.8111 26.0209 27.6766C26.436 29.7681 27.8615 30.9401 29.9728 30.9761C32.1021 31.0302 33.4735 29.9664 34.0329 27.8389C34.2494 27.0275 34.3397 26.2161 34.3216 25.3687C34.3216 22.6101 34.3216 19.8334 34.3216 17.0748C34.3216 16.4077 34.3758 15.7586 34.5743 15.1095C34.9712 13.7933 35.5487 13.3064 36.7757 13.2884C38.093 13.2704 38.5622 13.631 39.0494 15.0013C39.266 15.5783 39.302 16.1913 39.302 16.8043C39.302 18.4631 39.302 20.1219 39.302 21.7807V21.7987Z" fill="#0411B1"/>
</svg>
