<svg width="508" height="128" viewBox="0 0 508 128" fill="none" xmlns="http://www.w3.org/2000/svg">
<g clip-path="url(#clip0_25_563)">
<path d="M95.8642 0H31.9547C14.3067 0 0 14.3066 0 31.9547V95.8643C0 113.512 14.3067 127.819 31.9547 127.819H95.8642C113.512 127.819 127.819 113.512 127.819 95.8643V31.9547C127.819 14.3066 113.512 0 95.8642 0Z" fill="white"/>
<path d="M94.7189 62.8978L59.6752 97.9682C52.9644 104.679 41.4609 99.9119 41.4609 90.4054V58.0247C41.4609 57.7851 41.5675 56.6664 41.5675 56.6664C42.1265 49.9826 47.6653 44.6835 54.5091 44.6835H87.1828C96.6893 44.6835 101.456 56.1874 94.7189 62.8978Z" fill="url(#paint0_linear_25_563)"/>
<path d="M78.2626 44.6834H54.5094C47.666 44.6834 42.1269 49.9825 41.5678 56.6666C41.5678 56.6666 41.4345 57.7849 41.4612 58.0246V72.1379C34.5377 67.7708 29.9576 60.075 29.9576 51.3141C29.9576 37.7066 40.9818 26.709 54.5628 26.709C65.8533 26.709 75.3598 34.2981 78.2626 44.6834Z" fill="url(#paint1_linear_25_563)"/>
<g style="mix-blend-mode:multiply">
<path opacity="0.1" d="M70.2733 76.7448C78.7145 70.0876 87.1293 44.6835 87.1293 44.6835H76.5311C72.084 48.3052 50.8076 55.761 41.4608 59.5958V71.7386C41.4608 82.6032 62.6042 82.7895 70.2733 76.7448Z" fill="white"/>
<path opacity="0.18" d="M86.1706 44.6835H75.7321C71.0457 48.2519 50.6213 55.7344 41.4608 59.5958V71.419C41.4608 81.8842 61.7785 81.9375 69.368 76.4784C73.7351 73.3363 78.0488 65.9866 81.0312 59.1164C84.3066 51.5273 86.1706 44.6835 86.1706 44.6835Z" fill="#F9F6FD"/>
<path opacity="0.26" d="M85.1857 44.6835H74.9068C69.9538 48.1985 50.435 55.7344 41.4342 59.5958V71.0993C41.4342 81.1652 60.9532 81.1385 68.4361 76.2121C73.1228 73.1233 77.6762 65.9866 80.5256 59.2494C83.7477 51.5803 85.1857 44.7101 85.1857 44.7101V44.6835Z" fill="#F2EDFB"/>
<path opacity="0.35" d="M84.227 44.6835H74.1082C68.9154 48.1719 50.2484 55.708 41.4342 59.5958V70.78C41.4342 80.4462 60.1812 80.3395 67.5307 75.9458C72.5635 72.9367 77.3302 65.9866 80.0196 59.3561C83.1884 51.6069 84.2004 44.6835 84.2004 44.6835H84.227Z" fill="#ECE4F9"/>
<path opacity="0.43" d="M83.2683 44.6835H73.3092C67.8504 48.1185 50.062 55.6813 41.4342 59.5958V70.4603C41.4342 79.7271 59.4355 79.5941 66.6253 75.6531C72.0044 72.7237 76.9572 65.9599 79.5403 59.4624C82.6293 51.6336 83.2417 44.6835 83.2417 44.6835H83.2683Z" fill="#E6DBF7"/>
<path opacity="0.51" d="M82.3098 44.6836H72.5102C66.7851 48.0653 49.8758 55.6815 41.4343 59.5959V70.1408C41.4343 79.0083 58.7166 78.8752 65.7201 75.3868C71.4452 72.5375 76.6113 65.9867 79.061 59.5692C82.0968 51.6337 82.2831 44.6569 82.2831 44.6569L82.3098 44.6836Z" fill="#DFD2F5"/>
<path opacity="0.59" d="M81.3509 44.6835H71.738C65.7729 48.0122 49.7423 55.6547 41.4608 59.5958V69.8213C41.4608 78.2891 58.0241 78.1561 64.8409 75.1204C70.939 72.4043 76.2648 65.9866 78.5815 59.7021C81.5372 51.6869 81.3509 44.6835 81.3509 44.6835Z" fill="#D9C8F2"/>
<path opacity="0.67" d="M80.3659 44.6835H70.9124C64.6813 47.9855 49.5294 55.6547 41.4342 59.5958V69.5016C41.4342 77.5701 57.3052 77.4904 63.909 74.8541C70.5131 72.2177 75.8922 65.9866 78.0756 59.8088C80.9516 51.7136 80.3659 44.6835 80.3659 44.6835Z" fill="#D2BFF0"/>
<path opacity="0.75" d="M79.4073 44.6835H70.1137C63.643 47.9322 49.343 55.628 41.4342 59.5958V69.1823C41.4342 76.8511 56.6128 76.8247 63.0036 74.5877C69.8741 72.1647 75.5192 65.9866 77.5966 59.9418C80.3923 51.7403 79.4073 44.6835 79.4073 44.6835Z" fill="#CCB6EE"/>
<path opacity="0.84" d="M78.4486 44.6835H69.3147C62.5776 47.8789 49.1567 55.628 41.4342 59.5958V68.8626C41.4342 76.1324 55.9205 76.1854 62.0983 74.3214C69.3681 72.1113 75.1465 65.9866 77.1172 60.0751C79.8333 51.7933 78.4486 44.7101 78.4486 44.7101V44.6835Z" fill="#C6ADEC"/>
<path opacity="0.92" d="M77.4898 44.6835H68.5156C61.5391 47.8258 48.9969 55.6013 41.4608 59.5958V68.5429C41.4608 75.4134 55.2547 75.5731 61.2195 74.0554C68.8886 72.0847 74.8001 65.9866 76.6375 60.1814C79.2738 51.7933 77.4898 44.6835 77.4898 44.6835Z" fill="#BFA4EA"/>
<path d="M60.3141 73.7624C68.3826 72.0847 74.4541 65.9599 76.1581 60.2881C78.7145 51.8199 76.5311 44.6835 76.5311 44.6835H67.7169C60.4738 47.7992 48.8103 55.5747 41.4608 59.5958V68.2236C41.4608 74.6944 54.5623 74.9874 60.3141 73.789V73.7624Z" fill="#B99BE8"/>
</g>
<path d="M79.1676 51.3143C79.1676 64.8949 68.1431 75.8928 54.5624 75.8928C49.7424 75.8928 45.2423 74.5081 41.4609 72.138V58.0247C41.4609 57.7851 41.5675 56.6664 41.5675 56.6664C42.1265 49.9826 47.6653 44.6835 54.5091 44.6835H78.2619C78.8479 46.7872 79.1676 49.0239 79.1676 51.3143Z" fill="url(#paint2_linear_25_563)"/>
<path d="M171.879 83.1444C166.534 83.1444 161.924 82.0165 158.05 79.7608C154.226 77.5051 151.283 74.3912 149.224 70.4192C147.213 66.3981 146.208 61.7886 146.208 56.5906C146.208 51.2946 147.238 46.636 149.297 42.615C151.406 38.5939 154.397 35.48 158.271 33.2733C162.145 31.0176 166.755 29.8897 172.1 29.8897C177.396 29.8897 181.956 30.9931 185.781 33.1998C189.606 35.4065 192.548 38.4958 194.608 42.4678C196.716 46.4399 197.771 51.0739 197.771 56.37C197.771 61.5679 196.716 66.202 194.608 70.2721C192.548 74.2931 189.582 77.4561 185.708 79.7608C181.883 82.0165 177.273 83.1444 171.879 83.1444ZM172.026 73.2879C175.557 73.2879 178.426 72.4788 180.632 70.8605C182.839 69.2423 184.433 67.1582 185.413 64.6082C186.443 62.0583 186.958 59.3858 186.958 56.5906C186.958 54.531 186.664 52.496 186.075 50.4855C185.536 48.4749 184.678 46.6605 183.501 45.0423C182.324 43.4241 180.779 42.1491 178.867 41.2174C176.954 40.2366 174.65 39.7463 171.953 39.7463C168.471 39.7463 165.627 40.5554 163.42 42.1736C161.213 43.7428 159.571 45.8024 158.492 48.3523C157.462 50.9023 156.947 53.6239 156.947 56.5171C156.947 59.4103 157.462 62.1318 158.492 64.6818C159.571 67.2317 161.213 69.3158 163.42 70.9341C165.676 72.5033 168.544 73.2879 172.026 73.2879ZM204.497 82.5559V43.7918H213.765L214.427 48.4259C215.407 46.9548 216.511 45.8514 217.737 45.1159C218.963 44.3313 220.238 43.8164 221.562 43.5712C222.886 43.277 224.234 43.1298 225.607 43.1298C226.245 43.1298 226.833 43.1544 227.373 43.2034C227.912 43.2034 228.304 43.2034 228.549 43.2034V53.1335H226.122C223.817 53.1335 221.807 53.5258 220.09 54.3104C218.374 55.095 217.05 56.3209 216.118 57.9882C215.236 59.6555 214.794 61.7886 214.794 64.3876V82.5559H204.497ZM233.373 82.5559V43.7918H243.671V82.5559H233.373ZM238.522 39.8934C236.61 39.8934 235.065 39.3294 233.888 38.2016C232.711 37.0247 232.123 35.529 232.123 33.7147C232.123 31.8022 232.736 30.2575 233.962 29.0806C235.188 27.9037 236.732 27.3153 238.596 27.3153C240.312 27.3153 241.783 27.9037 243.009 29.0806C244.284 30.2085 244.921 31.7286 244.921 33.6411C244.921 35.5045 244.309 37.0247 243.083 38.2016C241.906 39.3294 240.386 39.8934 238.522 39.8934ZM270.517 100.504C267.477 100.504 264.682 100.013 262.132 99.0325C259.582 98.1008 257.424 96.6052 255.659 94.5456C253.893 92.486 252.692 89.838 252.055 86.6015H262.573C262.916 87.5823 263.456 88.3914 264.191 89.0289C264.976 89.7154 265.908 90.2303 266.986 90.5736C268.114 90.9168 269.291 91.0885 270.517 91.0885C272.823 91.0885 274.612 90.5981 275.887 89.6173C277.162 88.6366 278.045 87.3371 278.535 85.7189C279.026 84.1497 279.271 82.4088 279.271 80.4964V77.7748C278.388 79.1969 277.285 80.2757 275.961 81.0113C274.637 81.7468 273.239 82.2617 271.768 82.5559C270.346 82.8992 268.973 83.0708 267.648 83.0708C263.578 83.0708 260.268 82.1636 257.718 80.3493C255.168 78.5349 253.305 76.1566 252.128 73.2143C250.951 70.223 250.363 67.0111 250.363 63.5785C250.363 59.8026 251.025 56.37 252.349 53.2806C253.673 50.1912 255.659 47.7394 258.307 45.925C260.955 44.1106 264.265 43.2034 268.237 43.2034C270.64 43.2034 272.774 43.5957 274.637 44.3803C276.5 45.1159 278.094 46.2192 279.418 47.6903L280.301 43.7918H289.716V77.6277C289.716 82.3353 289.103 86.3809 287.877 89.7644C286.651 93.1971 284.616 95.8451 281.772 97.7085C278.977 99.5719 275.225 100.504 270.517 100.504ZM269.929 73.8028C272.086 73.8028 273.852 73.3124 275.225 72.3316C276.647 71.3509 277.702 70.0514 278.388 68.4332C279.075 66.7659 279.418 64.976 279.418 63.0636C279.418 61.053 279.075 59.2632 278.388 57.694C277.702 56.0757 276.672 54.8008 275.299 53.869C273.926 52.8883 272.16 52.3979 270.002 52.3979C267.648 52.3979 265.785 52.9619 264.412 54.0897C263.039 55.1685 262.058 56.5416 261.47 58.2089C260.93 59.8271 260.661 61.5434 260.661 63.3578C260.661 65.2212 260.955 66.962 261.543 68.5803C262.132 70.1495 263.113 71.4244 264.486 72.4052C265.859 73.3369 267.673 73.8028 269.929 73.8028ZM297.807 82.5559V43.7918H308.105V82.5559H297.807ZM302.956 39.8934C301.044 39.8934 299.499 39.3294 298.322 38.2016C297.145 37.0247 296.557 35.529 296.557 33.7147C296.557 31.8022 297.17 30.2575 298.396 29.0806C299.622 27.9037 301.166 27.3153 303.03 27.3153C304.746 27.3153 306.217 27.9037 307.443 29.0806C308.718 30.2085 309.355 31.7286 309.355 33.6411C309.355 35.5045 308.742 37.0247 307.517 38.2016C306.34 39.3294 304.819 39.8934 302.956 39.8934ZM316.267 82.5559V43.7918H325.903L326.417 48.2788C327.496 46.9548 328.722 45.925 330.095 45.1894C331.517 44.4048 332.939 43.8654 334.361 43.5712C335.833 43.277 337.157 43.1298 338.334 43.1298C342.06 43.1298 344.954 43.939 347.013 45.5572C349.122 47.1754 350.617 49.3576 351.5 52.1037C352.432 54.8008 352.898 57.8166 352.898 61.1511V82.5559H342.6V62.4751C342.6 61.2982 342.502 60.1213 342.306 58.9444C342.109 57.7675 341.742 56.6887 341.202 55.7079C340.712 54.7272 340.001 53.9426 339.069 53.3542C338.137 52.7657 336.911 52.4715 335.391 52.4715C333.43 52.4715 331.787 52.9619 330.463 53.9426C329.139 54.9233 328.158 56.2474 327.521 57.9146C326.883 59.5819 326.565 61.4208 326.565 63.4313V82.5559H316.267ZM373.089 83.0708C371.323 83.0708 369.607 82.8502 367.94 82.4088C366.322 81.9185 364.875 81.1829 363.6 80.2021C362.325 79.2214 361.32 77.9955 360.584 76.5243C359.849 75.0532 359.481 73.3369 359.481 71.3754C359.481 68.7274 360.02 66.6188 361.099 65.0496C362.178 63.4313 363.625 62.2054 365.439 61.3718C367.253 60.5381 369.337 59.9742 371.691 59.68C374.094 59.3858 376.57 59.2386 379.12 59.2386H384.711C384.711 57.8166 384.441 56.5661 383.902 55.4873C383.411 54.3594 382.651 53.5013 381.621 52.9128C380.592 52.2753 379.267 51.9566 377.649 51.9566C376.619 51.9566 375.614 52.1037 374.633 52.3979C373.702 52.6431 372.917 53.0109 372.28 53.5013C371.642 53.9916 371.225 54.6291 371.029 55.4137H360.584C360.878 53.2561 361.565 51.4172 362.644 49.897C363.723 48.3278 365.071 47.0528 366.689 46.0721C368.308 45.0913 370.073 44.3803 371.985 43.939C373.947 43.4486 375.957 43.2034 378.017 43.2034C383.656 43.2034 387.825 44.8216 390.522 48.0581C393.219 51.2455 394.564 55.7815 394.564 61.666V82.5559H385.299L385.152 77.5541C383.926 79.2704 382.528 80.5209 380.959 81.3055C379.439 82.0901 377.968 82.5805 376.546 82.7766C375.124 82.9728 373.971 83.0708 373.089 83.0708ZM375.443 74.9061C377.159 74.9061 378.728 74.5628 380.15 73.8763C381.572 73.1898 382.7 72.2581 383.534 71.0812C384.367 69.9043 384.784 68.5803 384.784 67.1091V66.1529H377.723C376.693 66.1529 375.688 66.202 374.707 66.3C373.775 66.3981 372.917 66.5943 372.133 66.8885C371.397 67.1337 370.809 67.5505 370.367 68.1389C369.926 68.7274 369.705 69.512 369.705 70.4927C369.705 71.4735 369.95 72.3071 370.441 72.9936C370.98 73.6311 371.691 74.1215 372.574 74.4648C373.457 74.759 374.413 74.9061 375.443 74.9061ZM402.609 82.5559V30.4782H412.907V82.5559H402.609ZM421.072 82.5559V43.7918H431.37V82.5559H421.072ZM426.221 39.8934C424.308 39.8934 422.764 39.3294 421.587 38.2016C420.41 37.0247 419.821 35.529 419.821 33.7147C419.821 31.8022 420.434 30.2575 421.66 29.0806C422.886 27.9037 424.431 27.3153 426.294 27.3153C428.011 27.3153 429.482 27.9037 430.708 29.0806C431.983 30.2085 432.62 31.7286 432.62 33.6411C432.62 35.5045 432.007 37.0247 430.781 38.2016C429.604 39.3294 428.084 39.8934 426.221 39.8934ZM455.346 83.0708C450.982 83.0708 447.745 81.8449 445.637 79.393C443.577 76.9412 442.547 73.5821 442.547 69.3158V52.9864H436.736V43.7918H442.547V33.3469H452.845V43.7918H464.614V52.9864H452.845V67.1827C452.845 68.4577 452.992 69.561 453.286 70.4927C453.63 71.4244 454.169 72.16 454.905 72.6994C455.689 73.1898 456.744 73.435 458.068 73.435C459.244 73.435 460.225 73.2634 461.01 72.9201C461.843 72.5278 462.53 72.111 463.069 71.6696L466.306 79.6137C465.276 80.4473 464.124 81.1339 462.849 81.6733C461.623 82.1636 460.372 82.5069 459.097 82.7031C457.822 82.9482 456.572 83.0708 455.346 83.0708ZM487.702 100.43C484.71 100.43 481.793 100.038 478.948 99.2532C476.104 98.4686 473.432 97.1446 470.931 95.2812L474.388 87.0429C475.957 88.2198 477.747 89.1515 479.757 89.838C481.768 90.5736 483.999 90.9413 486.451 90.9413C490.227 90.9413 493.022 90.0587 494.836 88.2933C496.7 86.528 497.632 83.978 497.632 80.6435V78.5839C496.798 79.7118 495.744 80.619 494.469 81.3055C493.243 81.943 491.919 82.4088 490.497 82.7031C489.075 82.9973 487.653 83.1444 486.23 83.1444C482.504 83.1444 479.512 82.3598 477.257 80.7906C475.001 79.2214 473.358 77.0883 472.328 74.3912C471.348 71.6451 470.857 68.5312 470.857 65.0496V43.7918H481.155V62.9164C481.155 64.1914 481.229 65.4664 481.376 66.7414C481.523 68.0163 481.866 69.1932 482.406 70.2721C482.945 71.3509 483.754 72.2336 484.833 72.9201C485.912 73.5576 487.358 73.8763 489.173 73.8763C491.526 73.8763 493.292 73.3124 494.469 72.1845C495.646 71.0076 496.43 69.5365 496.822 67.7712C497.264 66.0058 497.485 64.1669 497.485 62.2544V43.7918H507.782V76.9657C507.782 80.4964 507.439 83.7083 506.753 86.6015C506.115 89.4947 505.012 91.9711 503.443 94.0307C501.922 96.0903 499.863 97.6595 497.264 98.7383C494.714 99.8662 491.526 100.43 487.702 100.43Z" fill="#2B2B2B"/>
</g>
<defs>
<linearGradient id="paint0_linear_25_563" x1="69.6608" y1="45.5092" x2="69.6608" y2="101.35" gradientUnits="userSpaceOnUse">
<stop stop-color="#B07BF6"/>
<stop offset="1" stop-color="#5B42FF"/>
</linearGradient>
<linearGradient id="paint1_linear_25_563" x1="54.1101" y1="26.709" x2="54.1101" y2="72.1379" gradientUnits="userSpaceOnUse">
<stop stop-color="#94FFE5"/>
<stop offset="1" stop-color="#6BD2E4"/>
</linearGradient>
<linearGradient id="paint2_linear_25_563" x1="78.1556" y1="60.2881" x2="42.3129" y2="60.2881" gradientUnits="userSpaceOnUse">
<stop stop-color="#52CEF2"/>
<stop offset="1" stop-color="#31ADF9"/>
</linearGradient>
<clipPath id="clip0_25_563">
<rect width="507.782" height="127.819" fill="white"/>
</clipPath>
</defs>
</svg>
