<svg width="168" height="49" viewBox="0 0 168 49" fill="none" xmlns="http://www.w3.org/2000/svg">
<path d="M47.27 48.5196C46.5121 48.8261 45.9166 48.718 45.3392 48.718C32.6535 48.718 19.9499 48.6458 7.26426 48.772C3.54699 48.8081 0.876334 45.6528 0.894379 42.5877C0.984604 30.3631 0.966559 18.1386 0.894379 5.89599C0.876334 3.13735 3.52895 -0.0179534 6.759 7.69157e-05C22.7829 0.108259 38.7888 0.0361375 54.8128 0.0541678C58.4218 0.0541678 60.8398 2.4522 60.8398 6.04023C60.8579 18.1566 60.7676 30.273 60.8939 42.3893C60.93 45.5266 58.097 49.0966 54.3617 48.736C52.4489 48.5557 50.482 48.6819 48.5512 48.736C47.7211 48.754 47.4324 48.4475 47.27 47.6542C46.7828 45.2742 46.1512 42.9302 45.6098 40.5502C45.3031 39.252 45.4294 39.1439 46.6925 38.621C49.5978 37.413 51.4203 35.2854 51.4745 32.094C51.5827 26.9013 51.6188 21.6905 51.4745 16.4978C51.3842 12.8917 48.3888 9.79053 44.2565 9.68235C40.8279 9.5922 37.3813 9.66432 33.9528 9.66432C28.8461 9.66432 23.7574 9.68235 18.6506 9.66432C15.8717 9.66432 13.58 10.5658 11.956 12.9098C11.0717 14.1719 10.6387 15.5783 10.6387 17.1108C10.6387 21.8708 10.6387 26.6308 10.6387 31.3908C10.6387 36.0967 14.1394 39.1619 18.5604 39.1258C23.8837 39.0717 29.207 39.1258 34.5302 39.0717C35.5227 39.0717 36.3347 39.2881 37.1107 39.9552C40.4309 42.804 43.7873 45.5987 47.2519 48.5377L47.27 48.5196Z" fill="#0411B1"/>
<path d="M40.1963 21.7987C40.1963 23.5116 40.3046 25.2425 40.1783 26.9374C39.9978 29.4075 39.2941 31.6613 37.3994 33.4643C34.9272 35.8083 31.9317 35.9886 28.8641 35.5378C25.3092 35.0149 23.0536 32.8874 22.1694 29.3534C21.8446 28.0552 21.6461 26.7571 21.6461 25.4228C21.6641 22.7183 21.6461 19.9957 21.6461 17.2911C21.6461 16.5699 21.7002 15.8487 21.8987 15.1636C22.2957 13.7392 22.8731 13.2884 24.2446 13.3064C25.5979 13.3245 26.1573 13.7752 26.5002 15.2537C26.6445 15.8848 26.6626 16.5699 26.6626 17.2371C26.6626 19.8334 26.6806 22.4478 26.6626 25.0442C26.6626 25.9457 26.7528 26.8111 26.9152 27.6766C27.3303 29.7681 28.7558 30.9401 30.8671 30.9761C32.9964 31.0302 34.3678 29.9664 34.9272 27.8389C35.1437 27.0275 35.234 26.2161 35.2159 25.3687C35.2159 22.6101 35.2159 19.8334 35.2159 17.0748C35.2159 16.4077 35.2701 15.7586 35.4685 15.1095C35.8655 13.7933 36.443 13.3064 37.67 13.2884C38.9873 13.2704 39.4565 13.631 39.9437 15.0013C40.1602 15.5783 40.1963 16.1913 40.1963 16.8043C40.1963 18.4631 40.1963 20.1219 40.1963 21.7807V21.7987Z" fill="#0411B1"/>
<path d="M102.143 25.8398C102.143 23.6632 102.143 21.4866 102.143 19.31C102.143 18.6174 102.143 17.9496 102.193 17.2571C102.267 16.0698 103.035 15.5257 104.124 15.402C105.312 15.2783 106.055 15.9461 106.178 17.0592C106.376 18.6422 106.451 20.2252 106.451 21.8081C106.451 25.0731 106.376 28.338 106.302 31.5782C106.302 32.5675 106.228 33.6558 105.015 33.9526C103.827 34.2495 102.886 33.9032 102.069 32.8149C100.089 30.1436 97.96 27.596 95.9301 24.9741C95.5588 24.5042 95.2122 24.0342 94.3211 23.5643C94.3211 25.7656 94.3211 27.7444 94.3211 29.7478C94.3211 30.4404 94.3211 31.1082 94.2716 31.8008C94.1478 32.9385 93.7517 33.8784 92.3902 33.9526C91.1525 34.0268 90.3851 33.3343 90.1376 31.9244C90.0386 31.3308 90.0138 30.7125 90.0138 30.1188C90.0138 26.4829 90.0138 22.847 90.0386 19.1863C90.0386 18.8153 90.0138 18.4196 90.0633 18.0486C90.2119 17.0097 90.1376 15.8225 91.4496 15.4267C92.7368 15.0557 93.8012 15.773 94.3953 16.6882C95.3608 18.1475 96.549 19.4089 97.5391 20.8435C98.7769 22.6491 100.089 24.3805 102.119 25.7904L102.143 25.8398Z" fill="#0411B1"/>
<path d="M86.6966 23.1192C86.6966 24.5537 86.7709 25.9883 86.6966 27.4229C86.4986 30.8857 84.84 33.087 81.4734 33.9775C77.7851 34.9174 74.7403 34.2743 72.5619 31.6525C71.7945 30.7126 71.2499 29.649 71.1261 28.3875C70.8043 24.8258 70.9033 21.2641 70.9281 17.7271C70.9281 16.6388 71.2499 15.6 72.6361 15.4268C74.1462 15.2289 75.0126 15.8968 75.1116 17.6529C75.2354 19.6811 75.1611 21.734 75.1858 23.787C75.1858 24.999 75.1858 26.2109 75.4581 27.3982C75.978 29.5006 76.9682 30.2673 79.1713 30.1684C81.2011 30.0695 82.1666 29.179 82.2903 27.0766C82.4636 24.2817 82.5131 21.4867 82.5874 18.6917C82.6369 16.3915 83.132 15.501 84.5182 15.4021C86.0035 15.3032 86.7709 16.2678 86.8699 18.5928C86.9442 20.1016 86.8699 21.6104 86.8699 23.1192C86.8204 23.1192 86.7709 23.1192 86.6966 23.1192Z" fill="#0411B1"/>
<path d="M121.872 28.165C122.392 26.2358 122.813 24.8012 123.184 23.3666C123.259 23.0698 123.234 22.7482 123.308 22.4762C123.754 20.819 124.521 20.0027 125.635 20.1017C127.145 20.2501 127.492 21.4126 127.764 22.6493C128.21 24.628 128.729 26.6068 129.249 28.6845C130.561 26.7305 130.462 24.4302 131.329 22.4514C131.502 22.0309 131.551 21.561 131.749 21.1653C132.22 20.2748 132.987 19.7801 134.002 20.0769C135.017 20.3738 135.413 21.19 135.339 22.1794C135.289 22.8472 135.141 23.5397 134.918 24.1828C134.002 26.8294 133.061 29.4759 132.071 32.0978C131.7 33.1119 131.131 33.9776 129.843 34.0518C128.309 34.1507 127.244 33.4087 126.972 31.801C126.7 30.1932 126.229 28.635 125.239 27.1262C124.843 28.6102 124.422 30.0943 124.051 31.6031C123.63 33.3098 122.912 34.1012 121.625 34.2249C120.115 34.3486 119.447 33.285 119.001 32.1225C117.887 29.1544 116.798 26.1616 115.783 23.144C115.263 21.561 115.709 20.4232 116.773 20.0769C118.011 19.6812 119.05 20.2996 119.645 21.9567C120.338 23.8613 120.536 25.939 121.823 28.165H121.872Z" fill="#0411B1"/>
<path d="M158.979 28.4122C159.846 30.2425 160.885 30.7866 162.915 30.3167C163.707 30.1188 164.475 29.7478 165.242 29.451C166.208 29.0552 167.124 29.1789 167.643 30.0694C168.139 30.8856 167.742 31.7018 167.049 32.2954C164.896 34.2 162.346 34.6452 159.623 33.9279C156.875 33.2106 155.093 31.405 154.647 28.6348C154.177 25.7656 154.697 23.0448 157.222 21.1156C160.415 18.6669 165.539 19.7799 167.396 23.3664C168.039 24.5784 167.891 25.8645 167.841 27.1507C167.792 28.0906 167.049 28.1401 166.356 28.1648C164.376 28.1896 162.42 28.1648 160.44 28.2143C159.945 28.2143 159.375 28.0659 158.93 28.4616L158.979 28.4122ZM163.906 25.2956C163.584 23.4901 162.47 23.1932 161.183 23.2427C159.97 23.2922 159.103 23.8611 158.93 25.2709C160.638 25.4935 162.197 25.4688 163.906 25.2709V25.2956Z" fill="#0411B1"/>
<path d="M149.325 29.649C148.632 28.8327 147.642 28.5359 146.676 28.0907C143.929 26.8045 143.112 26.5077 143.236 23.5149C143.285 22.6245 143.656 21.9814 144.251 21.3383C146.082 19.3101 150.34 19.3101 152.221 20.9425C152.939 21.5609 153.533 22.2287 152.915 23.2675C152.37 24.2074 151.578 24.4795 150.612 24.1085C149.82 23.8117 149.078 23.4407 148.211 23.4901C147.914 23.4901 147.568 23.6138 147.568 23.9848C147.568 24.1827 147.667 24.4548 147.815 24.5537C148.236 24.8505 148.706 25.1968 149.201 25.2957C150.192 25.5183 150.984 26.0872 151.776 26.6561C154.029 28.3381 154.029 31.1825 151.776 32.9139C149.697 34.4969 146.478 34.6947 144.226 33.3838C143.681 33.0623 143.335 32.6171 143.087 32.0234C142.691 31.133 142.889 30.3663 143.508 29.7232C144.053 29.1543 144.696 29.2532 145.389 29.6242C145.909 29.921 146.503 30.0942 147.097 30.2426C147.914 30.4652 148.756 30.6136 149.375 29.6242L149.325 29.649Z" fill="#0411B1"/>
<path d="M113.976 24.8259C113.976 26.953 113.926 29.0554 113.976 31.1826C114.05 33.0624 113.085 34.0023 111.797 34.0765C110.584 34.1507 109.619 33.1118 109.594 31.4299C109.52 26.9777 109.52 22.5009 109.57 18.0487C109.57 16.9109 109.941 15.7484 111.302 15.4763C112.837 15.1548 113.827 15.9958 113.902 17.8014C114.001 20.1511 113.902 22.5009 113.902 24.8259H113.976Z" fill="#0411B1"/>
<path d="M141.032 27.1261C141.032 28.5607 141.082 29.9952 141.032 31.4298C140.958 33.1365 140.265 33.928 139.052 33.9775C137.839 34.0269 136.997 33.1612 136.948 31.5535C136.874 28.5359 136.849 25.5184 136.923 22.5008C136.948 20.992 137.963 19.9532 139.027 19.9779C140.042 20.0274 140.884 20.9425 140.983 22.3771C141.082 23.9601 140.983 25.5431 140.983 27.1261C140.983 27.1261 141.008 27.1261 141.032 27.1261Z" fill="#0411B1"/>
<path d="M138.854 14.388C140.092 14.3385 141.28 15.3279 141.379 16.4657C141.478 17.6282 140.166 18.9886 138.953 19.0133C137.889 19.0133 136.527 17.7271 136.552 16.6883C136.552 15.4021 137.567 14.4375 138.854 14.388Z" fill="#0411B1"/>
</svg>
