<svg width="168" height="50" viewBox="0 0 168 50" fill="none" xmlns="http://www.w3.org/2000/svg">
<path d="M47.27 49.292C46.5121 49.5985 45.9166 49.4903 45.3392 49.4903C32.6535 49.4903 19.9499 49.4182 7.26426 49.5444C3.54699 49.5805 0.876334 46.4252 0.894379 43.36C0.984604 31.1355 0.966559 18.9109 0.894379 6.66834C0.876334 3.9097 3.52895 0.754401 6.759 0.772431C22.7829 0.880613 38.7888 0.808492 54.8128 0.826522C58.4218 0.826522 60.8398 3.22455 60.8398 6.81258C60.8579 18.9289 60.7676 31.0453 60.8939 43.1617C60.93 46.2989 58.097 49.8689 54.3617 49.5083C52.4489 49.328 50.482 49.4543 48.5512 49.5083C47.7211 49.5264 47.4324 49.2199 47.27 48.4265C46.7828 46.0465 46.1512 43.7026 45.6098 41.3226C45.3031 40.0244 45.4294 39.9162 46.6925 39.3933C49.5978 38.1853 51.4203 36.0577 51.4745 32.8664C51.5827 27.6736 51.6188 22.4629 51.4745 17.2702C51.3842 13.6641 48.3888 10.5629 44.2565 10.4547C40.8279 10.3646 37.3813 10.4367 33.9528 10.4367C28.8461 10.4367 23.7574 10.4547 18.6506 10.4367C15.8717 10.4367 13.58 11.3382 11.956 13.6821C11.0717 14.9442 10.6387 16.3506 10.6387 17.8832C10.6387 22.6432 10.6387 27.4032 10.6387 32.1632C10.6387 36.8691 14.1394 39.9342 18.5604 39.8982C23.8837 39.8441 29.207 39.8982 34.5302 39.8441C35.5227 39.8441 36.3347 40.0605 37.1107 40.7276C40.4309 43.5764 43.7873 46.3711 47.2519 49.31L47.27 49.292Z" fill="white"/>
<path d="M40.1963 22.5711C40.1963 24.284 40.3046 26.0149 40.1783 27.7097C39.9978 30.1799 39.2941 32.4336 37.3994 34.2367C34.9272 36.5806 31.9317 36.7609 28.8641 36.3102C25.3092 35.7873 23.0536 33.6597 22.1694 30.1258C21.8446 28.8276 21.6461 27.5294 21.6461 26.1952C21.6641 23.4906 21.6461 20.768 21.6461 18.0635C21.6461 17.3423 21.7002 16.6211 21.8987 15.9359C22.2957 14.5115 22.8731 14.0608 24.2446 14.0788C25.5979 14.0968 26.1573 14.5476 26.5002 16.0261C26.6445 16.6571 26.6626 17.3423 26.6626 18.0094C26.6626 20.6058 26.6806 23.2202 26.6626 25.8165C26.6626 26.718 26.7528 27.5835 26.9152 28.449C27.3303 30.5405 28.7558 31.7124 30.8671 31.7485C32.9964 31.8026 34.3678 30.7388 34.9272 28.6112C35.1437 27.7999 35.234 26.9885 35.2159 26.1411C35.2159 23.3824 35.2159 20.6058 35.2159 17.8471C35.2159 17.18 35.2701 16.5309 35.4685 15.8818C35.8655 14.5656 36.443 14.0788 37.67 14.0608C38.9873 14.0427 39.4565 14.4033 39.9437 15.7736C40.1602 16.3506 40.1963 16.9636 40.1963 17.5767C40.1963 19.2355 40.1963 20.8943 40.1963 22.553V22.5711Z" fill="white"/>
<path d="M102.143 26.6122C102.143 24.4356 102.143 22.259 102.143 20.0824C102.143 19.3898 102.143 18.722 102.193 18.0294C102.267 16.8422 103.035 16.298 104.124 16.1743C105.312 16.0507 106.055 16.7185 106.178 17.8315C106.376 19.4145 106.451 20.9975 106.451 22.5805C106.451 25.8454 106.376 29.1103 106.302 32.3505C106.302 33.3399 106.228 34.4282 105.015 34.725C103.827 35.0218 102.886 34.6755 102.069 33.5872C100.089 30.9159 97.96 28.3683 95.9301 25.7465C95.5588 25.2765 95.2122 24.8066 94.3211 24.3366C94.3211 26.538 94.3211 28.5167 94.3211 30.5202C94.3211 31.2127 94.3211 31.8806 94.2716 32.5731C94.1478 33.7109 93.7517 34.6508 92.3902 34.725C91.1525 34.7992 90.3851 34.1066 90.1376 32.6968C90.0386 32.1032 90.0138 31.4848 90.0138 30.8912C90.0138 27.2553 90.0138 23.6193 90.0386 19.9587C90.0386 19.5877 90.0138 19.1919 90.0633 18.8209C90.2119 17.7821 90.1376 16.5948 91.4496 16.1991C92.7368 15.8281 93.8012 16.5454 94.3953 17.4605C95.3608 18.9198 96.549 20.1813 97.5391 21.6159C98.7769 23.4215 100.089 25.1529 102.119 26.5627L102.143 26.6122Z" fill="white"/>
<path d="M86.6966 23.8915C86.6966 25.3261 86.7709 26.7607 86.6966 28.1953C86.4986 31.6581 84.84 33.8594 81.4734 34.7498C77.7851 35.6897 74.7403 35.0466 72.5619 32.4248C71.7945 31.4849 71.2499 30.4213 71.1261 29.1599C70.8043 25.5982 70.9033 22.0364 70.9281 18.4995C70.9281 17.4112 71.2499 16.3723 72.6361 16.1992C74.1462 16.0013 75.0126 16.6691 75.1116 18.4253C75.2354 20.4535 75.1611 22.5064 75.1858 24.5593C75.1858 25.7713 75.1858 26.9833 75.4581 28.1705C75.978 30.2729 76.9682 31.0397 79.1713 30.9408C81.2011 30.8418 82.1666 29.9514 82.2903 27.849C82.4636 25.054 82.5131 22.2591 82.5874 19.4641C82.6369 17.1638 83.132 16.2734 84.5182 16.1744C86.0035 16.0755 86.7709 17.0401 86.8699 19.3652C86.9442 20.8739 86.8699 22.3827 86.8699 23.8915C86.8204 23.8915 86.7709 23.8915 86.6966 23.8915Z" fill="white"/>
<path d="M121.872 28.9374C122.392 27.0081 122.813 25.5735 123.184 24.1389C123.259 23.8421 123.234 23.5206 123.308 23.2485C123.754 21.5913 124.521 20.7751 125.635 20.874C127.145 21.0224 127.492 22.1849 127.764 23.4217C128.21 25.4004 128.729 27.3791 129.249 29.4568C130.561 27.5028 130.462 25.2025 131.329 23.2238C131.502 22.8033 131.551 22.3333 131.749 21.9376C132.22 21.0472 132.987 20.5525 134.002 20.8493C135.017 21.1461 135.413 21.9623 135.339 22.9517C135.289 23.6195 135.141 24.3121 134.918 24.9552C134.002 27.6017 133.061 30.2483 132.071 32.8701C131.7 33.8842 131.131 34.7499 129.843 34.8241C128.309 34.9231 127.244 34.181 126.972 32.5733C126.7 30.9656 126.229 29.4073 125.239 27.8985C124.843 29.3826 124.422 30.8667 124.051 32.3754C123.63 34.0821 122.912 34.8736 121.625 34.9973C120.115 35.1209 119.447 34.0574 119.001 32.8949C117.887 29.9268 116.798 26.9339 115.783 23.9163C115.263 22.3333 115.709 21.1956 116.773 20.8493C118.011 20.4535 119.05 21.0719 119.645 22.7291C120.338 24.6336 120.536 26.7113 121.823 28.9374H121.872Z" fill="white"/>
<path d="M158.979 29.1845C159.846 31.0148 160.885 31.559 162.915 31.0891C163.707 30.8912 164.475 30.5202 165.242 30.2234C166.208 29.8276 167.124 29.9513 167.643 30.8417C168.139 31.6579 167.742 32.4742 167.049 33.0678C164.896 34.9723 162.346 35.4175 159.623 34.7002C156.875 33.983 155.093 32.1774 154.647 29.4071C154.177 26.538 154.697 23.8172 157.222 21.8879C160.415 19.4392 165.539 20.5523 167.396 24.1387C168.039 25.3507 167.891 26.6369 167.841 27.9231C167.792 28.863 167.049 28.9124 166.356 28.9372C164.376 28.9619 162.42 28.9372 160.44 28.9866C159.945 28.9866 159.375 28.8382 158.93 29.234L158.979 29.1845ZM163.906 26.068C163.584 24.2624 162.47 23.9656 161.183 24.0151C159.97 24.0645 159.103 24.6334 158.93 26.0433C160.638 26.2659 162.197 26.2411 163.906 26.0433V26.068Z" fill="white"/>
<path d="M149.325 30.4213C148.632 29.6051 147.642 29.3083 146.676 28.8631C143.929 27.5769 143.112 27.2801 143.236 24.2872C143.285 23.3968 143.656 22.7537 144.251 22.1106C146.082 20.0824 150.34 20.0824 152.221 21.7149C152.939 22.3332 153.533 23.0011 152.915 24.0399C152.37 24.9798 151.578 25.2519 150.612 24.8809C149.82 24.584 149.078 24.213 148.211 24.2625C147.914 24.2625 147.568 24.3862 147.568 24.7572C147.568 24.9551 147.667 25.2271 147.815 25.3261C148.236 25.6229 148.706 25.9692 149.201 26.0681C150.192 26.2907 150.984 26.8596 151.776 27.4285C154.029 29.1104 154.029 31.9548 151.776 33.6862C149.697 35.2692 146.478 35.4671 144.226 34.1562C143.681 33.8346 143.335 33.3894 143.087 32.7958C142.691 31.9054 142.889 31.1386 143.508 30.4955C144.053 29.9266 144.696 30.0256 145.389 30.3966C145.909 30.6934 146.503 30.8665 147.097 31.0149C147.914 31.2375 148.756 31.386 149.375 30.3966L149.325 30.4213Z" fill="white"/>
<path d="M113.976 25.5982C113.976 27.7254 113.926 29.8278 113.976 31.9549C114.05 33.8347 113.085 34.7746 111.797 34.8488C110.584 34.923 109.619 33.8842 109.594 32.2023C109.52 27.7501 109.52 23.2732 109.57 18.821C109.57 17.6833 109.941 16.5208 111.302 16.2487C112.837 15.9271 113.827 16.7681 113.902 18.5737C114.001 20.9235 113.902 23.2732 113.902 25.5982H113.976Z" fill="white"/>
<path d="M141.032 27.8984C141.032 29.333 141.082 30.7676 141.032 32.2022C140.958 33.9088 140.265 34.7003 139.052 34.7498C137.839 34.7993 136.997 33.9336 136.948 32.3259C136.874 29.3083 136.849 26.2907 136.923 23.2731C136.948 21.7643 137.963 20.7255 139.027 20.7502C140.042 20.7997 140.884 21.7149 140.983 23.1495C141.082 24.7325 140.983 26.3154 140.983 27.8984C140.983 27.8984 141.008 27.8984 141.032 27.8984Z" fill="white"/>
<path d="M138.854 15.1604C140.092 15.1109 141.28 16.1003 141.379 17.238C141.478 18.4005 140.166 19.7609 138.953 19.7856C137.889 19.7856 136.527 18.4995 136.552 17.4606C136.552 16.1745 137.567 15.2098 138.854 15.1604Z" fill="white"/>
</svg>
