<svg width="670" height="126" viewBox="0 0 670 126" fill="none" xmlns="http://www.w3.org/2000/svg">
<g clip-path="url(#clip0_25_565)">
<mask id="mask0_25_565" style="mask-type:luminance" maskUnits="userSpaceOnUse" x="0" y="0" width="670" height="126">
<path d="M669.736 0.818909H0V125.819H669.736V0.818909Z" fill="white"/>
</mask>
<g mask="url(#mask0_25_565)">
<path d="M118.342 0.818909H2.58791C1.15741 0.818909 0 1.97632 0 3.40682V119.161C0 120.591 1.15741 121.748 2.58791 121.748H118.342C119.772 121.748 120.93 120.591 120.93 119.161V3.40682C120.93 1.97632 119.772 0.818909 118.342 0.818909ZM104.622 53.5655C103.009 54.1897 100.148 54.3718 100.148 54.3718C99.524 54.8659 97.5343 55.3601 97.5343 55.3601C97.5343 55.3601 97.8464 57.2848 96.1688 61.2772C94.4913 65.2696 92.1244 65.5037 92.9957 62.9548C93.867 60.4059 93.1128 60.783 93.1128 60.783C89.8746 63.3319 90.876 61.2772 90.876 61.2772C90.3168 61.6023 91.6172 59.9117 82.9042 67.7405C74.1911 75.5822 65.0489 94.5039 62.1879 100.785C59.3269 107.079 58.1955 102.281 58.1955 102.281C53.969 88.3397 51.5371 83.606 48.9232 78.7553C48.7412 78.4302 48.5851 78.1051 48.416 77.793C43.0061 88.6908 38.8707 98.7564 37.5832 101.669C35.1124 107.248 33.8379 102.671 33.3827 101.669C32.9276 100.655 30.3657 94.6209 27.2576 86.4801C24.1495 78.3392 17.2831 67.5454 13.9929 63.3319C10.7028 59.1314 15.9176 61.3162 15.9176 61.3162C30.3787 66.531 34.5792 83.2679 34.5792 83.2679C38.4285 63.1498 49.4044 45.5807 50.8609 43.2008C52.3174 40.821 53.2407 38.8963 54.2421 35.4241C55.2434 31.9519 52.8636 29.6631 49.8465 28.5707C46.8295 27.4783 49.8465 25.9177 51.043 25.1765C52.2264 24.4482 58.0004 23.902 61.3816 24.8124C64.7628 25.7227 64.9449 24.7213 66.5054 23.902C68.066 23.0827 75.8427 19.2334 82.1499 18.3231C88.4571 17.4127 92.1244 20.7029 92.1244 20.7029C95.0504 21.7043 95.7787 24.8254 95.7787 24.8254C101.085 26.8411 98.5227 28.9478 97.0662 28.9478C95.6097 28.9478 93.3989 29.403 93.3989 29.403C90.1997 30.7684 88.093 30.4043 88.093 30.4043C87.5468 30.9505 84.6208 32.42 84.6208 32.42C84.1656 38.09 83.7105 39.8326 81.3306 43.4869C78.9508 47.1412 78.4826 44.5793 78.8598 43.3959C79.2239 42.1995 79.1329 39.9107 79.1329 39.9107C74.3082 44.4623 75.6736 41.1721 75.7387 41.0161C73.801 42.3165 65.322 50.6264 65.322 50.6264C60.5753 55.8673 55.7506 63.7871 51.4721 71.8759C58.0394 74.3208 61.7067 83.8011 61.7067 83.8011C61.7067 83.8011 66.1543 71.1217 75.7647 56.7906C77.1952 52.6291 74.0221 51.6928 74.0221 51.6928C70.7189 50.9385 72.8386 49.508 74.2691 48.8318C75.6996 48.1426 79.692 48.8318 81.4867 49.2089C83.2943 49.5861 83.9836 49.5861 84.8419 48.8968C85.7132 48.2076 90.7589 46.2829 95.6096 45.4766C100.473 44.6703 102.957 47.2843 102.957 47.2843C105.142 48.2726 105.883 50.6394 105.883 50.6394C111.423 53.9426 104.635 53.5655 104.635 53.5655" fill="#82AE40"/>
<path d="M105.87 50.6395C105.87 50.6395 105.129 48.2727 102.944 47.2843C102.944 47.2843 100.46 44.6704 95.5966 45.4767C90.7459 46.283 85.7001 48.2206 84.8288 48.8969C83.9575 49.5731 83.2813 49.5731 81.4736 49.209C79.666 48.8319 75.6866 48.1556 74.2561 48.8318C72.8256 49.5211 70.7058 50.9516 74.009 51.6929C74.009 51.6929 77.1821 52.6292 75.7516 56.7907C66.1282 71.1217 61.6937 83.8012 61.6937 83.8012C61.6937 83.8012 58.0264 74.3208 51.4591 71.876C55.7376 63.7871 60.5623 55.8673 65.3089 50.6265C65.3089 50.6265 73.8009 42.3166 75.7256 41.0161C75.6606 41.1722 74.2951 44.4623 79.1198 39.9107C79.1198 39.9107 79.2108 42.1995 78.8467 43.3959C78.4826 44.5794 78.9377 47.1413 81.3176 43.487C83.6974 39.8197 84.1526 38.0901 84.6077 32.4201C84.6077 32.4201 87.5338 30.9506 88.08 30.4044C88.08 30.4044 90.1867 30.7685 93.3858 29.403C93.3858 29.403 95.5836 28.9479 97.0531 28.9479C98.5226 28.9479 101.072 26.8411 95.7657 24.8254C95.7657 24.8254 95.0374 21.7173 92.1114 20.703C92.1114 20.703 88.4441 17.4128 82.1369 18.3231C75.8166 19.2334 68.0399 23.0828 66.4923 23.9021C64.9448 24.7344 64.7497 25.7227 61.3685 24.8124C57.9874 23.9021 52.2263 24.4353 51.0299 25.1765C49.8335 25.9178 46.8294 27.4653 49.8335 28.5707C52.8505 29.6631 55.2304 31.9519 54.229 35.4241C53.2277 38.9094 52.3043 40.821 50.8478 43.2009C49.3783 45.5807 38.4155 63.1369 34.5661 83.268C34.5661 83.268 30.3656 66.5311 15.9045 61.3162C15.9045 61.3162 10.6897 59.1185 13.9799 63.332C17.27 67.5454 24.1364 78.3392 27.2445 86.4801C30.3526 94.621 32.9145 100.655 33.3697 101.669C33.8248 102.671 35.1123 107.248 37.5702 101.669C38.8576 98.7564 42.9931 88.6909 48.403 77.793C48.572 78.1182 48.7281 78.4433 48.9102 78.7554C51.5241 83.6061 53.9429 88.3398 58.1824 102.281C58.1824 102.281 59.3008 107.079 62.1748 100.785C65.0358 94.5039 74.1781 75.5823 82.8911 67.7405C91.6042 59.8987 90.3037 61.5893 90.8629 61.2772C90.8629 61.2772 89.8616 63.332 93.0997 60.7831C93.0997 60.7831 93.841 60.4059 92.9827 62.9548C92.1114 65.5037 94.4782 65.2696 96.1558 61.2772C97.8464 57.2848 97.5213 55.3601 97.5213 55.3601C97.5213 55.3601 99.511 54.866 100.135 54.3718C100.135 54.3718 102.996 54.1767 104.609 53.5655C104.609 53.5655 111.397 53.9427 105.857 50.6395H105.87Z" fill="white"/>
<path d="M207.665 65.3565C205.624 58.8022 204.271 50.8824 203.478 47.9434C202.802 50.9995 201.215 60.0377 199.525 65.6947L188.783 100.287H173.749L152.5 23.7549H171.045L178.288 52.469C179.979 59.2574 181.565 68.2956 182.476 73.8355C183.711 68.2956 185.532 59.4785 187.56 52.586L196.156 23.7549H211.307L220.124 52.8071C222.608 61.065 223.856 68.8548 225.092 74.2907C225.768 68.8678 226.899 61.2861 229.045 52.6901L236.171 23.7549H254.937L233.675 100.287H218.641L207.678 65.3565H207.665Z" fill="black"/>
<path d="M287.149 23.7549H268.501V100.287H287.149V23.7549Z" fill="black"/>
<path d="M356.334 30.0881L349.779 42.5204C346.268 40.5958 339.155 36.3043 333.381 36.3043C328.179 36.3043 325.578 38.7881 325.578 42.0653C325.916 47.046 329.414 49.868 339.038 53.9385C351.132 59.0233 357.01 64.4462 357.01 75.9812C357.01 89.8831 346.606 100.963 330.103 100.963C318.347 100.963 308.62 96.0993 303.197 92.8221L309.309 79.4795C311.455 80.949 321.742 87.2822 327.737 87.2822C334.07 87.2822 336.892 84.2261 336.892 78.8032C336.892 73.3803 332.939 71.2346 326.267 68.5166C313.159 63.0937 305.46 56.8775 305.46 44.6662C305.46 31.2065 317.45 22.7275 330.897 22.7275C341.743 22.7275 351.249 26.5768 356.334 30.0751" fill="black"/>
<path d="M373.747 23.7549H422.475V37.4357H392.408V53.8215H417.39L415.244 67.2812H392.408V86.606H424.062V100.287H373.747V23.7549Z" fill="black"/>
<path d="M468.719 34.8348C467.926 33.7034 466.118 32.0128 463.856 32.0128C460.461 32.0128 457.639 34.4966 457.639 38.8012C457.639 40.3877 457.756 41.9743 458.095 43.5478H472.569L470.306 57.1116H460.24V98.3751C460.24 115.671 448.601 120.99 439.095 125.503L430.954 112.277C438.081 108.545 442.372 104.357 442.372 98.7132V57.1116H433.672V43.5478H442.372C441.462 41.285 440.903 38.9182 440.903 36.2002C440.903 25.1203 449.264 18.6831 461.021 18.6831C469.278 18.6831 473.687 21.7392 477.302 25.7966L468.706 34.8478L468.719 34.8348Z" fill="black"/>
<path d="M486.028 86.2678V21.375L503.897 18.3189V82.4185C503.897 86.0337 505.028 87.2822 508.422 87.2822C510.009 87.2822 512.272 86.9441 513.962 86.6059L515.653 97.8029C513.39 98.8172 507.512 100.742 500.958 100.742C490.554 100.742 486.028 94.2916 486.028 86.2678Z" fill="black"/>
<path d="M576.917 71.3516C576.917 88.4266 568.1 101.431 550.245 101.431C532.39 101.431 524.353 90.4683 524.353 72.6001C524.353 54.7318 533.17 42.4164 551.142 42.4164C569.115 42.4164 576.917 53.2753 576.917 71.3646M543.339 71.3516C543.339 80.5068 544.809 87.9715 551.259 87.9715C556.799 87.9715 558.048 80.962 558.048 72.483C558.048 63.2107 556.578 55.8632 550.128 55.8632C544.588 55.8632 543.339 62.6516 543.339 71.3516Z" fill="black"/>
<path d="M668.275 43.5348C668.73 45.9146 669.523 52.0138 669.523 57.8919C669.523 89.2069 660.589 100.963 640.016 100.963C633.916 100.963 629.391 98.3621 626.452 93.4984C622.381 99.3765 617.18 100.963 609.715 100.963C596.944 100.963 592.536 93.0562 592.536 80.8449V43.5348H610.404V80.3898C610.404 84.6813 611.991 88.3096 614.93 88.3096C619.911 88.3096 622.173 81.6382 622.173 65.9287V43.5478H640.029C640.029 43.6648 639.807 74.8628 639.807 80.4028C639.807 84.6943 641.394 88.3226 644.333 88.3226C651.004 88.3226 651.681 74.3036 651.681 58.8152C651.681 51.2465 650.783 46.4998 650.445 43.5478H668.314L668.275 43.5348Z" fill="black"/>
</g>
</g>
<defs>
<clipPath id="clip0_25_565">
<rect width="669.736" height="125" fill="white" transform="translate(0 0.818909)"/>
</clipPath>
</defs>
</svg>
