<?xml version="1.0" encoding="UTF-8"?>
<svg id="Layer_2" data-name="Layer 2" xmlns="http://www.w3.org/2000/svg" viewBox="0 0 214.33 239.73">
  <defs>
    <style>
      .cls-1 {
        fill: #cedbe3;
        stroke-width: 0px;
      }
    </style>
  </defs>
  <g id="Layer_1-2" data-name="Layer 1">
    <g id="Clear">
      <g id="Western_Europe" data-name="Western Europe">
        <polygon class="cls-1" points="82.23 159.15 82.22 159.15 82.22 159.16 82.23 159.15"/>
        <polygon class="cls-1" points="84.62 157.47 84.61 157.47 84.61 157.48 84.62 157.47"/>
        <polygon class="cls-1" points="82.47 166.83 82.47 166.83 82.47 166.84 82.47 166.83"/>
        <polygon class="cls-1" points="86.56 150.3 86.55 150.31 86.55 150.31 86.56 150.3"/>
        <path class="cls-1" d="m86.3,148.45c-1.01-.07-1.87-.73-3-.64-.88.07-1.77-.42-2.04-1.57-.15-.62-.82-.49-1.36-.6-1.04-.2-2.21,0-3.07-.96-.4-.45-.82-1-1.5-1.12-.36-.07-.39-.32-.37-.63.04-.63-.19-.69-.78-.48-1.14.39-1.75-.04-1.71-1.2.03-.89-.32-1.25-1.15-1.17-.25.02-.53.13-.54-.2-.04-1.14-1.97-.95-1.64-2.35,0-.02-.29-.18-.39-.14-1.29.46-1.43-.48-1.61-1.33-.08-.35-.04-.72-.47-.87-1.45-.5-3.27.64-3.37,2.16-.05.81-.08,1.86-.35,2.36-.36.66-1.21,1.47-2.34,1.51-.94.04-1.89.24-2.76.68-.84.43-1.02,1.09-.44,1.84-.74.07-1.29.79-2.16.39-.78-.37-1.63-.67-2.49-.8-.93-.15-1.12-.61-.88-1.37.19-.59-.2-.87-.56-.7-.71.34-1.19-.22-1.93-.31.41,2.16.98,4.23.59,6.34-.23-.06-.76.35-1.06,0-.75-.86-1.94-.57-2.51-.39-1.07.34-1.29-.05-1.66-.77-.53-1.02-1.78-1.63-2.27-1.02-.63.8-1.2.23-1.76.25-.89.03-1.77-.14-2.66.11-.56.16-.83.47-.86.99-.03.56.46.42.77.49.15.04.19.12.05.2-.51.3-.13.51.1.57.34.1.58.19.54.61-.53.04-1.04.07-1.64.12.16.2.21.26.25.32.71.85,1.51,1.51,2.67,1.74,1.58.31,2.42,2.19,4.21,1.99.06.37-.72.49-.33.52,1,.09,1.41.39,1.28,1.4-.02.15.33.5.46.48.91-.14.25.67.57.89.6.43.38.76-.15,1.07-.1.05-.18.36-.12.42.74.82.62,2.12,1.66,2.79,1.18.76,2.43,1.71,1.59,3.3-.61,1.14-.14,1.73.54,2.41.23.23.44.47.45.82.56.8-.28,1.87.61,2.6-.98-.59-.73-1.54-.82-2.38-.36-.38-.58-.92-1.15-1.16-.88,2.25-1.03,4.63-1.79,6.83-.67,1.95-.76,4.21-2.71,5.57.53.27,1.35.46,1.38.74.21,2.02,2.58,1.62,3.28,3.04.05.1.39.12.56.08.61-.17.96.17,1.31.57.18.21,2.76.76,2.84.58.58-1.41,1.38-.38,2.01-.14,1.06.4,2.25.77,3.02,1.52.67.66,1.29,1.12,2.17,1.29.36.07.72.09.79.56v-.03c.59.03,1.11-.24,1.66-.39.34-.1.73-.37.98.16.28-.09.51-.08.28-.59-.58-1.33.08-3.36,1.18-3.97.61-.34,1.34-.39,1.95-.76.47-.28.88-.87,1.46-.73,1.36.34,2.52,1.23,4.08,1.14,1.04-.06,2,.9,2.83,1.49,1.22.86,2.23.39,3.37.27,1.25-.13,1.22-1.62,2.29-2.01.67-.24,1.17-.86,1.48-1.61.19-.44.69-.68,1.23-.68-.2-.45.42-.65.3-1.17-.66-.12-1.39-.04-2.06-.48-1.25-.82-1.53-1.57-.85-2.91.25-.49.38-.87-.28-1.12-.46-.18-.51-.69-.76-1.04-.46-.64-.12-.93.53-1.05,1.54-.28,1.66-.53.9-1.93-.15-.27-.24-.56-.43-.83-.57-.81-.35-1.16.72-1.21-.41-.93-1.17-1.71-1.1-2.84.02-.29-.3-.65-.67-.46-.34.17-1.01,0-.96.65.07.82-.54.89-1.05,1.01-.53.12-.73-.36-.45-.62.48-.45.56-.87.42-1.45-.04-.16.09-.41.22-.54,1.09-1.07,1.65-2.6,3.02-3.42.08-.05.22,0,.33,0-.2-.35.18-.65.04-1.09-.21-.67.77-1.23,1.37-.79.35.25.69.02.98.2.16-2.19.54-4.33,1.38-6.37.13-.32.1-.71.55-.79-.01-.21.04-.39.2-.53.27-.22.71-.42.54-.82-.15-.35-.56-.48-1-.51Zm-47.47-1.1c-.06,0-.12-.04-.19-.07.05-.04.09-.1.13-.1.05,0,.09.07.14.1-.03.02-.06.06-.08.06Z"/>
        <path class="cls-1" d="m84.42,178.57s-.02,0-.03,0c0,0,0,0,0,0h.03Z"/>
        <path class="cls-1" d="m64.23,186.03s0,0,0,0c-.01,0-.02,0-.04.01,0,0,.04,0,.04,0Z"/>
        <path class="cls-1" d="m79.72,135.82c.44-1.06,1.29-1.98.33-3.11-.25-.3-.54-.77-.19-1.18.34-.39.77-.35,1.29-.21.52.14,1.41.17,1.41-.52,0-.58.25-.69.55-.99.45-.43,1.41-.98-.04-1.42-.32-.09-.57-.38-.49-.73.06-.29.03-.81.38-.8,1.4.04,1.08-1.25,1.46-1.92.4-.71-.6-2.67-1.28-2.63-1.51.1-3.14-.07-4.44,1-.76.62-.65,2.01.15,2.53.02-.03.03-.07.05-.09.02-.01.05,0,.08,0-.04.03-.09.06-.13.1.33,1.63-1.1,1.87-2.04,2.55.45-.47-.25-1.15.32-1.54.24-.16.79-.4.63-.49-.56-.29-.37-1.11-1.04-1.26-.55-.12-1-.28-1.12.56-.18,1.26-.61,2.46-1.3,3.55-.06.09-.12.18-.18.27-.43.49-.78.51-.93-.38-.29,1.07.25,2.27-1.28,2.57-.49.1,0,.34.22.42.58.38,1.18.13,1.68-.11.41-.19.54,0,.75.17-.45.56-1.43-.04-1.69.85.7.14,1.48.52,2.08.34,1.77-.53,2.18,1.38,3.43,1.71,0,0,0,.06,0,.1.57-.08.98.25,1.33.64Zm-4.37-3.75c-.07,0-.13-.06-.21-.1.05-.05.11-.13.15-.13.09.02.17.08.26.13-.07.03-.13.1-.2.1Z"/>
        <path class="cls-1" d="m78.39,135.18s0,0-.01,0c0,0,0,0,0,0,0,0,0,0,0,0,0,0,0,0,0-.01Z"/>
        <path class="cls-1" d="m68.6,136.92c.44-.19.9.05.96.45.11.79.58,1.08,1.19,1.49.53.36.97.81,1.63,1.02.28.09.82.28.58.97-.1.3-.24,1.03.45,1.26.68.23.91-.23,1.18-.69.13-.22.31-.52.65-.38.33.14.28.43.18.72-.29.82.03,1.36.75,1.8.46.28.95.55,1.27,1.03.25.37.68.26.98.12.38-.17.21-.51.1-.83-.31-.92.16-2.35.98-2.64.62-.22,1.35-.7,1.15-1.11-.36-.75-.33-1.99-1.61-2.05-.89-.04-.89-.63-.58-1.14.4-.67.34-1.19-.11-1.75-.48-.29-1.14.05-1.54-.38-1.15-1.24-2.35-.93-3.62-.23-.45.24-1.04.68-1.43.27-.55-.58-1.7.2-1.9-.96-.03-.17-.36,0-.53.08-.51.23-1,.49-1.51.71-.82.35-.47,1.06-.37,1.56.08.41.38,1,1.11.69Z"/>
        <path class="cls-1" d="m92.69,184.76c.04-.18-.03-.57-.46-.64-.18.38-.37.75-.25,1.2.06.22,0,.5-.23.4-.81-.34-1.2.45-1.8.64-.75.23-1.25.83-1.14,1.84.05.44-.36.93.28,1.25-.72.7.48,1.1.32,1.83-.06.27-.05,1.27.56,1.6.51.28.96.63,1.51,1.06.65-2.18,1.59-4.18,1.5-6.41-.04-.92-.51-1.79-.28-2.76Z"/>
        <path class="cls-1" d="m79.72,141.68c-.85.89-1.09,2.73-.54,3.46.12.16.28.23.51.19.69-.1,1.04-.54,1.32-1.14.29-.62-.34-.59-.54-.82-.41-.47-.61-1.01-.76-1.7Z"/>
        <path class="cls-1" d="m72.87,133.03s0,0,0,0c0,0,0,0,0-.01,0,0-.01,0-.02,0,0,0,0,0,0,.01Z"/>
        <path class="cls-1" d="m72.15,132.51c-.24-.02-.48-.04-.72-.05-.08,0-.16.01-.24.02-.67.25-.63.59-.02.79.41.14.73.34,1.07.63-.44.2-.71-.13-1.02-.25-.28-.11-.59-.24-.68.13-.15.56.29.24.5.28.23.04.53.06.66.21.37.41.77.41,1.11.1.44-.39.32-.88.05-1.33-.34-.03-.58-.21-.71-.52Z"/>
        <path class="cls-1" d="m97.07,113.13s0,0,0,0c0,0,0,0,0-.01,0,0,0,.02,0,.02Z"/>
        <path class="cls-1" d="m97.08,113.13c.08.59-.87,1.08-.07,1.93.13-.97.64-1.66.63-2.53-.43.05-.25.53-.56.59Z"/>
      </g>
      <g id="Not_europe" data-name="Not europe">
        <path class="cls-1" d="m86.61,228.41c-.11-1.04-.14-1.97.05-2.99.12-.68.74-1.62-.46-2.08-.16-.06-.19-.46-.01-.52.97-.3.97-1.54,2.26-1.9-1.23-.21-2.04-.63-2.95-.05-.39.25-.8.2-1.19-.34-.66-.91-2.05-.94-2.76-.23-.22.22-.51.24-.78.2-.89-.11-1.82-.07-2.49-.89-.37-.45-.98-.48-1.18.05-.39,1.03-1.21,1.05-2.03,1.07-.63.02-1.15.17-1.65.56-.85.66-1.72.57-2.39-.26-.39-.48-.85-.97-1.44-.97-2.01.01-4.05-1-6.04.14-.26.15-.72-.08-1.05,0-.75.19-1.59-.78-2.06-.2-1.34,1.62-3.11.88-4.54.76-3.09-.25-5.92.35-8.67,1.6-.54.24-1.03.55-1.27,1.17-.15.38-.77.79-.9.67-1.1-1.09-2.17.04-3.21-.07-1.29-.14-2.14.41-2.82,1.36-.3.43-.61.74-1.14.75-.46,0-.84.2-1.22.43-1.25.74-2.23.69-3.4-.04-.24-.15-.61-.11-.92-.13-.36-.02-.75.06-1.01-.25-1.4-1.63-3.54-.79-5.18-1.57-.97-.46-1.93,0-2.86-.14-.9-.14-1.7-.59-2.36-1.3-.93-1.02-1.49-2.25-2.04-3.47-.26-.58-.55-.66-1.05-.57-.59.1-1.23-.32-1.73.47-1.32,2.09-2.65,4.17-4.15,6.13-.86,1.11-1.65,2.38-2.95,3.07-.55.29-1.34,1.11-1.65-.33-.09-.42-.55-.38-.92-.32-1.69-.19-2.14.34-1.59,1.87-.3.08-.61.13-.9.24-1.26.48-2.8-.15-3.91.96v8.39c11.36,0,22.72,0,34.08,0,1.27,0,1.31-.09.88-1.28-.18-.49-.56-1.05.27-1.36,0-.48,0-.95,0-1.43-.54-.05-.6-.49-.41-.78.94-1.42.07-2.92.28-4.35.14-.97-.24-1.69-.56-2.51.5.64,1.79.83,1.06,2.11-.29.5.28.85.23,1.43-.14,1.38-.29,2.74-.59,4.09.68.48.68.96,0,1.44.02,2.25.39,2.63,2.52,2.63,4.79,0,9.59,0,14.38,0,9.67,0,19.33-.02,29,.02,1.06,0,1.47-.28,1.33-1.34-.06-.42-.15-.98.32-1.2,1.35-.62,2.08-1.96,3.27-2.76.47-.71.03-1.6.43-2.32.67-1.2.25-2.53.13-3.69Z"/>
        <polygon class="cls-1" points="86.05 234.41 86.05 234.42 86.06 234.41 86.06 234.41 86.05 234.41"/>
        <path class="cls-1" d="m3.3,9.77c.2.07.39,0,.49-.22.39-.82,1.22-1.49.81-2.58-.19-.5.17-.77.57-1,.09,1.37-.47,2.75.56,4,.52.63,1.18.84,1.85,1.14.71.32.42-.56.7-.6.36-.06,1.08-.96,1.07.32,0,.29-.09.67.49.56.91-.17,1.8.14,2.69.28,1.54.24,3.05.77,4.63.71,1.82-.07,3.39-1.03,5.08-1.56.58-.18,1.63-.52,1.7-.47.92.85.81-.07.98-.51,1.22-.64,2.64-.34,3.97-.8-2.61-.27-3.26-2.87-5.08-4.06-.71-.47-.55-.7-1.33-.1-.15-.03-.3-.06-.45-.08-.3-.33-1.01-.25-.96-.94-.35.02-.85-.09-1.03.09-1.14,1.19-1.62.14-2.25-.56-.17-.19-.45-.27-.71-.43.08-.06.15-.15.17-.14,1.07.53,2.15.97,3.39.57.25-.08.4.19.43.45.9,0,1.15-.4.72-1.2-.53-.02-1.02-.13-1.43-.48-.26-.01-.55.03-.72-.24-.2,0-.38-.04-.48-.24-.71-.09-.11-1.23-.96-1.2-.36-.12-.71.3-1.17-.03.46-.26.81-.31,1.18.03.61.02,1.19-.06,1.68-.48H0v10.07c1.1-.14,2.15-.72,3.3-.3Zm4.19-4.72c.08,0,.15.02.23.02-.07,0-.15-.01-.23-.02Zm-.39,1.17c.05.03.12.06.2.08-.08-.02-.15-.04-.2-.08Zm.83-1.15s0,0,0,0c0,.04,0,.08,0,.12,0-.04,0-.08,0-.12Z"/>
        <polygon class="cls-1" points="21.81 2.64 21.82 2.64 21.82 2.64 21.82 2.64 21.82 2.64 21.82 2.64 21.81 2.63 21.81 2.63 21.81 2.64"/>
        <path class="cls-1" d="m28.51,6.66c1.04.27.75-.93,1.32-1.26.26.4-.06.7-.12,1.02-.13.7.52.84.85,1.18.18.19.55,0,.59-.35.22-1.81,1.29-3.27,2.03-4.87.21-.46.07-.64-.41-.72-.28-.05-.6.31-.88-.11.13-.41.24-.78.81-.86.33-.04.89-.04.62-.69h-.48c-.24.39-.48.74-.72,0h-4.31c-.03,1.06.12,2.12-.46,3.13-.22.39-.39.91-.25,1.38.25.85.32,1.86,1.41,2.15Z"/>
        <path class="cls-1" d="m176.57,205.37s.01,0,.02,0c0,0,0,0,0,0h-.01Z"/>
        <path class="cls-1" d="m214.33,174.07c0-1.34-.14-2.3-1.61-2.74-.65-.2-1.16-.21-1.68.15-1.36.95-1.58.92-2.46-.49-.47-.75-.93-1.01-1.68-.27-1.12,1.1-2.53.84-3.42-.57-.3-.47-.69-.68-.96-.08-.31.7-.87.91-1.49,1.04-1.36.27-2.58,1.02-4.02,1.05-.7.02-1.26.54-1.87.9-1.8,1.08-2.83,2.89-4.36,4.21-.67.58-1.17,1.28-1.59,2.07-.54,1.02-1.29,1.83-2.64,1.63-.3-.04-.68-.04-.93.11-1.32.74-2.74,1.02-4.23,1.07-.5.02-.86.17-.89.74-.02.53.03.89.65,1.22.97.52,1.87.19,2.77-.02.08.33-.03.44-.18.5-.83.37-1.65.78-2.5,1.1-.46.18-.85.52-.8.91.05.47.54.29.89.2.18-.05.31.04.31.24,0,.18-.11.36-.26.33-.77-.13-1.32.51-2.04.53-1.19.02-2.23.51-3.21,1.13-.55.36-1.32.73-1.77.47-1.55-.92-2.37.57-3.57.76.03-.24.08-.58.12-.92.08-.08.16-.16.24-.23,1.02-.56,1.97-1.16,2.31-2.4.26-.92.74-1.66,1.91-1.48.25.04.44-.19.54-.41.23-.48.65-.52,1.11-.52.63,0,1.26-.02,1.89,0,.75.02,1.12-.48,1.23-1.08.12-.68-.41-.83-.99-.86-.43-.02-.86-.15-1.29-.21-1.42-.22-2.75-.62-3.32-2.13-.21-.55-.38-.33-.77-.22-.55.15-1.11.77-1.63.44-.88-.56-1.65-.2-2.46-.01-.28.96-1.5,1.16-1.7,2.17,1.61,1.06,1.68,1.37.69,3.09-.09.16-.21.45-.14.54.8,1.01-.04,1.74-.39,2.55-.09.2-.36.36-.1.61.19.19.45.19.67.11.59-.21,1.19-.43,1.76-.71.61-.3.69.02.66.5h0c-.08.08-.16.16-.23.24-1.59.71-1.92,1.34-1.5,2.99.51-.34.11-1.29,1.16-1.38-.73,1.42-1.44,2.72-1.03,4.36.18.69.18.84.78.55.75-.36,1.49-.74,2.24-1.11.18-.09.38-.18.56-.04.27.21.04.44-.05.63-.17.36-.37.7-.56,1.05,1.08.31.75,2.24,2.27,1.91.07.82-1.17,1.07-.74,1.85.32.59.94,1,2.06.72-1.25.93-2.12,1.18-2.89,0-.06-.1-.17-.17-.26-.25-.19-.16-.42-.32-.64-.16-.3.21-.16.53.01.74.42.5,1.52,1.01-.12,1.33-.02,0,0,.21.01.32.63-.06,1.16,1,1.83.2.3-.36.56-.3.79-.05.4.43.87.54,1.4.48.72-.08,1.11.2,1.26.93.16.8-.47.77-.9.95.3.38.98.3,1.09.98.06.41.2.98.97.55.22-.12,1.01.33,1.17.68.19.42-.26.72-.78.78-.28.03-.5.3-.39.62.13.35.39.08.6.08,1.39,0,2.49-1.08,3.89-1.02.04-.03.07-.06.11-.1-.03.04-.06.07-.1.11-.79.83-.03,1.61,0,2.61.28-.46.51-.73.62-1.04.31-.9.9-1.17,1.76-.71.42.22.79.53,1.19.8,1.65,1.09,3.09.95,4.47-.46.19-.2.39-.51.68-.39.93.38.8-.39,1-.85.22-.5-.08-.93-.13-1.4-.15-1.35.14-1.67,1.45-1.93,1.33-.26,2.6-.16,3.85.29.3.11.59.23.92.08.51-.24.91-.06,1.29.31,1.61,1.57,3.36,2.15,5.39.75.23-.16.51-.23.76-.35.87-.4,1.59-.95,2.25-1.69,1-1.12,1.54-2.5,2.38-3.7.51-.73,1.02-.92,1.85-.69,1.39.39,1.41.34,1.41-1.07,0-8.18-.03-16.37.03-24.55Z"/>
        <path class="cls-1" d="m100.82,230.76c-.45-1.2-.32-2.78-1.98-3.25-.11-.03-.22-.11-.3-.19-1.16-1.08-1.42-2.89-.34-3.4,1.34-.63,1.43-2.03,2.29-2.93.35-.36.04-1-.25-1.28-.25-.23-.6.18-.85.45-.53.59-1.33.85-1.83,1.5-.22.28-.89.35-.83-.07.1-.77-.6-1.18-.57-1.84.02-.52-.21-.91-.65-1.12-.56-.27-.77.33-1.13.63-.12-1.33-.21-1.37-1.5-.86-.44.17-.9.35-1.36.42-1.13.18-2.2,1.08-2.57,1.7-.62,1.01-1.35,1.75-2.27,2.55.66.12.77.44.63,1.09-.15.73-.26,1.47-.43,2.21-.3,1.31.66,2.58.26,3.92-.01.04.09.13.16.17.54.29.33.66.09.99-.44.61-.61,1.27-.64,2.01-.02.43-.13.88-.7.96.01.28,0,.57-.21.78-.78.74-1.4,1.65-2.42,2.1-.85.38-.77,1.14-.69,1.86.09.83.79.51,1.23.52,3.55.03,7.11,0,10.67.03.85,0,1.36-.32.89-1.1-.68-1.12.08-1.6.71-2.18.91-.83,2.05-1.37,2.84-2.35.32-.4.59-.43.66.18.03.26-.03.62.39.6.34-.02.46-.35.51-.6.07-.38.2-.99.01-1.15-.72-.61-.21-1.13-.02-1.68.08-.22.27-.49.2-.66Z"/>
        <path class="cls-1" d="m169.69,180.23s0,0,0,0c0,0,0,0,0-.01,0,0-.01.01-.01.01Z"/>
        <path class="cls-1" d="m212.06,207.7c-.12-.03-.17-.06-.19-.04-.17.1-.35.19-.49.32-1.31,1.21-2.8,2.09-4.58,2.37-.61.1-.91.26-.68.98.15.46.02.81-.69.7-1.03-.15-1.24.92-1.57,1.52-.32.57.47,1.12.96,1.3.52.2,1.13.25,1.8.15,1.32-.2,1.95-1.37,3.06-1.8.33-.13.56-.46.54-.86-.03-.75.38-.98,1.05-.94.28.02.62,0,.71-.31.07-.25-.18-.46-.38-.56-1.28-.64-.65-1.31-.06-2,.2-.23.52-.39.51-.83Z"/>
        <polygon class="cls-1" points="19.66 1.92 19.66 1.92 19.66 1.92 19.66 1.92 19.66 1.91 19.65 1.91 19.66 1.92 19.66 1.92 19.66 1.92"/>
        <polygon class="cls-1" points="20.38 2.16 20.38 2.16 20.38 2.16 20.38 2.16 20.37 2.15 20.37 2.15 20.38 2.16 20.38 2.16 20.38 2.16"/>
        <path class="cls-1" d="m19.66,1.91c.26,0,.55-.04.72.24.52.05,1.13-.18,1.44.48.8-.18,1.44.46,2.24.42.41-.02.71-.02.85-.43.22-.64.49-1.32.12-1.95-.2-.34-.66-.22-.99-.08-.5.22-.92.02-1.37-.15-.9-.35-2.98.41-3.48,1.24.19,0,.37.05.47.24Z"/>
        <polygon class="cls-1" points="19.18 1.68 19.17 1.68 19.18 1.68 19.18 1.68 19.18 1.68"/>
        <path class="cls-1" d="m167.62,191.86c-.28.12-.67.19-.68.57,0,.33.33.3.54.25.29-.07.63-.13.69-.52-.11-.25-.28-.42-.56-.3Z"/>
        <path class="cls-1" d="m14.12,39.56c-.01-.08-.03-.17-.04-.25-.15.11-.12.19.04.25Z"/>
        <path class="cls-1" d="m14.13,40.51c-.23.14-.12.19.06.21-.02-.07-.04-.14-.06-.21Z"/>
        <polygon class="cls-1" points="146.1 111.69 146.16 111.68 146.13 111.63 146.1 111.69"/>
        <path class="cls-1" d="m145.71,74.04h0s-.05.05-.07.08c0,0,.04.05.05.05.03-.02.05-.05.08-.07,0,0-.02-.02-.04-.04.02.02.04.04.04.04.07-.05.13-.1.2-.14-.09,0-.17.01-.26.02v.07Z"/>
        <polygon class="cls-1" points="143.11 21.59 143.12 21.58 143.08 21.61 143.11 21.59"/>
      </g>
      <g id="Central_europe" data-name="Central europe">
        <path class="cls-1" d="m146.64,133.56c-.73-.95-.87-2.2-1.77-3.09-.9-.89-1.57-2.04-1.44-3.42.1-1.1-.17-1.88-1.42-1.98-.55-.05-.66-.44-.53-.86.19-.6.31-1.35.9-1.64,1.52-.75,1.15-1.77.64-2.95-.73-1.67-1.89-3.12-2.41-4.9-.4-1.39-1.72-2.01-3.06-1.53-.49.17-.99.31-1.49.43-1.87.42-3.78.93-5.67.67-1.85-.25-3.37.93-5.16.79-.88-.07-1.44-.22-1.79-1.17-.57-1.58-.85-1.72-2.29-1.16-2.03.79-4.18,1.47-5.4,3.53-.17.29-.5.35-.8.47-1.51.61-3.02,1.22-4.51,1.87-.41.18-1.16.44-.21.98.46.26-.04.55.02.83-1.23.23-.39.95-.28,1.4.26,1.02.54,1.97-.31,2.88-.4.43-.05.77.32,1.08.67.57,1.76.97,1.07,2.23-.05.09.12.37.25.5.7.69.76,1.54.43,2.36-.16.41-.05.63.08.97.36.89,1.33,1.45,1.4,2.45.06.79.3,1.18.92,1.8,1.12,1.14,2.38,1.13,3.66,1.33.61.09,1.29.2.89.89-.37.64-.1.81.26,1.15.31.29.56.64.99,1.14-.02-.65.74-.54.68-1.09-.04-.31-.63-.61-.17-.9.41-.26.92-.05,1.35.19.41.23.88.67,1.31.36.9-.65.78.1.87.55.11.58-.04,1.13,1.02.71.59-.24,1.81.22,2.29.76.7.81,1.45,1.56,2.11,2.34.43-.14.25-.58.51-.7.37-.17.66-.99.98-.56.43.56,1.17.68,1.47,1.23.4.73.6.72,1.14.09.64-.76,1.5-1.23,2.57-.74.17.08.37.15.55-.02,1.45-1.31,2.86-1.18,4.42-.1.54.37,1.48.88,2.07.31.37-.36.11-1.23-.25-1.81-.19-.32-.25-.64-.08-1.02.96-2.06,1.89-4.14,3.65-5.69.27-.24.45-.7.24-.98Zm-28.58-6.38s.04.07.06.1c-.01-.03-.03-.07-.06-.1Zm13.6-.15c.03-.06.05-.11.08-.15-.03.04-.06.09-.08.15.22.22.44.43.67.65-.22-.22-.44-.43-.67-.65Z"/>
        <path class="cls-1" d="m144.26,149.23c-.08,0-.17-.15-.27-.22-.93-.61-1.78-1.55-3.05-.66-.28.19-.62.04-.84-.25-.43-.58-.88-.84-1.58-.31-.35.27-.86.19-1.28.09-.94-.22-1.41.18-1.69,1.04-.39,1.24-1.32,1.8-2.58,1.64-.19-.02-.47-.18-.55.02-.41,1.02-1.38.92-2.19,1.13-.5.13-.84.46-.53.94.39.59-.02.75-.37.85-1.86.55-3.75,1.31-5.49-.32-.2-.19-.68-.4-.68-.18,0,1.19-.66,1.84-1.58,2.42-.09.06-.01.86-.39,1.11-.56.36-.37.88-.22,1.23.43.93.36,1.49-.84,1.49.67,1.35,1.34,2.52,2.7,3.28.5.28,1.22.52,1.59,1.12.66,1.07,1.9,1.2,2.91,1.46.99.26,2.04.23,3.08-.76.97-.93,2.66-1.08,3.64-2.26.08-.1.4.02.58-.04,1.38-.45,3.11.27,4.18-1.25.07-.1.3-.14.44-.13.92.11.99-.57,1.11-1.18.06-.31,0-.67.14-.93.92-1.7,1.13-3.62,1.78-5.39.34-.93.55-2.17,1.94-2.4.56-.09.81-.6.84-1.14.03-.7-.44-.42-.8-.39Zm-12.2,7.54h0c-.08.17-.18.35-.21.53.03-.18.13-.35.21-.53Z"/>
        <path class="cls-1" d="m103.78,140.71s.01,0,.02,0c0,0,0,0,0-.01,0,0-.02.02-.02.02Z"/>
        <path class="cls-1" d="m112.5,149.81c.62-.24,1.28-.81,1.3-1.59.02-.77.29-.92.94-.72,1.14.36,2.38.37,3.44,1.05.34.22.76.16,1.16.03,1.27-.39,2.68-.21,3.87-.96.1-.06.23-.13.33-.11,1.28.25,1.93-.97,2.15-1.58.46-1.29,1.06-2.24,2.3-2.78.19-.08.23-.31.1-.37-.76-.37-.9-1.37-1.87-1.62-.95-.24-2.19.29-2.83-.77-.59-.99-1.72-.74-2.49-1.44,1,1.3-.49,1.41-.86,1.84-.4.46-.75-.22-.99-.63-.08-.13-.2-.29-.33-.33-1.16-.4-1.15-1.04-.28-1.83-1.77,0-3.32-.21-4.52-1.5-.32-.35-.36-.02-.56.19-.5.53-1.09,1.08-1.81.26-.12-.14-.16-.37-.43-.16-1.04.79-2.26,1.27-3.36,1.98-.72.47-1.36,1.29-2.18,1.35-.71.04-1.22.29-1.78.59-.26.68-.82,1.39.36,1.83.21.08.42.41.26.82-.43,1.13.36,1.96,1.04,2.54,1.57,1.35,3.45,2.36,4.93,3.8.87.85,1.51.36,2.12.13Z"/>
        <path class="cls-1" d="m130.02,151.35c.81-.21,1.73-.14,2.15-1.15.1-.25.48-.18.76-.05,1.16.52,1.94-.51,2.13-1.09.47-1.39,1.13-1.88,2.53-1.52.24.06.58-.04.8-.19.74-.51,1.3-.3,1.86.3.43.46,1.57.18,1.52-.39-.06-.75.35-1.28.51-1.92.27-1.07.4-1.97-1.12-2.03-.18,0-.4-.08-.54-.2-1.2-1-2.52-1.03-3.62-.02-.31.28-.55.39-.94.25-1.12-.39-2.01-.15-2.48,1-.27.66-.82.13-1.23.35-.32.17-.27-.32-.3-.58-.09-.75-1.2-.57-1.26-1.36-.46.06-.56.47-.78.77-.29.39-.78.77-1.13.24-.49-.75-1.24-.08-1.26-.04-.4.82-1.54,1.1-1.49,2.27.03.79-1.87,2.24-2.69,2.05-1.11-.25-1.16.48-1.45,1.17-.42.99.17,1.82.28,2.73.27-.25.4.06.55.17,1.67,1.2,3.38,2.09,5.55,1.31.58-.21.94-.28.8-.98-.12-.64.31-.96.85-1.1Zm-.87-3.51l.07.06s-.07-.06-.07-.06h0Zm-.07.85c.08.09.21.16.35.22-.15-.06-.27-.13-.35-.22Z"/>
        <path class="cls-1" d="m122.26,151.98s0-.01,0-.02c0,0,0,0-.01,0,0,0,.02.02.02.02Z"/>
        <path class="cls-1" d="m119.54,160.14c-.51.3,0,.7-.04,1.05-1.6.09-3.06.46-4.51.82-.13.03-.28.16-.35.28-.72,1.26-1.85,1.05-2.98.84-.31-.06-.6-.21-.91-.26-.47-.07-1.83,1.17-1.69,1.2,1.13.2.87,1.26.85,1.77-.03.78.36.99.82,1.32.19.13.4.36.41.56.05.56.45.86.84.73.5-.17,1.35.32,1.49-.68.03-.19.35-.72.52-.36.48,1.01,1.45.52,2.11.87.53.28.64.12.51-.44-.16-.69-.08-1.37.71-1.62.94-.29.91-.8.48-1.51-.23-.39-.21-.82.27-.99,1.04-.38,1.57-1.3,2.31-2.01.71-.68-.03-.84-.12-1.21-.09-.33-.35-.58-.72-.36Z"/>
      </g>
      <g id="DACH_region" data-name="DACH region">
        <polygon class="cls-1" points="91.79 114.34 91.79 114.34 91.8 114.34 91.79 114.34"/>
        <polygon class="cls-1" points="86.55 150.31 86.56 150.31 86.56 150.3 86.55 150.31"/>
        <path class="cls-1" d="m80.55,138.45c.74,1.05.78,1.75.02,2.79-.61.83-.35,1.56.47,1.99.71.38.69.71.29,1.29-.34.49.55,2.46,1.12,2.51,1.54.15,2.96.77,4.44,1.15.3.08,1.15.11.89.91-.2.6-.56,1.07-1.22,1.22-.3,1.71-1.12,3.28-1.34,5.02-.07.59-.21,1.17.38,1.46.68.33,2.39-.27,2.84-.89.31-.43.79-.57,1.14-.27.66.55,1.51.39,2.15.72,1.29.68,3,.24,4.03,1.6.43.56.53.03.6-.33.06-.3-.27-.85.34-.81.67.04,1.43-.1,1.93.58.17.23.37.42.71.25,1.21-.61,2.5-1.01,3.75-1.47.54-.2.92-.31,1.46-.26.53.05,1.08.2,1.55-.34.6-.68.01-1.02-.32-1.39-.48-.53-.35-.94.12-1.3.34-.26.72-.55,1.12-.64.67-.15.99-.47.91-1.15-.04-.39.12-.6.51-.65.29-.03.75.48.86-.15.09-.54.11-1.23-.57-1.41-.81-.21-1.23-.89-1.85-1.32-.58-.41-1.09-.93-1.71-1.33-.8-.52-1.43-1.53-1.38-2.42.03-.7.03-1.02-.54-1.42-.51-.36-.96-.99-.81-1.6.19-.82.87.42,1.25-.14,0,0,.04.02.08.05-.1-.86.71-.7,1.13-.98.29-.19.59.09.95-.23.86-.77,1.86-1.38,2.97-1.84.49-.2,1.3-.29,1.45-1.06.06-.31-.26-.76.41-.74.48.01.96-.05,1.21.52.08.17-.03.53.43.48.42-1.3,1.19-2.54-.44-3.75-.32-.24-1.02-1.28-.62-2.1.4-.81.08-1.45-.29-2.09-.17-.29-.41-.64-.32-.86.5-1.17-.4-1.57-1.09-2.02-.68-.44-.68-.96-.32-1.49,1-1.51.47-3.81-1.1-4.6.12-.57.84-.13,1.08-.64-.52-.4-1.31-.41-1.58-1.17-.14-.39-.56-.23-.83-.07-.38.22-.72.05-.79-.23-.08-.32.15-.65.48-.86.26-.16.61.31.86-.22-.93-.09-.34-.86-.55-1.32-1.24.75-2.23,2.24-3.79.9-.44.33.23.76-.13.88-.76.27-1.27,1.07-2.15,1.04-.29,0-.54-.09-.73.21-.28.45-.24,1.58-1.17.88-.61-.46-1.31.47-1.73-.39.19-.15.4-.33.63-.47.44-.26.63-.63.44-1.1-.24-.58-.59-.35-.94-.08-.32.26-.49-.12-.73-.2-.77-.26-1.55-.51-2.32-.76.56-.86.42-1.3-.44-1.6-.5-.17-.97-.31-1.49-.05-.28.14-.57.09-.48-.36-.14,0-.29.02-.43.03-.48.01-1.07-.53-1.39.07-.24.45.29.94.57,1.2.85.8.43,1.06-.38,1.3-.28.08-.56.25-.43.59.1.26.43.09.65.16.43.74.33,1.63.61,2.41-.43.06-1.04.6-1.73,1.52-.05.06-.23.1-.29.06-.41-.26-1.31.5-1.33-.65,0-.26-.4-.23-.62-.18-.58.15-1.16.21-1.77.16-.72-.06-.72.66-1,1.06-.18.27-.28.74.02.84,1,.33.75,1.25.55,1.67-.44.91.28,2.51-1.48,2.72-.13.02-.52.45-.04.71,1.17.64,1.23,1.12.25,2.02-.15.13-.41.27-.41.41.04,1.85-1.27,1.26-2.24,1.23-.19,0-.38-.13-.55.04-.27.27-.08.53.09.74.86,1.11.5,2.35,0,3.34-.51,1.02-.45,1.83.12,2.65Zm27.22-19.76s.05.05.08.08c-.02.03-.03.05-.05.08-.04-.03-.08-.06-.12-.09.03-.03.06-.07.09-.07Zm-17.39-1c.08-.05.17-.1.25-.15.01.03.03.07.04.1-.1.02-.2.04-.29.05Z"/>
        <path class="cls-1" d="m103.8,140.69s-.01,0-.02-.01c0,.01,0,.02,0,.03l.02-.02Z"/>
        <path class="cls-1" d="m122.24,151.96l.02.02c-.57-.47-1-1.06-.88-1.8.07-.44.35-.9-.2-1.11-.48-.18-.93-.77-1.6-.14-.39.37-1.11.32-1.57-.02-.73-.53-1.62-.45-2.41-.77-.45-.18-1.34-.25-1.53.83-.08.49-.66.95-1.01,1.4-.52.69-2.4.27-3.17-.53-.22.63-.19,1.6-1.32,1.05-.03-.02-.21.13-.2.19.14,1.16-.77,1.28-1.52,1.64-.73.35-1.19.76-.39,1.69.48.56.76,1.45.69,2.32-.02.29-.03.58-.35.7-.26.1-.52-.07-.61-.27-.38-.84-1.17-.69-1.85-.85-.64-.16-.9.57-1.6.53-.89-.06-1.78.42-2.57.96-.55.38-1.15.66-1.84-.04-.48-.49-1.24-1-1.67.29-.14.44-.56,1.33-1.38.41-.39-.44-.63-1.45-1.49-.92-.68.42-.25,1.11-.03,1.69.05.14-.07.38.01.46.43.44.84.92,1.35,1.23.43.25.59-.37.89-.56.24-.15.54-.24.59,0,.2.87,1.12.43,1.53.92.19.23.69.2.79-.18.26-1,1.09-.98,1.81-1.01.87-.04,1.72-.06,2.48-.57.28-.19.65-.21.69.28.1,1.47.58,1.97,1.93,2.22,2.06.38,4.18.24,6.23.76.52.13,1.37.41,1.84-.36.65-1.05,1.69-1.13,2.76-1.17,1.76-.05,2.56-1.54,3.69-2.52.52-.45-.03-1.06.02-1.61.03-.4.05-.65.43-.86.37-.21.44-.5.04-.84-.2-.17-.93.1-.56-.58.24-.45.59-.83,1.14-.43.39.28.96-.02.94-.09-.19-.78.86-1.65-.14-2.36Zm-3.61,4.25c0,.1,0,.19.03.3h0c-.02-.1-.03-.2-.03-.3Z"/>
        <path class="cls-1" d="m91.35,165.15s0,0,0,0c0,0,0,.02,0,.02,0,0,.01-.03.01-.03Z"/>
        <path class="cls-1" d="m94.24,160.81c-.36-.37-.69-.56-1.18-.67-.88-.2-1.05-.91-.39-1.52.74-.68.42-1.17-.22-1.62-.47-.33-1.07-.46-1.58-.4-.65.07-1.12-.03-1.55-.51-.38-.42-.63-.07-.56.26.19.89-.34.64-.85.73-1.09.17-2.24-.09-3.28.41-.5.76-1.03.33-1.62-.09-.03.78-.09,1.44-.78,1.78-.98.94-1.56,2.22-2.62,3.1-.31.26-.65.72-.43,1.12.22.39.65.02.96-.07,1.11-.34,1.83,0,1.8,1.09-.03.85.62,1.24.82,1.9.02.07.08.15.14.18.88.44,1.53-.6,2.5-.3,1,.31,1.45-.44,1.49-1.43.02-.51.38-.67.87-.55,0,0,0,0,0,0-.21-.56.16-.82.58-.84.42-.02.41.41.37.72-.09.71.28,1.17.9,1.28.6.11.73.44.64,1.05.59-.37.46-1.16,1.12-1.26.16-.46.46-.88.26-1.44-.12-.34.15-.61.52-.65.32-.03.63,0,.66.47.02.35.19.89.58.67.55-.31,1.56-.12,1.55-1.19,0-.37.29-.61.6-.67.96-.17.93-.83.96-1.87-.81,1.24-1.58.99-2.22.32Zm-7.03-1.79c.42-.02.83-.16,1.25-.09-.28-.21-.56-.37-.85-.44.29.07.57.24.85.44,0,0,0,0,0,0,0,0,0,0,0,0-.41-.07-.83.06-1.25.09Zm1.27-.08h0s0,0,0,0c-.04-.35.12-.41.33-.41-.22,0-.38.06-.33.41.65.04,1.3.07,1.97-.12-.67.19-1.32.16-1.97.12Z"/>
        <polygon class="cls-1" points="82.22 159.16 82.22 159.16 82.23 159.15 82.22 159.16"/>
        <polygon class="cls-1" points="84.61 157.48 84.62 157.48 84.62 157.47 84.61 157.48"/>
      </g>
      <g id="Southern_Europe" data-name="Southern Europe">
        <path class="cls-1" d="m133.2,197.18c-1.73-1.7-4.08-2.29-6.11-3.41-1.25-.69-2.84-.91-4.25-1.43-1.57-.58-1.62-.78-.53-2.01.23-.26.51-.48.26-.93-.22-.41-.56-.39-.91-.39-.24,0-.47.07-.7.13-1.94.49-3.58.43-5.33-1.04-1.79-1.5-3.36-2.88-3.96-5.24-.26-1.03-.6-2.33-1.54-2.85-.84-.46-1.59-1.02-2.39-1.52-.71-.45-1.41-.95-2.27-1.14,0,0,0,0,0,0-.51-1.02-.85-2.09-1.01-3.23-.08-.56-.14-.95.54-1.18.59-.2.72-.7.11-1.02-.64-.34-.52-1.09-1.03-1.52-.36-.31.76-1.8,1.28-1.66,1.03.28,1.82-.47,2.2-1.01.37-.52.59-.39.98-.4.28,0,.56.46.84.03.24-.36.24-.95.02-1.12-.67-.52.22-1.65-.85-1.99-.15-.05.09-.49.26-.71.19-.24.56-.33.58-.79-1.38,0-2.73-.28-4.08-.45-.62-.08-1.08-.34-1.37-.82-.5-.82-.89-1.76-2.11-.95-.08.05-.35-.17-.43-.12-.61.4-1.6-.28-1.98.69-.37.95-1.1.84-1.76.51-.26-.13-.44-.34-.67-.13-.22.19-.46.5-.22.79.26.31.27.6,0,.84-.26.24-.59.14-.89,0-.17-.08-.25-.52-.52-.16-.12.17-.29.41.06.59.4.21.02.6.16.86.18.31.11.54-.19.69-.33.16-.5-.05-.67-.31-.13-.2-.22-.71-.53-.45-1.12.93-1.58.05-2.09-.78-.21.65.22,1.5-.79,1.62.09.61-.49,1.15-.15,1.81.06.12-.19.52-.53.52-.3,0-.44-.11-.54-.46-.16-.56-.47-1.03-1.02-1.4-.44-.29-.95-.66-.91-1.41.03-.52-.3.11-.45-.05h0c-.38.52-.32,1.2-.74,1.74-.28.36-.81.83-.95.78-1.23-.46-2.39.58-3.58.12,0,0,0,0,0,0-1.34.74,0,1.46.2,1.92.69,1.58.49,2.25-1.19,2.46-.18.02-.38.12-.34.16.31.34.09,1,.62,1.17,1.12.37,1.15.95.43,1.75-.46.51-.4,1.19-.11,1.62.39.57,1.05.93,1.8,1.03.44.06,1.06-.74,1.32.26.18.72-.32,1.03-.79,1.36,0,0,.03,0,.03,0-.01.39.04.8.54.69.76-.18,1.68-.28,2.03-1.08.33-.76,1.02-1.16,1.44-1.83.35-.57,1.01-.9,1.85-.63.98.31,1.91.7,2.72,1.33.36.28.71.63,1.18.65,1.36.07,1.81.94,1.92,2.11.06.6.09,1.2.48,1.7.65.82,1,1.7.49,2.74,1.25.09,3.13,2.33,2.94,3.39.59-.16,1.21-.23,1.68.2,1.09.99,2.13,2.03,3.19,3.06.03.02.02.08.04.11.91,1.53,2.78,1.9,3.88,3.2.77-.55,1.63.06,2.33-.12.76-.2,1.03.11,1.37.53.32.4.71.82.84,1.29.16.6.55.71.94.54.52-.21.82.13,1.03.36.36.39-.46.48-.36.88.04,0,.08.03.12.02q2.3-.74,2.67,1.68c.04.24.2.39.36.43.59.15,1.09.42,1.49.9.12.14.36.26.54.1,1.25-1.16,1.54.12,1.72.82.42,1.62,1.83,2.82,1.89,4.58,0,.2.26.39.41.57.61.75.46,1.17-.42,1.51-.41.16-1.29.11-.6,1.09.31.44.11,1.36-.48,1.67-.92.48-.45,1.14-.37,1.72.06.45.48.61.93.46.56-.19,1.43.1,1.4-1.02-.02-.72.39-1.29,1.05-1.62.74-.37.86-.92.67-1.69-.29-1.13.1-2.1,1.18-2.14,1.57-.06,1.4-.79,1.11-1.8-.07-.26-.19-.55-.14-.8.11-.55-.33-.82-.63-.87-.72-.11-1.12-.9-1.95-.78-.49.07-.66-.58-.58-.88.39-1.41.62-2.89,1.51-4.11.38-.53,1.03-.77,1.37-.26.52.78,1.2.85,1.9.71,1.05-.21,1.7.35,1.87,1.14.25,1.2,1,1.36,2.05,1.46,0-.36-.11-.73.02-.98.57-1.12-.09-1.74-.81-2.44Zm-22.69-13.12c0-.1-.03-.22-.04-.32.01.11.04.22.04.32,0,0,0,0,0,0Zm-.24.26c.09,0,.14-.02.18-.06-.03.04-.09.07-.18.06h0Zm0,0s.02.08.03.12c0-.04-.02-.09-.03-.12h0Zm.62,7.06h0c-.92-.39-1.88-.19-2.82-.21.94.02,1.9-.19,2.82.21Zm-.39-7.85c-.03.05-.03.11-.03.18,0-.06,0-.12.03-.18Zm0,.56h0c-.13-.02-.19.04-.21.13.03-.09.08-.15.21-.13Z"/>
        <path class="cls-1" d="m91.34,165.17s0,0,.01,0c0,0,0-.01,0-.02v.03Z"/>
        <path class="cls-1" d="m164.46,206.48c.16-.06.11-.34.08-.55-.08-.52-.43-.32-.72-.31-1.19.04-1.32-.93-1.59-1.72-.22-.65-.44-1.07-1.27-.95-.91.14-2.06.06-2.53-.61-.85-1.23-1.47-.84-2.22,0-.16-.46-.21-.89-.61-1.03-.65-.22-.89-.47-.35-1.08.49-.55.87-.22,1.29.05.25.17.29.87.74.47.47-.42-.24-.61-.39-.91l-.42-.36c0-.38-1.43-.8-1.43-1.14-.81-1.43-2.72-2.2-2.38-4.37.1-.63.54-.78.71-1.21.05-.13.28-.34.49-.18.47.36-.16.48-.18.73,0,.1.07.23.16.29.68.53,1.86,1.05,2.26.79,1.18-.73,1.73-.18,2.4.57.18.2.39.43.7.39.07,0,.17-.16.17-.25.02-.35-.15-.62-.46-.76-.18-.08-.38-.11-.57-.17-.36-.12-.76-.33-.53-.73.14-.24.4-.53.95-.35.71.23,1.34.64,2.08.81-.33-.4-.62-.98-1.13-.94-1.03.09-1.67-.28-2.03-1.21-.01-.03-.06-.05-.09-.08-.19-.18-.53-.32-.27-.66.17-.22.37-.38.71-.28,1,.3,1.46-.3,1.8-1.1.06-.14.18-.39.23-.38,1.24.22,2.14-.69,3.16-.93,1.09-.26,2.46-.1,3.68-.03,1.09.06,1.04-.62,1.36-1.11.19-.3-.13-.6-.17-.91-.05-.4-.34-.81.19-1.17.51-.34.81-.82.44-1.49-.39-.73-1-.64-1.65-.52-.06-.19-.24-.24-.35-.12-.16.16.04.24.15.32.92,1.57.74,1.97-.99,2.46-1.3.36-2.49,1.42-3.95.51-.06-.03-.2-.03-.23,0-.55.67-1.17.13-1.54-.09-.84-.5-1.45-.19-2.04.3-.25.21-.48.37-.79.47-1.49.45-2.82,1.4-4.44,1.48-.17,0-.32.08-.3.28.14,1.51-1.01,1.37-1.91,1.41-.88.04-1.62.21-1.95,1.12-.21.58-.78,1.05-1.17.98-.75-.12-1.25.35-1.89.44-.46.07-.83.24-.29.81.41.43.23,1.12-.15,1.42-.59.48-.71,1.05-.79,1.71-.07.6-.2,1.16-.95,1.32-.22.05-.63.34-.43.59.77.94-.1,1.38-.52,1.96-.19.26-.18.36-.03.73.53,1.3,2.04,1.36,2.71,2.4-.03.24.08.42.27.56.56.51.06.64-.27.92-.27.23-.3.65-.21,1.01.05.17.24.18.4.15.42-.08.23-.43.29-.67.12-.53.39-.77.78-.22.19.27.48.45.69.6.57.39.28,2.59,1.87.98.03-.03.2,0,.22.04.54.94,1.16.05,1.59-.07.65-.18,1.19-.67,1.95-.29.19.1.66,0,.77-.16.64-.97,1.29,0,1.92-.01.46-.01.94.39,1.52.28.32-.06.85-.17.89.29.04.41-.44.44-.8.52-.95.2-.06.47,0,.71h0c-.19.04-.47.18-.57.1-1.22-1-2.87-.51-4.16-1.23-.6-.33-1.11-.28-1.39.34-.29.63-.55,1.03-1.33.67-.32-.15-.38.14-.38.4,0,.6-.22,1.08-.72,1.43-.34.24-.32.44.07.57.88.3,1.44,1.08,2.26,1.51.61.33,1.25.99.46,1.84-.2.21-.06.45.04.67.24.52.83.81.89,1.48.02.18.67.45.98.39.51-.1.09-.51.07-.77-.06-.58.25-1.37.66-1,.64.59,1.57,1.08,1.76,2.11.07.37-.08,1.04.57.92.56-.11-.06-.56.05-.86.08-.22.11-.46.13-.7.04-.4.23-.66.62-.78.44-.14.47.25.68.48.53.58,1.1,1.13,1.89,1.36-.77-2.34-1.94-4.39-3.3-6.38.69.33,1.82-.46,1.98.9.01.12.46.31.58,0,.24-.59.88-.56,1.39-1.02-1.73.13-1.99-1.51-3.01-2.21.76-.17,1.3-.85,2.17-.83,1.21.03,2,.82,3.03,1.57.14-1.36-.83-2.27-.76-3.47.03-.49-1.13-.47-1.81-.51-.11,0-.24-.06-.32-.13-1.12-.98-2.53-1.23-3.9-1.61l.03-.65c-.09-.06-.17-.11-.26-.17.19-.11.22.04.26.16,1.13-.14,2.01.41,2.97.91.58.3.66,1.25,1.47,1.08,1.16-.25,1.94.17,2.49,1.2.14.27.49.51.79.61.28.09.64.03.93-.07Zm-9.07-3.73c-.21.12-.48.11-.77.17.29-.06.56-.05.77-.17Zm.03-.01c.05-.04.1-.08.15-.14,0,0,0,0,0,0-.04.06-.09.1-.15.14Z"/>
        <path class="cls-1" d="m118.04,212.16c-.11-.02-.28.13-.39.23-.63.64-1.44.75-2.27.79-.39.02-.88-.11-1.14.07-1.16.83-2.11.02-2.86-.52-.83-.6-1.16-.26-1.56.29-.26.36-.66.72-.91.33-.71-1.09-1.1-.03-1.45.21-.54.37-.53,1.1-.42,1.7.11.58.76,1.13,1.12,1.07,1.45-.22,2.37.68,3.5,1.25,1.11.56,2.11,1.48,3.56,1.28.71-.1,1.34.43,1.61,1.06.35.82,1.12,1,1.73,1,.62,0,1.18.15,1.8.23.07-.51-.32-1.13.11-1.5,1.13-1,.26-1.74-.3-2.46-.33-.42-.35-.79-.2-1.2.39-1.11.68-2.26,1.35-3.26.3-.45.54-.96.42-1.72-1.2.61-2.31,1.37-3.69,1.14Z"/>
        <path class="cls-1" d="m92.96,195.59c-.1-.5-1.61-1.17-1.77-.84-.34.7-1.07.98-1.57,1.5-.43.46-1.15.95-1.99.72-.3-.08-.68-.62-.9.13-.15.5-.2,1.04.21,1.33.98.71,1.07,1.73,1.03,2.74-.03.63-.61,1.27.35,1.68.04.02,0,.39-.09.54-.5.81-.49,1.72-.57,2.59-.44.93.47,1.33.67,1.97.29.91,1.01.68,1.49.64.43-.03.83-.45.69-1.16-.16-.82.46-.91,1.08-.73.25.08.47.29.7.44.43.28.71.29.79-.33.09-.67.19-1.34.4-1.98.6-1.83-.65-3.89.71-5.63.14-.18-.12-.45-.16-.66-.16-1.06-.86-1.91-1.08-2.94Z"/>
        <path class="cls-1" d="m174.43,222.1c-.19.24-.44-.08-.45-.33-.02-1.11-.52-.95-1.15-.45-.21.17-.45.06-.66.09-1.59.24-3.31-.41-4.77.74-.27.21-.64.31-1.09-.18-.49-.54-1.65.11-2.08-.25-.69-.59-.78.93-1.24.17.02.55-.04,1.13.1,1.65.12.45.55.25.91.2,1.12-.16,2.24-.31,3.37-.35.61-.02,1.57-.02,1.78.33.67,1.13,1.43.52,2.07.24,1.41-.61,2.87-1.08,4.34-1.48,1.38-.37,1.47-.36,1-1.82-.62.67-1.56.74-2.12,1.44Z"/>
        <path class="cls-1" d="m169.38,198.25c.71-.13,1.24.55,1.93.34.56.28.99-.02,1.21-.43.25-.49-.38-.57-.61-.83-.15-.17-.47-.23-.55-.42-.18-.39-.55-.67-.8-.43-.49.48-1.19.67-1.6,1.2-.13.17.11.62.43.56Zm.97-.23s.07.06.07.08c0,.03-.05.06-.07.09-.03-.01-.05-.03-.08-.04l.08-.13Z"/>
        <path class="cls-1" d="m182.81,215.19c1.04-1.05,1.43-2.29,1.45-3.83-1.98,1.03-2.22,1.7-1.45,3.83Z"/>
        <path class="cls-1" d="m171.04,203.85c.33-.34.65-.87.46-1.22-.24-.43.09-1.33-.85-1.28-.31-.05-.6.06-.75.27-.25.36.18.4.34.57.29.31.6.56.27,1.1-.33.54.5.6.53.56Z"/>
        <path class="cls-1" d="m146.67,209.18c.13-.36-.33-.76-.55-.8-.66-.12-.43-.78-.83-1.11,0,.47.02.95-.64.68-.05.27-.22.69-.12.77.32.25.76.53,1.12.5.35-.03.8.56,1.02-.04Z"/>
        <path class="cls-1" d="m176.58,205.37s-.01,0-.01,0c-.95-.62-1.63-.46-2.04.5.73.02,1.48.11,2.05-.5Z"/>
        <path class="cls-1" d="m164.64,193.98c-.26.07-.54.17-.31.57.13.22.34.5.49.24.44-.76.6.14,1.02.12-.26-.44-.08-.82.01-1.31-.3.64-.82.27-1.22.38Z"/>
        <path class="cls-1" d="m141.08,199.95c.16-.11-.16-.34-.34-.3-.34.08-.67.23-1.03.37.37.64.9.9,1.38,1.3.32-.53-.71-.86-.01-1.37Z"/>
        <path class="cls-1" d="m146.32,210.34c-.07-.04-.23.34-.15.49.24.46.63.79,1.15.87.05,0,.19-.41.45-.45-.32-.57-.97-.61-1.45-.92Z"/>
        <path class="cls-1" d="m180.14,216.37c.07.61-.4,1.27.1,1.88.1.13.04.44.34.28.17-.09.36-.35.19-.47-.59-.44-.17-1.18-.63-1.69Z"/>
        <path class="cls-1" d="m161.46,189.83c-.38.05-.51.38-.54.67-.04.41.36.43.66.52.32-.09.53-.24.46-.64-.06-.35-.18-.6-.59-.55Z"/>
        <path class="cls-1" d="m170.19,210.22c-.34.03-.6.46-.62.77-.03.35.3.68.67.69.41.01.42-.37.44-.67-.04-.36.02-.84-.48-.79Z"/>
        <path class="cls-1" d="m166.51,207.48c.06.04.14.06.32.13-.02-.93-.76-1.05-1.27-1.39-.02-.01-.23.17-.21.23.16.58.74.72,1.16,1.04Z"/>
        <path class="cls-1" d="m158.79,217.73c.13.43-.1,1.01.48,1.22.17.06.28-.09.34-.25.28-.74-.56-.6-.82-.96Z"/>
        <path class="cls-1" d="m117.22,225.58c-.39,0-.31.23-.32.4-.03.51.38.5.71.57.21.05.49-.11.38-.26-.2-.3-.54-.51-.78-.71Z"/>
        <path class="cls-1" d="m155.83,202.76s0,0,0,0c0,0,0-.01,0-.02,0,0,0,0,0,0h0Z"/>
        <polygon class="cls-1" points="162.55 199.21 162.51 199.18 162.52 199.19 162.55 199.21"/>
      </g>
      <g id="UK">
        <path class="cls-1" d="m52.26,135.18s-.01,0-.02.01h0s0,0,.01-.01c0,0,0,0,0,0Z"/>
        <path class="cls-1" d="m62.74,130.31c.95-1.02,1.97-1.99,2.36-3.41.32-1.17.02-2.1-1-2.81-1.1-.76-2.57-.84-3.4-.12-.39.34-.59.17-.88-.12-.36-.36-.24-.54.09-.84.96-.89,1.01-1.6.26-2.7-.22-.33-.49-.62-.74-.93-.08-.08-.16-.16-.23-.24-.2-.07-.33-.19-.34-.41,0-.02.07-.05.1-.05.27.02.29.21.28.41.09.07.18.14.27.21.18-.21,1,.22.64-.34-.85-1.32-.38-2.97-1.24-4.26-.34-.5-.6-1.09-1.18-1.29-1.07-.38-1.24-1.21-1.44-2.18-.39-1.92.19-4.06-1.36-5.71-.69-.73-1.25-1.99-2.34-1.62-.9.31-1.4.05-2.04-.29.99.07,1.61-.96,2.65-.82.46.06.36-.33.04-.6-.23-.19-.61-.54-.14-.78,1.41-.72,2.16-2.01,2.84-3.31.3-.57.57-1.09,1.03-1.55.65-.67.29-1.72-.62-1.88-.66-.11-1.34-.39-1.95-.38-.8.01-1.41-.6-2.22-.41-1.23.3-1.23.27-2.24-.36.38-.2.96.17,1.28-.47-.3-.15-.58-.29-.83-.42,1-.86,2.13-1.47,3.25-2.1.74-.42.75-1.19.8-1.78.03-.33-.81-.18-1.29-.21-1.34-.09-2.81.35-4.01-.69-.43-.37-.74.08-.82.36-.25.89-1.23,1.33-1.34,2.28,0,.03-.14.05-.22.07h0s-.09-.07-.13-.1l.1.14c-.1.37.52.5.34.9-.64.06-1.25.11-1.87.16.13.89-.48,1.6-.62,2.43-.05.28.62.73-.11.8-.54.05-.86-.39-.82-.95.03-.54.36-1.08-.03-1.61-.06-.08-.16-.12-.22-.16-.42.13-.06.66-.17.68-.65.07-.54-.59-.87-.41-.27.15-.48.52-.58.84-.08.25.08.57.45.55.21-.01.5-.05.4.21-.47,1.18,1.42.96,1.16,2-.01.05.3,1,.25,1.14-.14.44-.46.44-.84.38-.86-.14-.74.77-1.14,1.12.95.79-.02,1.04-.52,1.49,1.08.12,2.11.48,2.62-.84.05-.14.34-.43.57-.18.18.18.11.5-.09.64-.58.41-.77.97-.79,1.64,0,.26-.18.42-.46.44-.16,1.28-.35,2.55-1.09,3.67-.12.18-.33.46-.02.59.27.12.69.17.78-.26.08-.39.21-.73.48-1.05.15.3.25.59.43.83.14.18.5.34.55.02.09-.56.46-1.26-.39-1.62-.1.15-.29.4-.39.26-.15-.2.13-.29.3-.36.1-.21.21-.42.31-.64.59-.42,1.06-.1,1.16.42.23,1.16.9,2.43-.51,3.38-.42.28-.7.75-1.12,1.05-.37.26-.42.53-.27.91.18.46.35.92.54,1.4.35-.33-.04-.85.46-1.12.42.45.85.89,1.24,1.3.46-.13.24-.72.69-.81.85,1.15,1.63.23,2.4-.12.3-.14.54-.22.74,0,.27.3-.15.37-.27.52-1,1.27-1.3,2.51-.24,3.96.27.37.14.82.72.33.1-.08.41-.02.54.08.27.2.07.42-.07.6-.54.7-.92,1.45-1.05,2.34-.04.28-.26.53-.18.88.1.49-.64.49-.64.96-.44-.9-1.27-.31-1.81-.31-.9-.01-1.43-.25-1.86-.99-.16-.27-.56-.4-.84-.11-.3.31-.39.73-.1,1.09.7.86.23,1.23-.56,1.51-.3.11-.6.22-.75.55.44.36.83.15,1.27-.03.27-.11.81-.38.86.31.15,2.07-.37,3.49-2.48,3.74-2.04.24-1.86.42-2.37,1.59-.31.7.31.67.41,1,.13.45.74.14,1.02.03.44-.17,1.13-.5,1.27-.26.43.77.64,1.67,1.85,1.35.03,0,.13.44.27.62.48.6,1.09,1.32,1.87.71.61-.48,1.21-.49,1.87-.55.06-.11.12-.21.23-.05,0,.01-.09.1-.13.15-.46.37-1.05.66-1.34,1.14-.49.81-1.03.67-1.69.37-.32-.15-.68-.41-.98-.37-.67.11-1.53-.61-1.99.28-.24.46-.34.75-.93.53-.44-.16-.54.24-.59.55-.07.49-.41.72-.74,1.02-.61.56-1.49.75-2,1.44-.41.56-.93.84-1.64.75-.38-.05-.95.24-.78.48.4.56,1.61-.02,1.79,1.09,0,0,.33-.12.46-.29,1.11-1.41,3.16-1.67,4.43-.56.78.68,1.32.57,1.77-.36.75-1.55,2.5-1.91,3.6-.67.64.72,1.53.06,2.17.53.57-.94,1.5-.28,2.23-.48.24-.17.48-.74.71,0,1.36.11,2.85-.07,4.06.43,1.15.48,2.03.15,3.02-.07.19-.04.35-.2.53-.22,1.32-.19,2.37-1.17,2.57-2.47-.92-.04-1.91.1-2.54-.99,1.15.04,1.02-.77.98-1.68.42.36.84.44,1.13.13Zm-19.08-31.1c-.07-.02-.13-.06-.2-.09.03-.03.07-.08.09-.08.07.02.13.06.19.09-.03.03-.06.08-.08.08Zm.6,3.07c.03.48.05.75.07,1.01-.34-.2-.27-.48-.07-1.01Zm5.62-7.72s-.11-.05-.18-.08c.05-.08.09-.16.14-.25.1.04.16.07.22.1-.06.08-.11.17-.19.23Zm.44,26.24c-.03.11-.02.23-.01.33.01.16.03.3-.03.43.06-.12.04-.27.03-.43,0-.11-.01-.22.01-.33Zm10.78,5.89c.02-.11.01-.26,0-.37h0c.01.12.02.26,0,.37Z"/>
        <path class="cls-1" d="m43.38,101.87s0,0,.01,0c0,0,0,0,0-.01h-.01Z"/>
        <path class="cls-1" d="m36.2,122.49c.88-.43.91-1.44,1.43-2.11,1.24-1.57.7-3.45,1.02-5.18.13-.68-1.07-1.81.69-2.19-2.07.38-2.12-1.22-2.52-2.52-1.09,1.69-1.98,1.81-3,.39-.4-.56-.88-1.23-.74-2.05.41-.22,1.28.08,1.05-.91-.01-.06.25-.28.33-.25,1.04.35,1.35-.58,1.91-1.07.34-.57.93-.41,1.5-.67-.17,1-.98.52-1.35.84-.5,1.17-1.44,1.83-2.59,2.27-.14.05-.38.08-.34.26.18.74.49,1.45,1.17,1.83.51.29.92.12,1.25-.47.24-.42,1.04-1.03,1.22-.17.27,1.32,1.16,1.8,2.09,2.42.35.23.57.19.83-.04.32-.29.44-.68,1.11-.63.5.04.96-.68.94-1.43-.01-.73-.23-1.15-1.16-1.08.72-.24.94-.53.47-1.14-.25-.32-.36-.8-.41-1.23-.13-1.19-.9-1.45-1.9-1.35-.55.05-.94.03-1.2-.61-.12-.31-.58-1.01-.92-.73-.81.67-1.66.28-2.48.37-.83.09-1.47.35-1.62,1.26-.07.43-.34.65-.72.64-.35-.01-.73-.01-.76.36-.04.44.37.52.75.58.52.08,1.1.15.82.94-.39,0-.96-.15-1.13.17-.55,1.08-1.28.33-1.95.37-.39.03-.49-.16-.74-.28-.6-.31-1.21-.84-1.95-.5-.71.32-.38,1.04-.47,1.59,0,.05-.08.09-.13.15-.29-.36-.58-.73-1.07-.49.28.92,1.13,1.03,1.87,1.4-.9-.02-1.29.73-1.91,1.07-.63.35-.74.81-.17,1.17.86.55,1.43,1.62,2.64,1.58.26,0,.51.06.48.38-.03.36-.4.27-.56.25-.83-.11-1.22.3-1.46,1.04-.09.28-.34.64-.58.71-1.28.33-1.41,1.53-1.94,2.42.04.05.07.09.11.14-.05-.03-.09-.07-.14-.1-.77-.24-1.56-.68-2.27.33.8.16,1.54.31,2.4.48-.97.24-2.2,0-2.32,1.15-.07.62.91.71,1.65.67-.39.41-1.03.28-1.18.94h2.13c-.63.12-1.03.45-1.21.99.36,0,.86-.15,1.04.03.69.66,1.51.34,2.23.33.98-.02,2.16.07,2.58-1.45.13,1.19.72.87,1.16.59,1.41-.9,3.03-.78,4.58-.94.39-.04.81.4,1.21.41.94,0-.16-.69.25-.9Z"/>
        <path class="cls-1" d="m42.08,91.13c.36-.15.62-.43,1.02-.55.8-.25,1.7-2.05,1.63-3-1.29.4-1.3.4-1.95,1.12-.14.15-.18.16-.35.05-.7-.43-.6.17-.83.55-.3.5.56.87.02,1.26-.2.14-.44.22-.25.52.22.34.45.16.71.04Z"/>
        <path class="cls-1" d="m43.38,101.87s.01-.01.01-.01c0,0,0,0-.02,0,0,0,0,0,0,0Z"/>
        <path class="cls-1" d="m40.58,102.75c-.08.04-.05.35-.06.54,1.12-.16,0,.65.45.87.32-.16.71-.16.99-.7.32-.62.69-1.31,1.43-1.61-.05-.14-.11-.27-.16-.41-.82.56-1.74.91-2.64,1.29Z"/>
        <path class="cls-1" d="m61.84,78.85s0,0,0,.01c0,0,0,0,0,0h-.01Z"/>
        <path class="cls-1" d="m61.84,78.87c-.57.2.17-1.07-.7-.61-.86.45-.14.68.07,1.01.23.35.06.49-.3.54-.24.04-.58-.17-.7.31.41.29.82.59,1.31.94.1-.79.76-1.4.32-2.18Z"/>
        <path class="cls-1" d="m45.71,112.67c.02-.22-.11-.6-.39-.41-.54.37-1.09.81-1.3,1.48-.08.25.19.29.44.29.59-.27,1.2-.57,1.26-1.36Z"/>
        <path class="cls-1" d="m40.77,92.32c.17-.19.52-.39.23-.69-.35-.37-.89-.26-1.22-.09-.44.22.04.39.19.58.24.33-.23.54-.18.85.57.14.71-.36.98-.66Z"/>
        <path class="cls-1" d="m39.79,92.99s-.01,0-.02,0h.02s0,0,0,0Z"/>
        <path class="cls-1" d="m55.28,87.34c.08.14.28.04.39-.09.02-.03.04-.07.07-.1-.59-.36-.61-1.2-1.2-1.52-.4.04-.49.32-.52.59-.11.95.98.58,1.27,1.12Z"/>
        <path class="cls-1" d="m52.97,135.19h.01s0,0,0-.01c0,0,0,0-.01,0,0,0,0,0,0,.01Z"/>
        <path class="cls-1" d="m52.42,136.13c.47.38.77-.05.97-.29.46-.53-.41-.33-.42-.64-.24,0-.48,0-.72,0-.41.39-.17.67.16.94Z"/>
        <path class="cls-1" d="m39.73,94.91c.36-.74.68-1.33.06-1.91-.22.59-.75,1.17-.06,1.91Z"/>
        <path class="cls-1" d="m39.77,92.98s0,.01.01.02c0,0,0,0,0,0,0,0-.02-.01-.02-.01Z"/>
        <path class="cls-1" d="m61.84,78.85s.01.01.01.01c0,0,0-.02,0-.03,0,0-.01,0-.02.01Z"/>
        <path class="cls-1" d="m63.38,77.12c-1.04.4-1.56.85-1.53,1.72.67-.33.94-.98,1.53-1.72Z"/>
        <path class="cls-1" d="m40.49,103.33s.02-.01.03-.02c0,0,0-.01,0-.02,0,0,0,0-.01,0,0,.01-.01.02-.01.04Z"/>
        <path class="cls-1" d="m40.47,103.39s.02-.04.02-.06c-.03.02-.06.05-.1.07.02,0,.06,0,.07-.01Z"/>
      </g>
      <g id="Norden">
        <path class="cls-1" d="m124.52,46.64c1.08.43,1.93-.33,2.86-.38,1.23-.07.85-.54.59-1.16-.43-.41-.7-.94-1.12-1.37-.44-.46-.65-1.1-.35-1.85.29-.74.22-1.56-.18-2.28-.42-.76-1.57-1.27-.77-2.43.03-.04-.03-.2-.07-.21-1.69-.34-.78-1.84-1.15-2.75-.35-.87-1.53-2.66-2.49-2.75-1.88-.18-3.11-1.43-4.4-2.54-.31-.27-.58-.51-.9-.32-.42.25.02.55.11.79.38.94-.43,1.81-.09,2.78.12.33-.41.69-.97.55-.77-.19-1.58-.24-2.33-.47-1.02-.31-1.09.11-.9.94.09.42.1.88.02,1.31-.13.71-.19,1.43-1.35.94-.87-.37-1.21.55-1.41,1.18-.25.79-.31,1.62-.96,2.26-.37.37.04.75.22,1.07.45.79.32,1.42-.12,2.22-.65,1.18-1.49,2.33-1.38,3.84.05.76-.71.98-1.31,1.2-.42.15-.73.19-.66.86.28,2.46.29,4.91-1.09,7.14-.44.71-.67,1.35.21,2.05.67.53.56,1.46.38,2.25-.15.65-.69.67-1.24.62-1.79-.17-3.27.95-3.46,2.67-.27,2.5-.24,4.99.52,7.43.23.75-.07,1.5-.09,2.25-.02.94.13,1.65,1.02,2.22,1.31.84,1.17,2.56-.19,3.29-.66.36-.33.89-.15,1.23.56,1.09.82,2.17.59,3.4-.1.52-.14,1-.49,1.42-.55.65-1.44.97-1.58,2.04-.04.32-.26.68-.11,1.03.39.94.18,1.87.02,2.82-.08.47-.3.79-.72.81-.62.04-.46-.49-.49-.86-.05-.14-.18-.27-.07-.42-.24.14-.75.04-.63.4.45,1.34.11,2.85.92,4.09.26-.26.47.32.76.03.57-.55.59-.03.66.36.12.63-.31.95-.7,1.3,0,0,0,0,0,0-.26-.09-.27.24-.46.27.06.17.2.22.34.14.14-.08.31-.19.13-.39.77.17.07.76.3,1.06.6.78.82,1.8,1.16,2.65.7,1.71,1.52,3.21,2.87,4.45.2.18.21.72-.03.74-1.61.14.05.9-.21,1.15-.29.5-.64-.08-.83.15-.07.45.21.72.32,1.06l-.02-.02s0,0,0,.01c0,0,0,0,.01,0,.45.71.9,1.42,1.35,2.13.12.18.17.38.03.55-.28.37-.43.9-.09,1.14.45.33,1.05.52,1.66.22.5-.25,1.03-.58,1.58-.42.49.14.8.14,1.11-.31.32-.46.16-.85-.09-1.2-.39-.55-.11-.98.02-1.53.19-.83,1.61-.37,1.34-1.47.08,0,.16-.04.24-.02,1.07.21,2.14-.79,3.22-.01.26.19.32-.11.39-.26.18-.36.21-.76.3-1.14.15-.64.11-1.42.9-1.74-.15-1.3.04-2.61.09-3.9.05-1.12.36-2.2-.19-3.27-.06-.11-.07-.17.05-.27.68-.56.66-1.6.36-2-.59-.78.66-1.58-.24-2.16.09-.05.19-.09.26-.16,1.01-.85,2.47-1.39,2.16-3.22.24.57.1,1.2.79,1.65-.08-1.11.89-1.49,1.25-2.27.94-.53.94-1.03-.03-1.52-.05-.03-.07-.13-.1-.19.83-.34.68-1.58,1.67-1.79-.25-.46-.62-.83-.7-1.37-.11-.69-.8-.67-1.25-.96-.12-.08-.22-.25-.24-.4-.14-.96-1.51-.85-1.59-1.85-.14.03-.3.04-.42.1-.77.37-1.55-.43-1.62-.62-.58-1.61-.85-3.32-.96-5.03-.04-.55.23-.92,1.21-.31-.79-.98-1.01-1.63-.76-2.48.17-.58.36-1.25-.29-1.83-.37-.33-.17-.81.19-.78.85.08,1.1-.35,1.08-1.11-.02-.51-.48-1.25.67-1.18.23.01.71-.46.51-1.01-.27-.74.31-1.44.75-1.48,1.29-.12.81-2.03,2.19-2.02.09,0,.69-.82,1.11-1.21.64-.6,1.44-1.13,1.44-2.14,0-.86.38-1.55.91-2.14.52-.58.3-1.07-.13-1.42-.92-.74-1.06-1.5-.48-2.53.36-.63.53-1.37.14-2.07-.22-.38.1-.33.24-.47.62-.62,1.58-1.08,1.15-2.26-.07-.2-.19-.72.25-.54Z"/>
        <path class="cls-1" d="m115.06,102.83h0,0c.07.74-.02,1.5.44,2.5.4-2.51,1.18-4.64,1.23-6.91-.32,1.58-1.01,2.99-1.68,4.41,0,0,0,0,0,0,0,0,0,0,0,.01l.02-.02Z"/>
        <path class="cls-1" d="m98.52,89.4s-.03.04-.04.06c.02-.01.04-.02.06-.04,0,0-.02-.02-.02-.02Z"/>
        <path class="cls-1" d="m151.13,57.87c-.1-.82-1.08-1.19-1.74-1.61-.86-.54-1.88-.84-2.79-1.31-.58-.29-1.01-.55-.47-1.44.93-1.53.71-1.8-.94-2.74-.83-.47-.85-1.35-.84-2.2-1.02.07-1.51-.53-1.71-1.42-.2-.88-.39-1.77-.49-2.67-.06-.53-.68-1.17.26-1.61.31-.15-.07-.48-.17-.7-.65-1.38-1.91-2.32-2.63-3.65-.15-.28-.56-.47-.32-.89h0c-.98-.22-1.29-.62-1.11-1.61.18-.93.41-1.86.69-2.77.26-.83.34-1.49-.63-1.98-.43-.21-1.05-.57-.87-1.31,0,0,0,0,0,0-2.42-.05-3.29-.99-3.05-3.32,0-.08,0-.17.04-.23.45-.75-1.2-.31-.63-1.11.29-.41.71-.7.36-1.35-.3-.56.03-1.17.22-1.73.29-.84-.12-1.46-.82-1.54-1.02-.11-1.79-.59-2.51-1.19-.36-.3-.6-.24-.74.11-.27.69-.78.79-1.42,1.02-.73.26-.84,1.26-.94,1.99-.15,1.09-.06,2.2.26,3.27.19.63.22,1.17-.46,1.52-.51.27-.28.76-.37,1.16-.14.64-.31,1.28-1.26.72-.75-.44-1.51-.82-2.39.1-.81.85-2.37.46-3.15-.48-.53-.64-1.13-1.23-1.71-1.83-.17-.17-.42-.29-.65-.15-.2.11-.22.38-.1.53.38.49-.61.94-.04,1.39.95.74,1.86,1.75,3.04,1.89,1.82.21,2.63,1.61,3.78,2.63.17.15.04.38.07.55.15.93-.28,2.06.9,2.67.16.08.34.5.27.61-.64,1.04.19,1.58.71,2.2.59.7.5,1.61.32,2.26-.28,1-.12,1.64.63,2.28.25.21.33.62.49.94.43,1.02,1.26,1.46,2.29,1.74.53.15,1.37.28,1.34,1.12-.04,1.15.94,2.03.78,3.22-.91-.36-1.5.06-1.73.88-.27.95-.54,1.89-.99,2.77-.8,1.59-1.23,3.38-2.67,4.64-.4.35-.7,1.27-.52,1.71.36.9,0,.91-.67,1.02-.4.07-1.33.06-1.02.7.34.71-.04,1.28-.24,1.6-.45.73-.26,1.35-.26,2.08,0,.83.96,1.03.85,1.7-.2,1.22.59,2.05,1.04,3.02.16.34.16.74.23,1.1.32,1.59-.22,3.23.41,4.79.14.35.26.84.55.8,1.03-.13,1.79.81,2.8.62.09-.02.2.07.3.11-.14.33-.48,0-.65.27,1.41.09.22,1.22.76,1.77.67-.02,1.46-1.59,2.16,0,.02.05.32.04.33.01.26-.8,1.07-.37,1.57-.72.78-.56,1.81-.6,2.58-1.37.66-.65,1.42-1.4,2.62-1.46.29-.01.98-1.17,1.69-1.33.86-.2,1.3-1.24,2.28-1.04.85.17,1.15-.27,1.25-1,.55-1.58,1.42-2.99,2.25-4.43.68-1.19,1.29-2.47,1.64-3.79.43-1.63,1.06-3.16,1.72-4.69.39-.91.34-1.9.23-2.8Zm-18.17,7.33c.13.17.26.35.41.52-.15-.17-.28-.35-.41-.52Zm9.24-.76c.32.32.53.78.94.96,0,0,0,0,0,0-.41-.18-.62-.64-.94-.96-.13-.13-.27-.24-.46-.3.18.06.33.17.46.3Z"/>
        <path class="cls-1" d="m98.52,89.4l.02.02s0-.01,0-.02c0,0,0,0-.01,0Z"/>
        <path class="cls-1" d="m98.78,89.62c.19-.13.23.79.47.09.16-.48.39-1.12.21-1.5-.59-1.18.06-2.26.08-3.38,0-.4.38-.47.69-.54.9-.2.98-.88,1.22-1.65.48-1.56-.51-2.74-.82-4.08-.12-.51-.19-.89.45-.94.74-.06.89-.61.98-1.15.1-.59-.12-1.13-.67-1.42-.99-.52-1.27-1.35-1.22-2.39.13-2.65-.43-5.23-.8-7.83-.18-1.29,1.2-4.47,2.33-5.1.44-.25.89-.32,1.38-.22.45.09,1.07.41,1.31-.08.27-.54.37-1.4-.15-1.8-1.28-.97-.75-1.95-.19-2.93,1.2-2.12,1.15-4.4.88-6.7-.06-.55-.09-.93.54-1.08.98-.23,1.48-.6,1.45-1.87-.02-.99.73-2.08,1.34-2.99.51-.75.58-1.32.12-2.06-.38-.6-.62-1.19.17-1.75.39-.27.41-.84.5-1.31.29-1.47.91-1.98,2.36-1.9.45.03.45-.3.46-.52.04-.51.04-1.04-.01-1.55-.14-1.25.07-1.44,1.36-1.19.78.15,1.56.29,2.34.46.27.06.64-.13.56-.2-.81-.75.38-1.45.09-2-.76-1.46-.22-2.07,1.2-2.33.06-.01.09-.18.12-.29.34-1.28.81-1.43,1.77-.53.49.47.97.95,1.4,1.47,1.03,1.26,2.17,1.29,3.12,0,.25-.35.47-.36.79-.17.31.19.7.2.99.35.95.48.82-.05,1.3-.71,1.3-1.77.23-3.45.36-5.14.05-.7.58-1.1.63-1.73.07-.83.55-1.08,1.32-.94.08.01.23-.1.27-.18.59-1.49,1.44-1.06,2.36-.34.5.39,1.04.61,1.71.68.88.08,1.1.92,1.36,1.64h0c-.61,1.48-.61,1.55-.1,2.24.03-.07.09-.14.09-.21.02-.51.03-1.01.04-1.52.74-.41,1.44-.84,1.1-1.89-.18-.56.1-.6.54-.47.26.08.52.13.78.2.33-.6-.09-1.07-.44-1.31-1.02-.7-1.13.88-1.92.91.05-1.98-1.84-1.05-2.72-1.78,1.43-.28,2.83.14,3.81-1.57.64-1.12.58-1.23-.42-1.59-.61-.22-1.17-.69-1.79-.76-.56-.07-1.14.36-1.6-.38-.12-.2-.64-.4-.96.17-.28.5-.39.95-.26,1.48.05.15.07.33.16.44.28.3.03.49-.11.72-.26-.26-.6-.07-.85-.14-.21-.06.12-.38.18-.59.05-.15.14-.28.22-.42,0-.09-.01-.19-.02-.28-.08-.01-.17-.03-.25-.04-.29-.09-.59-.18-.88-.27.79-.07,1-.59,1.12-1.2.13-.63-.68-.22-.74-.65-.44.3-1.07-.25-1.5.46-.35.58-.62.82.27,1.01.29.06-.1.28-.13.43-.09.45-.34.87-.25,1.35.12.64-.18,1.07-.74,1.44-.15-1.17-.29-2.26-.44-3.43-.54.37-.63.83-.74,1.23-.38,1.39-1.01,2.73-1,4.21,0,.22.01.53-.35.47-.29-.04-.42-.31-.35-.54.35-1.2-.22-2.58.72-3.67.16-.18.4-.62.03-.68-.72-.12-.45-.29-.12-.56.37-.31.2-.64-.03-.92-.1-.12-.46-.33-.46-.12-.02.39-1.01.41-.35.97.31.27.03.57-.07.71-.12.15-.44.29-.72.15-.22-.1-.35-.43-.69-.31.23.62-.9,1.47.6,1.82-.71.1-1.15.91-1.71.07-.18-.27-.36-.02-.56.26-.48.71.56.58.48,1.04-.77,0-1.68-.16-1.45,1.12.48.27.93.45,1.2-.31-.06.73-.13,1.46-.19,2.18.15.03.33.02.43.11.13.11-.05.16-.12.22-.24.22-.4.14-.51-.14-.52-.25-.43-1.18-1.43-1.02-.68.11-.05.51-.34.6-.24-.3-.5-.6-.75-.9-.47-.18-.31.71-.72.47-.44-.25-.75-.02-.84.26-.11.37.38.46.62.59.99.56,1.08.64,1.3,1.73-.79-.68-.8-.69-1.68-.14-.3.18-.62-.63-.7-.09-.1.62-.79,1.02-.54,1.71.07.72.07,1.42-.65,2.25.17-.95.28-1.6.4-2.25-.54-.52.29-1.35-.47-1.89-.06.79-.88,1.2-.81,2.03q-.27-.8-1.13-.57c-.61,1-.37,1.78.6,2.4.27.18.43.45.32.88-.47-.12-.57-.89-1.17-.69-.21-.56-.34-1.25-1.21-.71,0,.08,0,.16,0,.24.38.2.66.67,1.19.49-.7.89-.82.84-1.42-.49-.08,0-.16,0-.25,0,.08.6-.29,1.16-.06,1.83.14.43-.57.38-.85.61.02.39-.35.66-.08,1.19.25.49-.38,1.09-.9,1.28-.29.11-1,.84-1.2-.29-.11-.61-.63-.63-1.09-.2,0,0,0,.04,0,.04.12.15.27.36.08.48-.23.16-.24-.16-.36-.27-.12-.17-.08-.31.05-.45-.93-.86.44-1.74,0-2.71-.65.81-1.25,1.52-1.3,2.51.67.63.61,1.31-.16,2.01.05.24.09.48.14.73.03.12.08.44.21.23.47-.72.91-.35,1.38-.06.52-1.07.59-1.11,1.04-.48.67,0,1.34,0,1.93-.35.29-.17.52,0,.59.16.14.34-.28.11-.38.29-.56,1-1.44.21-2.16.37-.09.31-.79.47-.33.86.58.5.37,1.14.59,1.71-1.09.13-.58-1.05-1.18-1.27-.45.46-1.06.91.06,1.39-.82.3-1.51.52-2.18.79-.71.29.4.92-.2,1.25.33.18.47-.23.73-.25.16-.25.23-.57.56-.69.3.52-.16.6-.42.79,0,.07.01.13.01.2.39.04.37.89,1.05.45.31-.2.06.17.03.19-.4.36.28.6.06,1.05-.55-1.05-1.39-.32-2.11-.45-.25.36-.51.73-.78,1.12.67.02,1.24-.39,1.83-.07.21.05.48.01.59.29-.28.18-.52.1-.74-.1-.56.26-1.56.09-1.66.7-.19,1.17-1.1,1-1.77,1.3-.17.36.75.36.24.86-.79.77-1.31,1.69-1.32,2.84.83-.35,1.67.73,2.52-.02-.48.47-.67,1.53-1.69.73-.1-.08-.47.21-.72.32,0,0-.06.02-.06.02-.1.04-.2.07-.3.11-.49.48-.49.58-.34.58,1.05-.04.35.37.16.61-.12.15-.39.23-.42.38-.26,1.32-1.1,2.46-1.1,3.83.62-.27.74-.12.75.99-.3-.21-.34-.37-.9-.06-1.18.65-.52,2.08-1.55,2.6-.12.06.08.31.25.45.51.41-.4.56-.23.97.02.05-.43,0-.59-.18-.2-.23-.34-.5-.61-.9,0,.31.06.53,0,.58-.82.59-1.38,1.39-1.91,2.22-.44.69-.28,1.75-1.34,2.08-.16.05-.2.48-.3.74.5.1.79-.49,1.39-.39-.31.4-.93.73-.37,1.24.47.44.9-.05,1.25-.25.83-.49,1.58-1.1,1.67-2.18.26-.28.4-.83,1-.47-.1.44-.53.47-.82.68.1.37.58.23.74.57-.2.34-.54.51-.9.65-.45.17-.62.48-.6.98,0,.09.34.73-.37.69-.57-.03-1.39-.47-1.61.6-.01.06-.41.13-.45-.36-.04-.44.03-1.28-.89-1.22-.19.45-.62.37-.98.44-.14.16.37.74-.41.55-.46-.11-.89.32-1.26.66.3.82.12,1.32-1.23,1.2.85.48,1.48.78,1.17,1.59-.58.07-.59-.57-.93-.87q-.03.78.83,1.63c-.99.03-.97-1.21-1.78-1.41-.39,0-.93.15-1.14-.05-.55-.5-1.04-.32-1.25.13-.09.19-.44,1.25.7,1.2.42-.02.81.43.74,1.15-1.08-.92-2.2-.61-3.34-.43.02.43,1.11.33.52.92-.56.56-1.25,1.02-1.96,1.37-.66.32-1.32.56-1.69,1.24.53.6,1.53-.21,1.98.66.3.03.61.06.95.1-.4.54-.71.38-1.01-.03-.71.14-1.52-.69-2.15.23,0,.08.01.16.01.24.02.06.07.17.06.18-.18.1-.28.02-.34-.16-.47.36-.39.66.17.69,1.02.04.3.44.19.73.46.19.94.27,1.61.02-.5.92-1.15,1.14-1.89,1.21-.49.25-.52.37-.27.43.57.14.46.66.7.98.86-.5,1.73-.76,2.71-.3.89.42.45-.59.84-.79.48,1.16,1.54.61,2.7.78-.88.35-2.08.37-1.03,1.47,0,0-.1.03-.1.03-.19-.27-.47-.44-.59-.82-.17-.52-.57-.88-1.15-.33-.13.12-.29.36-.5.22-.87-.57-1.69-.4-2.54.05-.26.14-.41-.14-.57-.32-.29.03-.72-.15-.71.37,0,.36-.23.83.31,1.04.15.06.31.08.32.28,0,.04-.07.12-.13.13-.88.22-.08.67-.03.86.12.47.48.1.74,0,.22-.09.22-.57.61-.36,0,1.05-.08,1.26-.36,1.41-.47.24-.48-.51-.89-.38-.52,1.29-.39,1.55.93,2,.08.03.09.27.13.41.07.17-.06.42.17.53.31.14.3-.12.35-.3.08-.26.13-.54.23-.79.11-.29.31-.46.64-.3-.3.32.23.73.01.9-.33.25-.49.68-.76.84-1.75,1.07-.04.9.48,1.19-.76.45-1.37,1-2.31.85-.42-.06-.14.57-.45.71.09.61-.43,1.19-.19,1.86.67-.25.09-.88.54-1.13.3.1.33.7.81.43.08-1.31,1.04-1.19,1.93-1.18.05.5-.5.58-.65.94.06.03.11.08.13.16.24.08.11.19.03.29-.06.58-1.06.96-.37,1.71.57-.05,1.02-.67,1.71-.36-.31.61-1.64.05-1.25,1.27-.55-.13-.6-.54-.8-.82-.46.22-.64-.28-.92-.43-.25,1.09-.74,2.22.37,3.04.88.65,1.5,1.76,2.8,1.62.13.43-.94.89-.17,1,.95.14,1.95.64,2.85.43,2.69-.6,4.22-2.7,5.7-4.83.29-.42.85-1.15,1.21-.92.7.44.95,0,1.24-.34.71-.83,1.26-1.72.24-2.81.35.3.97.02,1.01.61.08,1.08.51,1.74,1.72,1.68.16,0,.48.04.51.36.17-.03.21.09.25.22Zm23.51-71.67c.03-.09.13-.15.2-.22.13.12.25.25.38.37-.11.03-.21.06-.31.09-.14-.05-.36,0-.28-.24Zm-35.96,53.48c.01.29-.15.22-.25.23-.23.03-.42-.08-.32-.33.24-.57-.14-1.07-.15-1.75.52.36.73,1.04,1.42.96-.68.24-.72.24-.7.89Zm-3.13,15.28c.03-.19.06-.39.09-.58.05.01.1.02.15.03-.08.18-.16.37-.23.55Zm3.99-7.81c.27.16.33.48.32.84,0,.38-.12.67-.41.78.29-.11.4-.41.41-.78,0-.35-.05-.68-.32-.84Z"/>
        <path class="cls-1" d="m92.05,63.28s0,0,0,0c0,0,0-.01.01-.02l-.02.02Z"/>
        <path class="cls-1" d="m35.34,41.05c-1.24-.2-.09-.75-.34-1.14-.18-.19-.65.12-.96-.42.1-.05.26-.11.38-.2.55-.42,1.11-.82.02-1.31-.3-.13-.46-.41-.02-.72.39-.27.66-.7,1.17-.89-.32-.23-.53-.18-.76-.08-1.39.63-1.32.61-1.56-.8-.08-.49-.02-1.21-1.03-1.28-1.15-.08-.59.72-.75,1.09-.3.69-1.02,1.04-1.3.49-.53-1.05-.89-.35-1.26.02-.47.48-.78.69-.84-.22-.04-.59-.41-1.13-.87-1.15-.5-.02-.52.73-.74,1.16-.21-.24-.37-.43-.27-.76.16-.54-.16-1.14-.59-1.06-.54.09-1.38-.23-1.65.63-.12.39.01,1.06-.56,1.01-.6-.05-.02-.76-.35-1.09-.11-.11-.04-.38-.06-.58-.03-.36.2-.87-.4-.96-.64-.09-.68.47-.74.87-.15.93-.44,1.74-1.32,2.14-.42-.33.29-.74-.11-1.07-.92-.01-.98.99-1.63,1.28-.09.16-.02.53-.26.45-.17-.06-.07-.39.13-.55.13-.93-.56-2.1.83-2.68.38-.16.33-.73.27-.96-.31-1.15-.68-2.3-1.16-3.39-.14-.32-.7-.47-1.06-.69-.33-.2-.44.14-.53.3-.16.27.09.29.29.34.3.07.69.18.31.57-.09.1-.55-.35-.63.14-.05.33.27.56.47.79.41.47-.04.87-.11,1.3-.01.06-.12.17-.28.08-.58-.32.2-.71-.08-1.05-.29-.16-.29.45-.6.27-.04-.49-.03-.96-.12-1.41-.06-.31-.29-.68-.65-.51-.74.36-1.4.86-1.56,1.76.05.1.1.2.15.31.26.06.43.17.26.47-.05.09-.15.25-.18.24-.3-.09-.14-.38-.22-.57l-.21-.27c-.25-.08-.26-.52-.69-.41.51,1.8-1.33,0-1.4.84.7,1.09,1.6,1.65,2.92,1.43.3-.05.83-.24,1.04.25.3.69.81,1.18,1.48,1.57-.45.36-.9.33-1.33.37-.83.09-.76.49-.36,1.01.35.26.75.33,1.31.09q-.64.88-1.54.13c-1.19-.23-2.39-.44-3.58-.72-.27-.06-.49-.51-.78-.12-.12.16-.11.47-.04.68.1.3.36.25.67.24,1.05-.03,1.74.82,2.61,1.24.7.34-.3.81-.16,1.28.05.15.05.3.07.46.01.08.03.17.04.25,0,0,.01.01.01.01.59-.31,1.21-.24,1.85-.23-.5.64-1.63.12-1.84,1.16,0,0,0,.01,0,.01.02.07.04.14.06.21.14,0,.28.01.42.02.14-.32.34-.27.55-.07.11.06.36.05.25.24-.07.13-.28.05-.4-.07-.13-.03-.26-.05-.39-.08-.11.1-.33.19-.33.29,0,.52-.09.92-.75.89-.68-.03-1.46.27-1.79-.74-.58,1.2-.61,1.28-.25,1.39.86.28,1.67,1.06,2.45,1.04,1.38-.04,1.83,1.07,2,1.73.45,1.77,1.86,2.46,3.09,3.33,1.27.9,2.28.73,3.41-.31.19-.17.33-.15.53-.1,1.75.42,3.43.44,5.07-.5.54-.31,1.42-.57,1.86-.47,1.34.3,1.7.34,2.57-.7.17-.2.43-.42.68-.46,1.63-.26,2.56-1.14,2.6-2.83,0-.15-.09-.32.05-.43,1.34-1.01.04-1.75-.48-1.84Zm-3.59,1.25c.11.11.29.17.59.13h0c-.3.03-.49-.02-.59-.13Z"/>
        <path class="cls-1" d="m96.41,104.5c-.59.08-.86-.12-.98-.82-.19-1.09-.02-2.07.42-3.03.25-.54.37-1.14.13-1.61-.33-.65-.16-1.14.15-1.76-.51,1-1.87.68-2.31,1.61-.64,1.37-1.61,2.17-3.17,2.13-.15,0-.32-.04-.46,0-.81.25-1.05,1.02-1.37,1.66-.2.41.13.73.58.84.17-.91.6-1.64,1.55-1.86.51-.12,1.46-.63.9.74-.29.7.62,1.26.45,2.03-.35-.34-1.13-.35-.76-1.16.03-.06-.16-.3-.28-.33-.1-.03-.32.09-.37.2-.12.27-.24.5-.54.59-.22.28.2.71-.3,1.01-.26-.73-1.35-.29-1.58-1.2-.1,1.43-.85,2.89.48,4.1-.02.17-.09.36.11.49-.18.33-.7.38-.66.91.04.47-1.04,1.31.49,1.29.11,0,.87.36.99,1,.4,2.07.48,2.13,1.9,3,.34-.09.68-.25,1.02-.26,1.06-.03.91-.37.28-.9-.32-.27-.46-.6.06-.81.48-.19.28-.46.14-.76-.16-.35-.35-.71-.05-1.37.84,1.68,1.6,3.39,3.84,2.88.1-1.09-.04-2.14-.46-3.13-.47.1-.02.65-.48.73-.33-1.22-1.07-.79-1.78-.42-.21.11-.46.3-.63.05-.13-.19-.1-.49-.13-.74.97-.02.7-1.32,1.53-1.48.02-.08.03-.16.05-.24,0-.8-.24-1.8,1.16-1.53,1,.19.99-.68,1.09-1.19.16-.78-.44-.74-1.01-.67Z"/>
        <polygon class="cls-1" points="91.8 114.34 91.79 114.34 91.79 114.34 91.8 114.34"/>
        <path class="cls-1" d="m97.08,113.11s0,0,0,0c0,0,0,.01,0,.02v-.02Z"/>
        <path class="cls-1" d="m100.77,107.43c.81.84-.43,1.11-.39,1.86-.36-.61-.4-1.09-.18-1.59h-1.25c.5.77.07,1.29-1.25,1.53.32.66.8,1.24.64,2.07-.05.25.38.84.49.82,1.26-.28,1.59.78,2.21,1.46-.13.02-.28-.01-.36.05-.68.51-1.32.96-2.06.04-.17-.21-.71.17-.64.28.2.32-.31.68.23,1.02.91.57,1.97.24,2.87.68.23-.93,1-1.79.59-2.86-.19-.48-.15-.77.39-.91.67-.17.83-.48.2-.93-.79-.56-.36-1.06.2-1.2.71-.18.75-.6.56-1.04-.29-.65-.11-1.22.06-1.81-.3-.06-.6-.12-.9-.2-.7-.2-.95.45-1.4.73Z"/>
        <path class="cls-1" d="m121.87,94.44c-.95.24-1.96,2.03-1.88,3.02.08,1.03,1,1.9.49,2.99.22.08.42-.01.43-.14.06-.86.62-1.45.99-2.15.15-.28.73-.5.42-.96-.51-.74-.48-1.41.13-2.08.14-.15.3-.4.07-.64-.2-.21-.4-.1-.64-.04Z"/>
        <path class="cls-1" d="m109.65,28.91c.19-.36.44-.57.86-.36.64-.44.25-1.19.54-1.74-.14-.29-.41-.54-.31-.92-1.66.48-1.4,2.16-2.04,3.27.36.08.72.16.95-.26Z"/>
        <path class="cls-1" d="m105.23,32.35c.71-.46.29-1.11.28-1.69-.19-.24-.16-.65-.66-.88.16.86.37,1.65-.85,1.5-.32-.04-.24.35-.29.56-.05.2.04.39.21.52.44-.61.88.27,1.31,0Z"/>
        <path class="cls-1" d="m47.24,65.24c-.3.22-.57.57-.68.92-.11.34.26.46.55.44.6-.03.51.65,1.08.89-.08-.78.69-1.45-.14-2.15-.31-.26-.62-.26-.81-.11Z"/>
        <path class="cls-1" d="m120.99,16.36c-.69.19-.57.93-1.03.97-1.04.08-1.34.71-1.37,1.6,1.51-.11,1.94-1.23,2.4-2.57Z"/>
        <path class="cls-1" d="m113.39,24q.65-1.18.19-1.37c-.86-.37-1.26.01-1.16,1.12.32.09.65.17.97.26Z"/>
        <path class="cls-1" d="m123.15,79.47c-.07-.03-.15-.03-.31-.07-.02.51.64,1.29-.55,1.09-.19-.03-.04.25-.03.38,0,.09-.12.26.11.24.65-.06,1.37-.33,1.66-.78.28-.43-.46-.67-.88-.86Z"/>
        <path class="cls-1" d="m92.05,63.28s.02-.02.02-.02c0,0-.02,0-.02,0,0,0,0,0,0,.01Z"/>
        <path class="cls-1" d="m90.26,63.07c-.22.14-.6.15-.43.55.15.35.39.23.68.11.49-.2,1.02-.31,1.53-.46-.48-1.03-1.13-.62-1.78-.2Z"/>
        <path class="cls-1" d="m110.39,110.89c-.25.86-.44,1.45.41,1.67.29.08.68.28.8-.16.3-1.05-.91-.76-1.22-1.52Z"/>
        <path class="cls-1" d="m103.09,34.93c0-.14-.01-.27-.02-.41-.32-.58-.72-.29-.99,0-.26.27-.19.82.03.97.54.37.6-.44.98-.55Z"/>
        <path class="cls-1" d="m111.64,26.07c.77-.36.72-.98.54-1.65-1.01-.06-.71,1.16-1.37,1.44.31-.08.52.3.83.22Z"/>
        <path class="cls-1" d="m110.81,25.86s-.05,0-.07.02c0,0,0,.01,0,.02,0,0,0,0,0,0,.03,0,.04-.02.06-.03Z"/>
        <path class="cls-1" d="m115.75,22.2c.26.01.57-.08.47-.49-.06-.25.05-.57-.33-.7-.26.1-.46.29-.51.57-.05.28.02.6.37.61Z"/>
      </g>
      <g id="Southeastern_europe" data-name="Southeastern europe">
        <path class="cls-1" d="m165.65,150.01s0,0,0,0c0,0,0,0,.01,0h-.01Z"/>
        <path class="cls-1" d="m175.32,158.26c-.81-.45-1.39.28-1.91.84-.11.12-.19.26-.3.37-.9.87-1.98.81-3.06.14-1.52-.93-1.38-2.56-1.77-3.92-.43-1.49-.08-3.15-1.26-4.52-.42-.49-1.22-.44-1.36-1.16-.54-.35-1.04-.75-1.55-1.14-1.23-.93-1.93-2.29-3-3.33-.95-.92-2.14-.68-2.59.59-.21.59-.58.81-1.1,1.1-1.06.58-2.55.48-3.08,1.98-.16.45-.73.52-1.33.14-.43-.28-.83-1.01-1.53-.62-.94.53-1.94.38-2.95.43-.72.03-1.76-.3-2.04-.05-1.02.92-1.75,2.16-3.12,2.72-.07.03-.07.22-.13.33-.67,1.23-.85,2.63-1.3,3.93-.36,1.05-.67,2.11-1.04,3.16-.24.69-.13,1.79-.95,1.77-.99-.03-.98,1.15-1.81,1.05-.28-.03-.61-.12-.7.24-.09.36.26.43.5.56.89.49,1.73.99,1.88,2.17.08.65.61.95,1.24,1.12,1.89.53,1.86.56,2.39,2.56.12.45.46.92,1.1.77.65-.15,1.16.07,1.52.66.69-1.57,1.2-1.78,2.47-1.04.37.22.58.56.07.79-1.07.49-.55.71.07,1.12.43.28.78.65,1.33.72.76.09.74.49.34.97-.16.19-.4.32-.21.58.19.27.49.31.74.14,1.3-.89,2.71-.51,4.1-.38.39.04.83.22,1.16-.05,1.15-.93,2.56-.77,3.82-.72,1.4.06,2.17-.47,2.73-1.59.37-.75.98-1.21,1.66-1.66,1.78-1.17,3.68-1.47,5.78-1.22.62.07,1.01.1,1.53.52.54.44,1.44.39,2.05,0,.58-.37.29-1.07.15-1.64-.05-.19-.14-.37-.22-.56-.55-1.4.5-3.97,1.87-4.54.42-.17.85-.28.89-.83.08-1.02-.2-1.99-1.08-2.49Zm-26.43,1.02c.14.05.29.17.45.34h0c-.15-.18-.3-.29-.45-.34-.15-.06-.29-.06-.42-.02.13-.04.28-.04.42.02Z"/>
        <path class="cls-1" d="m173.83,168.83c-1.51.66-2.73-.79-4.07-.51-1.03.21-2.02-.55-2.89-.06-1.48.83-3.28,1.23-4.08,3.08-.44,1-1.37,1.48-2.62,1.39-1.1-.08-2.32-.05-3.31.37-.79.34-1.46.42-2.26.36-1.18-.08-2.4-.45-3.51.34-.4.29-.85.18-1.22-.12-.39-.31-.36-.71-.1-1.06.37-.49-.02-.48-.31-.56-.21-.06-.59-.31-.59-.03,0,.82-1.27,1.25-.7,2.1.47.71.72,1.59,1.72,1.97,1.63.62,2.06,2.19.74,3.18-1.18.89-.99,1.51-.36,2.45.1.14,0,.47-.09.67-.33.77.22,1.31.72,1.35,1.05.09,1.39.85,1.98,1.47.63.67.06,1.39.39,2.02.15.29.26.96.61.62,1.02-.99,2.6-.6,3.56-1.6.51-.53,1.25-.55,1.8-.85.88-.48,1.07.5,1.67.44,1.51-.14,3.1.65,4.52-.42.12-.09.29-.13.44-.17,1.35-.36,1.51-.67.64-1.7-.51-.6-.26-.89.24-1.05.38-.12.54-.37.79-.61.66-.65,1.1-1.58,2.19-1.68.17-.87,1.22-1.09,1.5-.89,1.2.87,2.02.04,3.03-.39-.6-.47-1.29-.76-1.6-1.45-.1-.23-.33-.4-.58-.37-1.19.16-.69-.25-.33-.78.6-.86,1.22-1.69.63-2.91-.33-.67.08-1.5.32-2.2.18-.52.82-.51,1.33-.61.4-.08.46-.56.42-.88-.05-.37-.26-1.05-.59-.91Z"/>
        <path class="cls-1" d="m169.7,180.22s0,0,0,0c0,0,0,0,0,.01h.01Z"/>
        <path class="cls-1" d="m132.3,183.83s0,0,0,.01c0,0,.01-.01.01-.01,0,0,0,0-.01,0Z"/>
        <path class="cls-1" d="m131.99,183c-.16-.51-.59-1.14-.17-1.55.74-.72.36-2.22,1.75-2.44.22-.03.05-.19,0-.26-.5-.73-.05-.79.56-.95,1.48-.39,1.55-.75.57-1.93-.19-.23-.54-.4-.4-.78.32-.28.78.23,1.13-.26-.41-.32-.77-.77-1.21-.9-1.2-.36-.94-1.18-.74-1.99.08-.34.28-.66.42-.98.1-.22.2-.48.05-.68-.23-.29-.5-.06-.74.05-.59.27-1.28.62-1.66-.18-.48-1.01-1.39-.78-2.01-.63-1.81.43-3.55.28-5.36,0-.67-.1-1.79-.27-2.18.6-.56,1.27-1.07.81-1.66.13-.23-.27-.48-.47-.82-.29-.38.2-.17,2.19.26,2.4,1.02.49,1.51,1.38,1.75,2.41.14.58.3,1.04.94,1.17,0,0,0,0,0,0,.03.43.54.46.66.82.07.07.14.14.2.21.15.13.46.23.22.47-.11.11-.31-.1-.4-.26-.08-.08-.16-.16-.24-.24-.9-.42-1.64-1.01-1.83-2.04-.14-.73-.62-1.43-1.11-1.65-1.36-.61-1.06-1.69-1.07-2.71,0-.39-.18-.94.46-1.07.49-.1.94-.07,1.24.44.31.53.6.64.98-.03.42-.73,2.01-.98,2.8-.86,1.26.18,2.48.42,3.85.12,1.19-.27,2.86-.91,3.8.83.19.35.37.13.51-.08.45-.7.35-1.67.01-2.1-.58-.75-.95-1.45-.97-2.37,0-.33-.13-.63-.49-.74-.33-.11-.48.11-.7.31-1.14,1.05-2.56.89-3.77.43-.94-.36-1.96-.7-2.75-1.6-.58-.65-1.48-1.27-2.41-1.62-.28-.1-.83-.34-.83-.06-.03,1.23-1.25,1.08-1.8,1.67-.32.34-.88.39-.47,1.14.17.3.51,1.29-.39,1.47-1.01.21-.94,1.11-.81,1.56.3,1.08-.69.96-.89.87-.7-.33-1.66.24-2.18-.63-.1-.17-.22-.12-.37,0-1.21,1.01-2.66.98-4.18.91.2,1.44.83,2.62,1.85,3.7.5-.92,1.13-1.64,1.24-2.61.05-.4.03-.85.68-.68.63.16.77.56.44,1.04-.4.6-.03.63.4.76.26.08.49.6.76.16.22-.37-.32-.46-.47-.7-.09-.15-.39-.31-.13-.6.49.35,1.3.75,1.12,1.28-.47,1.43,1.03,2.11,1.04,3.41,0,.93.91,1.77,1.69,2.46.86.76,2.18,1,2.59,2.29.08.24.43.28.63.14,1.31-.86,2.34.16,3.47.48,0,0,0,.02-.01.03.01-.01.02,0,.03-.02h0s0,0,0,0h-.01c.7.49,1.39,1,2.09,1.51.19.1.59.12.45.38-.15.27-.48,0-.72-.09-.96-.22-1.62.65-2.53.7,1.26.44,2.42-.57,3.68-.22.11.03.55-.6.06-.88-1.43-.79-2-2.49-3.49-3.21-.25-.12-.56-.37-.56-.9,1,.58,2.16,1.19,2.55,1.79.64.97,1.41,1.72,2.22,2.45,1.05.96,2.09,2.02,3.67,2.05.1-.36-.23-.56-.31-.84Zm-14.68-7.54c-.25,0-.37-.1-.32-.35.03-.13-.08-.35.17-.32.23.03.44.15.46.43.01.22-.2.19-.32.24Zm1.79-7.47c.1.06.21.1.32.1-.11,0-.22-.04-.32-.1Z"/>
        <path class="cls-1" d="m133.58,167.55c.29.16.82.04.81.55,0,.45-.44.36-.74.42-.27.05-.44.18-.41.48.02.28.06.62.4.65,1.26.1.85.86.63,1.53-.17.53-.43,1.02-.44,1.6,0,.25-.08.49.27.53.78.08,1.08.87,1.72,1.14.58.25.24.53.09.84-.14.29-.69.04-.67.52.05.07.09.14.15.2,1.04,1.05,1.02,1.11-.2,1.83-.37.22-.13.35.11.59,1.11,1.11,2.65,1.34,3.98,2,1,.5,1.77-.09,1.6-1.13-.09-.53.36-.55.57-.79.2-.24.6-.27.74-.04.5.83,1.61.78,2.19,1.61.22.32.76,1.02,1.49.94,1.16-.13.97.6.8,1.28-.1.41-.26.81-.39,1.22.83-.71,1.94-.71,2.85-.95.91-.24.84-.37.43-.98-.37-.55-.28-1.22-.34-1.82-.05-.46.63-.48.97-.7,1.01-.65.83-2.11-.39-2.49-1.18-.37-1.44-1.4-1.99-2.21-.3-.44-.33-1.15.15-1.66.54-.58.65-1.07-.05-1.67-.26-.22-.96-.69-.19-1.22.14-.1.17-.27,0-.39-.2-.14-.56-.31-.63-.07-.47,1.49-1.34,1.15-2.3.57-.08-.05-.23.02-.35.02-.98,0-1.92-.72-1.89-1.69.03-1.09-.48-1.41-1.44-1.62-.94-.21-1.7-.74-1.91-1.86-.17-.91-2.42-2.47-3.34-2.37-.86.1-1.86-.08-2.42.94-.17.32-.62.47-1.03.56-.26.06-.59.24-.59.52-.01.97.86,1.66.87,2.67,0,.35.6.3.9.47Z"/>
        <path class="cls-1" d="m143.53,192.43c-1.47-1.31-1.95-3.1-1.71-5.04.11-.87.08-1.72-.56-2.33-.57-.54-1.49-.66-1.88-1.47-.01-.03-.39.05-.52.17-.57.52-1.01.2-1.41-.3-.28.66-.54,1.2-.74,1.75-.32.85-.02,2.08.36,2.33.98.67.72,1.36.56,2.15-.11.55-.13.99.08,1.6.22.66.51,1.52.15,2.31-.35.78-.38,1.49.26,2.18.17.18.9.59.05.93-.04.03-.07.05-.11.08.25.56.77.81,1.28.98.86.29,1.54.83,1.95,1.57.27.5.61.86,1.04.64.42-.2.59-.89.34-1.28-.37-.59.09-1.01.31-1.08,1.04-.29,1.06-1.13,1.19-1.92.08-.49.19-.87.69-1.15.41-.23.38-.61.13-1.11-.35-.69-1.05-.68-1.46-1.04Zm-4.47-.14c-.02.06-.03.13-.06.18.03-.05.05-.12.06-.18Z"/>
        <path class="cls-1" d="m151.97,184.79c-.87-.6-1.92-.92-2.72-1.66-.08-.07-.31-.02-.46.03-.92.32-1.89.55-2.73,1.02-.69.39-1.12,1.28-2.14.91-.04-.01-.11.13-.18.14-1.08.28-.38,1.44-.98,1.95h-.06c-.52.13-.57.44-.34.85,0,.08.03.16.06.23-.16.5.05.94.14,1.41.36,2.13,1.78,3.07,3.76,2.28.73-.29,1.75-.16,2.1-1.06.43-1.1,1.25-1.27,2.26-1.25.9.02,2.23-1.27,2.13-2.14-.11-.95.04-2.09-.87-2.72Z"/>
        <path class="cls-1" d="m145.65,181.49c-.55-.17-.97-.38-1.33-.81-.64-.77-1.56-1.12-2.39-1.61-.36-.21-.44-.13-.44.24,0,.97-.17,1.81-1.18,2.34-.75.4-1.17.99-.35,1.86.88.93,2.38,1.34,2.52,2.97-.04-1.33.99-1.95,1.79-2,1.02-.06,1.05-.59,1.23-1.22h0c.09-.07.17-.14.26-.21.19-.54,1.03-1.2-.12-1.55Zm-3.5.77c-.32.02-.64.07-.95.15h0c.32-.08.64-.12.95-.15Z"/>
        <path class="cls-1" d="m136.59,184.32c.14-.49.37-.95.56-1.43.29-.1.58-.13.88,0,.15.17-.2.77.42.53.35-.14.84-.38.5-.85-.41-.56-.18-.74.33-.91.29-.1.57-.24.57-.72-.75.31-1.13-.65-1.85-.49h0c-.2,0-.41,0-.61,0-1.06-.6-1.87-1.6-3.14-1.99-.14.47.74,1.3-.36,1.36-1.17.06-1.3.19-.88,1.47,0,0,0,.07,0,.07-1.29.22-.8.95-.45,1.62.21.39.59.78-.23.86.25.31.32.68.68,1.02.81.77,1.96,1.12,2.57,2.09.18.28.33.65.68.46.3-.16.26-.69.11-.86-.79-.86.03-1.51.23-2.23Zm-3.22.23s-.05-.04-.07-.07c.03-.02.05-.05.08-.07.02.03.05.05.07.07-.03.02-.05.06-.08.06Z"/>
        <path class="cls-1" d="m132.3,183.85s.01,0,.02,0c0,0,0,0,0-.01,0,0-.01.01-.01.01Z"/>
        <path class="cls-1" d="m124.13,180.3c-.41.02-.84-.32-1.21.07-.05.05-.01.26.05.31.41.33.89.17,1.36.17.42,0,.39-.36.54-.58-.23.22-.49.02-.74.03Z"/>
        <path class="cls-1" d="m113.97,173.55c-.15-.62-.29-1.22-.42-1.8-.57.51-.42,1.23.42,1.8Z"/>
        <path class="cls-1" d="m122.98,181.53c.22.05.43.12.65.13.7.02,1.41,0,2.12,0-.93.06-1.8-.6-2.77-.14Z"/>
        <path class="cls-1" d="m137.82,196.33s-.1.04-.1.05c.02.21.13.34.33.42.03-.03.07-.06.11-.08-.06-.18-.08-.39-.34-.38Z"/>
      </g>
      <g id="Southwesterne_Europe" data-name="Southwesterne Europe">
        <path class="cls-1" d="m64.77,186.52c-.2-.14-.6-.07-.57-.48-.49.12-.99.17-1.44.48-.38.27-.93.47-1.17-.27,0,0,0,.03,0,.03-.94-.36-2.16.33-2.91-.8-.06-.09-.45.03-.68.07-.62.11-1.03-.02-.96-.78.03-.36.04-.72-.35-.95-1.1-.64-1.35-.43-2.67-.22-1.06.16-2.42,0-3.27-.58-1.08-.73-2.52-.7-3.4-1.81-.34-.43-.98-.77-1.53-.85-.78-.12-1.32-.14-.63-1.05.17-.23.03-.4-.19-.43-.99-.16-1.69-1.24-2.88-.87-.4.13-.78-.28-1.16-.51-.68-.41-1.31-1.23-2.29-.48-.26.2-.57-.19-.84-.24-.7-.14-.98-1.1-1.64-1.01-2.71.37-5.12-.35-7.41-1.73-.61-.36-1.61-.99-1.83-.94-1.82.43-3.35-.73-5.06-.74-.37,0-.9-.13-1.08-.61-.4-1.07-1.45-1.09-2.29-1.37-.64-.22-1.99.74-2.08,1.32.13.11.37.22.14.41-.26.22-.27-.07-.33-.22-1.15.5-2.4-.34-3.58.31-.51.28-1.2.74-1.01,1.03.37.53-.18,1.55.89,1.58-.26.43-.93.55-.62,1.19.44.06.74-.59,1.21-.22-.73.99-.67.95-.39,1.33.38.51-.78.48-.47,1.18.09.2-.84.74-.5,1.48.4-.23.75-.54,1.15-.63.4-.09.85.06,1.28.07.29,0,.66-.56.86.06.12.37.64.86-.12,1.18-.22.09-.22.31-.14.52.06.15.19.14.28.07.92-.68,1.59.09,2.35.38.33.12.84.37.99.23,1.05-.92,1.88.04,2.82.19.72.12.77.54.57.97-.26.54-.13.68.38.91.77.35,1.1.85.27,1.61-.57.52-1.15.88-1.88,1.13-.73.24-1.15.7-1.35,1.61-.29,1.32.09,3.02-1.6,3.79-.35.16-.02.39.03.59.32,1.49-.74,2.66-2.25,2.48-.26-.03-.54,0-.8,0-.05.48.5.63.44,1.09-.11.85-.02,1.63.79,2.17.29.2.27.57.02.85-.39.44-.69.91-1.28,1.2-.96.47-1.13,2.67-.28,3.11.23.12.76-.13.62.38-.12.41-.3,1.1-.8,1.07-1.27-.06-1.69,1-2.38,1.66-.66.64-.3,1.58-.26,2.38.04.62.74.23,1.08.45,1.17.73,2.27,1.48,2.77,2.92.2.58-.68.84-.22,1.19.63.48.53,1.03.58,1.7.11,1.41,1.39,2.06,2.3,2.93.23.22.58.21.67-.14.35-1.38,1.79-1.1,2.62-1.74.35-.27.87-.36,1.36-.07.33.19.69.09,1.01-.14,1.36-.94,2.79-.6,4.26-.34.6.11,1.05.63,1.66.52,1.03-.19,1.96.02,2.83.53.45.26.77.27,1.15-.12.61-.61,1.32-.57,1.74.15.35.6.63.37.9.1.45-.44.94-.89,1.23-1.44.87-1.68,2.16-2.53,4.09-2.51.52,0,.97.36,1.49.15.2-.08.61-.15.36-.37-.79-.69.04-1.14.25-1.52.94-1.69,2.06-3.24,4.09-3.79.22-.06.42-.2.63-.31.68-.36.65-.66,0-1.07-1.38-.87-1.79-3.33-.96-4.73,1.21-2.04,3.29-3.33,4.52-5.35.06-.1.17-.18.28-.22.33-.11.74.2,1.01-.11.46-.53-.23-.56-.4-.83-.02-.02.07-.14.13-.19.59-.43.9-1.13,1.82-1.21,1.49-.13,3.22-.1,4.37-.85,1.45-.96,3.05-1.49,4.51-2.34.85-.5,1.49-1.09.86-2.2-.11-.19-.17-.49.22-.67.67-.29.64-.31.02-.76Z"/>
        <path class="cls-1" d="m64.2,186.03s0,0,0,0c.01,0,.03,0,.04,0,0,0-.04,0-.04,0Z"/>
        <path class="cls-1" d="m14.37,204.2c-1.51-1.56-1.29-3.34.37-4.52.36-.25,1.54-.65.32-1.46-.29-.19-.44-.72-.42-1.18.03-.67-.05-1.33-.5-1.9-.15-.2-.35-.48-.1-.76.29-.32.49.06.72.13,1.83.52,2.67-.27,2.29-2.19-.08-.41.05-.71.48-.82.27-.07.65-.11.67-.41.07-.99.6-1.87.66-2.85.07-1.18.61-1.89,1.8-2.21.63-.17,1.11-.58,1.57-1.02.51-.48.28-.83-.25-.9-.65-.08-.92-.36-.66-.92.32-.68-.1-.86-.57-1-.69-.2-1.33-.61-2.12-.09-.48.31-1.33.15-1.62-.22-.51-.64-1.13-.4-1.65-.44-1.11-.09-1.29-.22-.76-1.23.29-.56.19-.54-.41-.58-.78-.05-1.46.1-2.18.32-.51.16-.69.49-.68.97.02,2.62.12,5.24-1.68,7.48-.86,1.07-1.05,2.55-2.03,3.57-.29.47-.58.94-.87,1.41.2.2.32.42.18.58.14-.16.03-.38-.18-.58-.17.01-.34.02-.5.03-.11.69-1.08.86-.99,1.66-.07,0-.13,0-.2.01-.1.21-.2.43-.3.64-1.13.82-1.23,1.34-.46,2.22.06.09.12.18.18.27.1,0,.2,0,.29-.01.16.52-.19.95-.24,1.44.31.09.55.27.95.05.61-.33.8.12.78.68,0,.2.02.4.02.6.61,1.01-.79,1.01-.84,1.69l.27.74c.1.05.22.05.35.05-.13,0-.26,0-.35-.05-.08.01-.15.04-.22.09-.04.19-.08.39-.12.58,0,.06.04.1.1.11-.02.22-.03.44-.05.66.44-.05.6.4.93.56-.33-.16-.49-.61-.93-.56h.05s0,.01,0,.01c-.23-.05-.19.13-.22.26-.23-.12-.28-.54-.77-.17-.48.37-.16.27.03.52.4.51-.58.21-.46.64.3,0,.45.16.46.46-.39.35-.4.99-.92,1.24-.13.01-.33-.03-.32.16,0,.11.17.21.26.31,0,0,.03.01.03.01,0,.07,0,.14.02.2-.03.06-.06.12-.07.18-.07,0-.13,0-.18.05-.31.17-.25.3.05.41,1.49.03,2.98.06,4.47.09.25.12.49.28.75.34,1.28.29,2.4-.62,2.43-1.9,0-.38-.25-.82.1-1.14.98-.89,1.55-2.33,3.22-2.35Zm-9.15,3.92s-.04,0-.06-.01c.02,0,.04,0,.06.01Zm.31.07c.18.06.36.17.53.35h0c-.17-.18-.35-.28-.53-.35Zm-1.21.59c.26.02.53.03.79.03-.26,0-.53-.01-.79-.03Zm2.37-.11c-.52.1-1.04.14-1.57.14.52,0,1.05-.04,1.57-.14.22.06.53-.07.78-.08-.25,0-.56.14-.78.08Zm.95-.06c.1.04.18.12.22.3-.04-.18-.12-.26-.22-.3Zm5.09-15.44h0s-.05.06-.08.1c.03-.03.05-.06.08-.1Z"/>
        <path class="cls-1" d="m64.08,202.16c-.45.16-.77.06-.75-.38.05-1.02-.55-.72-1.06-.58-.86.24-1.51.86-2.27,1.29-.23.13-.72.25-.39.64.16.19.43.59.87.18.31-.29.74-.22.69.34-.11,1.17,1.32.52,1.42,1.4.24-.13.39-.19.51-.28.72-.53,1.09-1.35,1.55-2.07.23-.38-.13-.7-.57-.54Z"/>
        <path class="cls-1" d="m68.39,201.12c-.21-.52-.7-.41-1.13-.48-.25.09-.69-.19-.77.24-.09.44.23.56.65.59.21.01.39.24.6.35.29.15.54.65.89.32.38-.36-.09-.7-.23-1.03Z"/>
        <path class="cls-1" d="m55.13,205.21c-.66.09-1.18.46-1.36,1.07-.11.36.42.22.69.45.39-.37,1.04-.49,1.15-1.15.05-.28-.2-.4-.47-.37Z"/>
      </g>
      <g id="Eastern_Europe" data-name="Eastern Europe">
        <path class="cls-1" d="m214.26,130.87c-.15,0-.28.04-.4.11.12-.07.25-.11.4-.11v-1.68c.01-.2.03-.4.03-.6,0-26.21,0-52.41,0-78.62,0-.36-.02-.72-.04-1.07,0-1.68,0-3.36,0-5.04.01-.52.04-1.03.04-1.55,0-14.1,0-28.21,0-42.31h-23.49c-.15.6-.54,1.05-.91,1.51-1.22,1.54-3,2.35-4.55,3.46-.18.13-.37.43-.6.22-.25-.23-.07-.46.15-.69.37-.4.86-.96.06-1.31-.63-.28-.72-.77-.96-1.25-.09-.17.1-.72-.42-.4-.26.17-.74-.32-.83.32-.14.94-.82,1.71-.81,2.7,1.39.39,1.42.46.65,1.64-.39-.08-.02-.83-.68-.74-.43.06-.74.32-.81.6-.39,1.49-1.69,2.56-1.8,4.24-.05.82-.47,1.77-1.2,2.4-.15.13-.41.27-.21.45.77.71-.13.82-.36,1.23-.26.46-1.3.67-.34,1.65.57.59.63,1.78,1.13,2.63.1.16.19.54-.07.65-.61.25-.69,1.07-1.24,1.23-.84.25-1.51,1.61-2.57.53-.63-.65-1.33-.92-2.21-.89-.66.02-.91-.36-.88-1,.07-1.43.64-2.61,1.94-3.26.69-.35.47-.49.1-.9-.67-.75-1.66-.92-2.42-1.45-.94-.65-1.79-.6-2.58-.08-1.12.74-2.22,1.36-3.61,1.18-.01,0-.05.13-.08.22.45.44,1.06.56,1.63.63.85.09,1.29.49,1.66,1.28.63,1.35.95,2.76,1.24,4.19.13.66.17,1.42,1.31,1.1.59-.16,1.28.37,1.55.92.72,1.48.8,3.14,1.12,4.84-1.42-1.57-3.04-.34-4.55-.49-.53-.05-.48.44-.51.78-.07.83.08,1.81-.44,2.44-.84,1.03-1.2,2.21-1.71,3.38-.76,1.73-.84,1.75.7,3.01.83.68,2.07.93,2.41,2.17.08.27.55.44.26.82-.23.29-.52.28-.86.15-.19-.07-.54-.23-.59.08-.2,1.1-1.01.63-1.5.51-.87-.21-1.74-.2-2.57-.06-.72.13-1.23.13-1.82-.4-.54-.49-1.36-.48-2.02-.23-.61.24.02.76-.06,1.16-.04.19.02.44-.15.54-.96.56.12,1.04.2,1.07.71.25,1.19.8,1.78,1.2.48.32.89.49,1.35-.04.29-.33.94-.55,1.03-.12.18.81,1.67,1.27.86,2.12-.4.42-.36,1.43-1.12,1.27-.54-.11-1,.03-1.5.01-.72-.02-1.39.17-1.96-.69-.2-.3-1.25-1.13-2.2-.39-.56.44-1.48-.23-1.88-.91-.2-.35-.11-.73-.4-1.1-.67-.83-1.16-1.78-2.04-2.45-.14-.11-.62-.27-.3-.62.6-.68.16-1.33.01-2-.07-.04-.14-.08-.21-.12.02-.03.04-.06.06-.08.05.07.1.13.15.2.24-.02.52-.04.23-.38-.83-1-1.74-1.82-3.17-1.81-.39,0-1.06.07-1.08-.44-.02-.73-.54-.34-.79-.51.4-.63.08-.74-.49-.69-1.38-.22-2.37-1.07-3.44-2.09.8-.06,1.4-.46,1.97.48.68,1.13,1.98.75,3,.61.68-.09,1.32.6,1.45.44.81-.96,1.51-.02,2.25,0,2.21.08,4.38-.45,6.57-.64,3.45-.31,5.37-4.43,5.11-7.62-.08-.93-.52-1.57-1.33-2.08-.93-.58-.78-2.75-2.73-1.85-.03.02-.12-.09-.19-.13-1.12-.74-1.13-.58-2.19-.63-1.1-.05-2.39-.26-3.24-.69-2.23-1.1-4.55-1.7-6.92-2.28-.46-.11-1.18-.29-1.36.03-.43.74-1.03.42-1.55.43-.52.01-1.02.03-1.52.18-.05.04-.11.08-.16.12-.13.04-.27.09-.4.13.14.48.3.96-.08,1.41,0-.33.07-.68-.24-.93-.18-.14-.07-.31-.04-.46-.02-.17-.05-.33-.07-.5-.67.08-1.35.26-2,.18-.42-.05-1.11.06-1.24-.66.47-.01.93,0,1.4-.04.37-.02.58-.24.55-.63-.03-.33-.31-.59-.56-.48-.88.39-1.47-.52-2.43-.4.89.5-.06.83.02,1.22.17.8-.17.78-.71.51-.22-.11-.43-.25-.62-.03-.16.18.05.36.1.54.14.48.45,1.03-.41,1.17-.19.02-.56.04-.56.05.03,1.22-1.57,1.63-1.42,2.89.02.15.02.37-.07.46-.86.84-.41,1.91-.53,2.87-.2,1.52.39,2.32,1.9,2.6.32.06.63.1.7.5h0c.65.37,1.1.97,1.75,1.37.57.36.5,1.11.3,1.76-.22.72-.38,1.46-.62,2.17-.3.9-.23,1.69.49,2.37h0c1.48,1.48,2.7,3.16,3.73,4.97.12.21.22.47.03.67-.79.87-.35,1.66.12,2.45.2.33.33.59.1,1.06-.32.66-.11,1.26.82,1.17.93-.09,1.09.56.88,1.15-.24.67.21,1.02.51,1.21,1.86,1.17,2.05,1.4,1.16,3.31-.35.75-.04.8.41,1.08,1.09.68,2.35.94,3.45,1.73,1.71,1.23,1.39,2.8.88,4.07-1.08,2.68-1.69,5.54-3.01,8.11-.85,1.67-1.88,3.26-2.69,4.96,0,.13.01.26.02.38.09,0,.17-.01.26-.02.68-.34.71-1.35,1.56-1.52.24.53-.25,1.25.01,1.5.61.59,1.58,1.43,2.29,1.04,1.21-.66,2.03.1,3.01.28.23.04.35.15.35.38,0,.33-.19.38-.47.37-.72-.02-1.43-.03-2.15-.06-.41-.02-.84.14-.8.52.14,1.42-.87.94-1.52.96-.18.39.27.77-.07,1.07-.43.38-.57-.46-1.17-.21.66,1.24,1.57,2.47.7,3.94-.11.18-.02.48-.07.71-.05.22-.16.44-.43.48,0,.16.03.36-.24.24.06.48.42.9.24,1.42.34.03.43.19.25.48.41,0,.5.42.46.6-.2,1,.43,1.56,1,2.2.4.45,1.08.97.05,1.57-.13.07-.52.85.23,1.34.94.63,1.88,1.45,1.58,2.86-.09.44.41.42.54.63.75,1.27,2.14,2.18,2.13,3.96.63-.28,1.2-.66,1.68.02.13.18.33.25.47.02.39-.66.98-.28,1.5-.34,1.07-.11.27.99.79,1.23.59-.32.89-.89,1.47-1.19,1.28-.66,2.27.26,3.34.56.62.18.65,1,.51,1.68-.02.11.12.3.24.39.75.54.8,1.15.56,2.05-.28,1.04,1.33.46,1.55,1.51.15.7.85,1.72,1.85,1.73,1.19.01,1.57.63,1.64,1.66,1.06-.56,3.53.4,3.79,1.39.05.2.09.44-.1.55-.48.28-.45.82-.7,1.21-.52.82-1.19,1.33-2.17.85-.43-.21-.86-.06-.93.16-.1.33-.34.91.16,1.13,1.21.54,1.34,1.75,1.81,2.75.44.93,1.06,1.56,2.2,1.36.05-1.34.48-2.09,2.08-2.22.68-.06,1.49-.88,2.32-1.28,1.15-.56,1.84.16,2.2.68.48.7,1,1.06,1.73,1.28h0c.93.72-.04,1-.34,1.4.23.31.49.57.63.89.49,1.14,1.5.74,2.28.66.37-.04.71-.59,1.25-.44.11.3.18.69.57.67,1.79-.08,2.02,1.44,2.54,2.55.5,1.06.61,1.16,1.55.43.48-.38.94-.65,1.58-.11.57.48,1.27.15,1.86-.14.24-.12.42-.37.65-.52.61-.39.78-1.43,1.51-1.43.63,0,.79,1.09,1.41,1.3.67.22,1.4,1.22,2.15-.06.29-.49,1.2.43,1.65-.32.74.54,1.57.33,2.33.14,1.11-.28,2.15.9,3.25.07.21-.15.58-.04.6.19.04.58.35.78.85.92.29.08.37.4.22.7-.31.63-.31,1.39-.9,2,.29.02.48.02.67.04.25.03.62-.12.68.28.04.25-.18.44-.38.56-.83.49-.77.85.08,1.3.86.45,1.81.91,1.39,2.24-.23.72.68,1.51.18,2.15-.47.6-1.48.24-2.1.64-.47.3-1.42-.02-1.37.99-.03.23.03.54-.21.65-1.12.55-1.03,1.47-.78,2.45.1.39.18.78.27,1.17.87-.37,1.61-.92,2.31-1.55.33-.29.66-.56,1.14-.29-.13.39.95.48.33.86-.85.52-1.26,1.46-2.07,1.96-.72.43-.16.63.14.92-1,.32-1.76,1.06-2.88,1.08.39.89.96,1.3,1.8,1.33.95.03,1.7.55,2.72.85-.67.33-1.35-.23-1.56.31-.52,1.37-1.23,2.7-1.03,4.27.17,1.33-1.18,2.34-2.51,1.9-.24-.08-.41-.22-.63,0-.23.23-.19.49-.1.77.17.54.57.63,1.04.53,1.22-.26,2.16.18,2.99,1.07.43.46.96.99,1.46,0,.15-.3.47-.35.71-.13,1.24,1.12,2.77.7,4.2.86.7.08.79-.08.79-.69-.03-6.83-.03-13.65-.05-20.48ZM139.96,18.6s0,.04.01.06c-.03-.02-.06-.05-.09-.07.03,0,.07,0,.08,0Zm3.16,2.98c.03-.28.08-.54.45-.47-.15.16-.31.32-.46.48l-.03.02s.04-.03.04-.03Zm47.04,49.13c-.3.02-.53-.04-.67-.22.14.18.37.24.67.22Zm-15.99-22.82c.17-.21.04-.55-.09-.83-.03-.55.32-1,.83-1.13-.51.13-.87.58-.83,1.13.13.29.25.62.09.83Zm-1.58,39.6c-.03-.21-.11-.39-.21-.54.1.16.17.33.21.54h0s0,0,0,0Zm-5.76-16.79c.08,0,.18-.04.29-.1-.11.07-.2.1-.29.1Zm.75,23.95c-1.03-.11-1.45.04-1.53.73.08-.69.51-.83,1.53-.73.25.04.51.05.68-.1-.17.15-.43.14-.68.1Z"/>
        <polygon class="cls-1" points="181.94 4.56 181.94 4.55 181.94 4.55 181.94 4.56"/>
        <path class="cls-1" d="m146.95,83.66s0-.02,0-.02h0s0,0,0,0h0s0,0,0,0c0,0,0,0-.01.02,0,0,0,0,0,0,0,0,.01,0,.02,0Z"/>
        <path class="cls-1" d="m147.18,83.43s0,0,.01,0c0,0,0-.01,0-.02v.02Z"/>
        <path class="cls-1" d="m202.29,149.01c-.39-.13-.8,0-1.1.3-.75.76-1.93.89-2.55,1.88-.3.49-2.11.22-1.99-.12.6-1.79-.77-.95-1.35-1.02-1.04-.12-1.34-.66-1.03-1.7.17-.57.78-.85.84-1.31.24-1.84,1.7-2.76,2.8-3.96.18-.19.47-.46.71-.15.49.66.46.1.61-.2.25-.46.29-1.43.86-1.25,1.13.36.94-.37,1.09-.94.06-.22.17-.51.35-.59,1.27-.63,1.96-2.1,3.47-2.36-.11-.67-.19-1.34-.34-2-.19-.82-.08-1.5.68-1.98.1-.06.25-.15.25-.23.12-1.87,1.71-1.7,2.88-2.02.75-.21,1.23-.33.38-1.05-.2-.17-.13-.35-.04-.61.39-1.16.09-1.84-1-2.31-.38-.16-.72-.26-.79-.76-.08-.55.5-1.34-.6-1.56-.25-.05-.08-.5.2-.65.31-.16.51-.37.51-.73,0-.41.59-1.08.24-1.09-.73-.02-.81-1.62-1.81-.68-.1.09-.42.07-.56-.02-.98-.61-1.94-.66-2.94-.04-.1.06-.39.04-.42-.03-.59-1.08-1.52.38-2.16-.3-.02-.02-.1-.02-.11,0-1.54,1.79-2.5.05-3.5-.68-.48-.36-.54-.38-.89.03-.72.85-1.43,1.84-2.72,1.75-1.06-.07-2.12-.55-3.03.54-.12.15-1.12-.42-1.24-1.06-.12-.62-.52-1.07-.73-1.61-.23-.6-.57-.93-1.24-.88-.37.03-.72-.04-.94-.39-.19-.31-.41-.35-.66-.07-.66.76-1.71-.03-2.42.62-.12.11-.3-.12-.37-.34-.15-.46-.23-1.08-.57-1.31-.96-.68-.51-1.12.31-1.66-.97-.35-1.77-.65-2.16-1.6-.12-.29-.79-.47-1.54-.36-1.38.19-1.99,1.8-3.48,1.49-.46-.1-.41.4-.38.69.05.6-.21.98-.75,1.2-.29.03-.5.27-.89.15-1.11-.35-1.98.47-2.69,1-1.04.78-1.02,2.41-.26,3.73.25.43.17.79-.04,1.1-.23.33-.71.17-.86,0-.69-.75-1.25-.84-2.11-.14-.24.19-.73.32-1.07.61-.44.39-.84.29-1.18-.21-.15-.23-.18-.8-.57-.55-.25.16-.76.33-.7.85.09.76-.39.56-.74.38-.9-.47-2.16-.25-2.82.54-.15.18-.4.5-.53.26-.61-1.09-2.08.27-2.59-.96-1.84.56-3.75-.16-5.64.35-.95.25-1.85.63-2.79.87-.63.16-1.09.24-1.3,1.08-.13.51-.54,1.5-1.61,1.11-.29-.1-.48.17-.35.42.29.55.19,1.24.76,1.69,1.09.87,1.73,2.09,2.04,3.42.11.48.09,1.2-.67,1.41-.24.07-.41.18-.54.41-.91,1.54-1.99,2.98-2.64,4.66-.15.4-.18.71-.02,1.12.34.86.69,1.72,1.45,2.68-1.17-.21-1.92-.08-1.91.96,0,.82-.78,1.47-.5,2.25.42,1.19,2.81,1.98,3.94,1.43.13-.07.37-.12.46-.05.89.69,1.87.11,2.8.2,1.35.14,2.83-1.05,4.06.46.17.21.54-.07.61-.36.2-.89.95-1.1,1.65-1.38,2.03-.24,2.63-2.04,3.68-3.35.4-.45.97-.6,1.51-.66.36-.04.6-.07.65-.45.3.06.58-.3.89-.06.22-.45.51-.63,1.02-.41,1.31.57,2.64.83,4.06.67.3-.03.54.09.68.37.11.22.3.51.52.42,1.6-.68,1.52.64,1.55,1.44.04,1.07.4,1.43,1.47,1.5.76.05.64,1.06,1.05,1.57.18.22.2.62.57.63,1.01.03,1.48.58,1.63,1.53.13.82,1.01.78,1.49,1.22.23.21.74.13.59.67.64.16.97-.05,1.01-.76.06-1.06,0-2.28,1.39-2.56.72-.15.99-.55,1.04-1.17.38.06-.04.88.56.51.4-.25,1.45.14.98-1.07.59.36,1,.89,1.68.5.07-.04.62-.43.69.15.06.47-.33.42-.65.47-.84.13-1.67.3-2.51.45.53.42.97-.07,1.47.11.19.07.61-.04.42.31-.44.83.32.55.59.71.23.06.53-.12.69.19,1.24.37,2.63-.08,3.47-1.14.34.16.48.66.94.62.5-.04.23-.68.66-.92.14.62.41,1.08,1.08,1.24-.21.17-.32.29-.45.36-1.42.78-2.08,2.27-3.17,3.36-.26.26-.33.7-.03.98.26.25.48-.07.7-.23.34-.27.71-.5,1.07-.75.08-.03.17-.07.25-.1,0,.1,0,.19,0,.29-.12,1.03.56,1.08,1.15.74,1.03-.58,1.4,0,1.61.79.17.64.13,1.34.17,2.01,0,.13-.19.25-.04.41.84.89,2.49.61,3.07-.48.46-.87.64-2.13,1.57-2.46,1.3-.47,1.82-1.43,2.35-2.49.22-.44.52-.81,1-.49.82.54,1.34-.23,1.98-.39.98-.24.78-.97.51-1.7-.1-.28.4-.73-.14-.91Zm-36.11-15.72s-.02-.06-.03-.1h0s.04.07.03.1Zm-.77.71h0l-.04-.03s.04.03.04.03Zm12.71-8.43c-.86-.08-1.3,0-1.47.43-.07.17-.09.4-.08.69,0-.29.02-.52.08-.69.17-.43.61-.51,1.47-.43.33.05.66.04.82-.32-.16.35-.48.37-.82.32Z"/>
        <path class="cls-1" d="m162.54,142.84s0,0,0,0c0,.01-.01.02-.02.03h0s0,0,.02,0c0,0,0-.02,0-.03h0Z"/>
        <path class="cls-1" d="m143.93,126.74c0,.26-.39.84.11.9.45.05,1.04.16,1.44-.26.24-.25.53-.48.49-.91-.03-.36.19-.62.52-.73.91-.29,1.77-.77,2.65-1.01,2.29-.62,4.7-.24,7.04-.57.21-.03.36.09.53.22.5.37,2.86.31,3.15-.16.27-.44.35-.41.85-.29.68.16,1.59.38,2.12-.49.44-.72.91-.59,1.25.02.37.67.57.6,1.09.08.85-.85,2.36-.82,3.41-.1.07.05.22-.01.34-.02-1.28-3.16-.61-4.83,2.32-5.9-.15-.45-.59-.68-.77-1.15-.4-1.05-.78-2.18-1.82-2.83-.66-.41-.38-1.08-.22-1.49.2-.5.89-.77,1.41-.49,1.11.6,1.66-.14,1.92-.89.15-.43.55-.72.61-1.17-.49-.27-1.09-.28-1.35-.78-.39-.76-.93-.74-1.56-.36-.4.24-.99.24-.93-.2.15-1.16-.5-1.23-1.32-1.32-.33-.04-.78-.24-.92-.5-.78-1.55-3.48-1.95-2.69-4.44.01-.04-.07-.15-.14-.18-.72-.38-.78-1.01-.69-1.71.02-.14-.09-.42-.12-.42-.9.07-1.42-.86-2.28-.87-.81,0-1.41.51-1.86,1.05-.68.83-1.04.36-1.25-.24-.35-1.04-.83-.97-1.47-.32-.27.27-.47.34-.81.09-.87-.64-2.12-.24-2.62.72-.32.61-.2,1.53-1.35,1.56-1.21.04-1.82.91-1.83,2.1,0,.51-.02.84.67.72.39-.07.5.19.3.62-.43.95-1.43,1.36-2,2.22-.34.52-.62.89-.55,1.5.04.35.25.69.02,1.04-.08.49,0,.89.43,1.24.45.36.61.83.04,1.27-.68.57-.83-.41-1.3-.45-.2.8-1.56.75-1.37,1.85.01.06-.24.25-.35.24-.6-.05-.77.42-1.03.79-.23-.03-.47-.03-.69-.08-.76-.15-1.47.12-1.95.61-.36.36.21.86.41,1.26.68,1.41,1.69,2.64,2.04,4.23.17.8.06,1.35-.64,1.7-.67.33-1.01.88-1.23,1.54-.12.34-.14.6.34.68,1.16.2,1.67.88,1.62,2.08Zm3.85-11.07c-.24,0-.56-.02-.98-.06h0c.42.04.74.07.98.06Z"/>
        <path class="cls-1" d="m139.82,91.24c-.64.38-1.14.71-.73,1.71.53,1.3,1.13,2.74-.44,3.93-.75.57-2.11.53-2.4-.37-.32-.98-1.06-1.42-1.83-1.83-.49-.26-.72-.66-.87-1.14-.51.33-.91.66-1.37.89-1.47.71-1.93,1.86-1.57,3.4.07.28.06.58-.14.79-1.21,1.28-.36,2.79-.47,4.19-.03.32.12.79.48.9.48.14.2-.64.64-.66.07-.25.18-.43.47-.24-.08-.24-.05-.37.26-.23.45-.84,1.73-1.41,3.02-1.43.75-.01,1.51-.17,2.26-.26.7-.08,1.43-.34,2.08-.2,1.12.24,1.91-.09,2.61-.9.45-.52.82-.56,1.11.18.17.44.52.74,1.04.6,1.52-.41,2.49.67,3.55,1.38.86.57,1.41.62,2-.29.21-.32.5-.71.79-.64,1.24.31,1.41-.58,1.71-1.37.1-.26.17-.59.37-.73.85-.61.52-1.24.06-1.83-.51-.65-1.04-1.68-1.67-1.77-.75-.11-.51-.22-.54-.7-.06-1,.29-2.24-1.19-2.66-.83-.24-1.69-.56-2.44.01-.65.49-1.11.45-1.58-.15-1.28-.92-2.75-1.28-4.29-1.43-.15.44-.52.65-.9.87Z"/>
        <path class="cls-1" d="m131.58,102.81s0,.02,0,.03c0,0,0,0,.02,0,0,0,0,0,0-.02-.01,0-.02,0-.03-.01Z"/>
        <path class="cls-1" d="m145.01,91.8s0,0,0,0c0,0,.01,0,.02.01h-.02Z"/>
        <path class="cls-1" d="m140.72,90.37s0,0,0-.01c0,0-.02,0-.02,0,0,0,0,0,0,.01,0,0,0,0,.01,0Z"/>
        <path class="cls-1" d="m131.12,103.05s0,0,0,0c0,0,0,.01,0,.02v-.02Z"/>
        <path class="cls-1" d="m131.11,103.07s.02,0,.03.02c0-.01,0-.02-.02-.03,0,0-.01.02-.01.02Z"/>
        <path class="cls-1" d="m131.85,102.58s0,0,0,0c0,0,0,0,0,0,0,0-.01.01-.01.02,0,0,.02,0,.02-.01Z"/>
        <path class="cls-1" d="m131.61,102.84c-.05.29-.18.44-.47.25.25.33.1.78-.08.88-.8.46-.49,1.13-.32,1.67.2.63.26,1.24.25,1.87,0,.1.04.19.05.29.39-.09.05-.57.42-.64.42.25-.07.96.46,1.08,1.32.3,2.52,1.14,4,.7,1.1-.33,1.93.75,1.76,1.92-.07.5-.46,1.22.49,1.57,1.08.41,2.5.41,2.81,1.97.02.08.19.21.26.19.9-.23,1.87-.3,2.72-.6.82-.3.93-1.64,2.01-1.86.07-.01.09-.28.13-.43l.03-.06s.03.05.03.05c.18-.09.36-.18.54-.26.52-.6.28-1.43.65-2.08-.4-.67-.55-1.68-.02-1.95,1.03-.53.79-2.07,2.18-2.22-.69-.19-.97-.49-.83-1.14.13-.66.18-1.35-.87-1.28-.12,0-.27-.16-.38-.27-1.04-.97-2.19-1.68-3.69-1.51-.4.04-.74-.1-.93-.42-.39-.67-.7-.56-1.12-.02-.47.61-1.27.89-1.9.69-1.37-.44-2.58.4-3.93.27-1.36-.12-2.8.29-4.02,1.09.02.18-.02.31-.24.25Z"/>
        <path class="cls-1" d="m145.03,91.81s0,0,.02-.01c-.01,0-.02,0-.04,0,0,0,.02.01.02.01Z"/>
        <path class="cls-1" d="m147.41,85.58s0,0,.01,0c0,0,0-.01,0-.02,0,0-.01,0-.02,0,0,0,0,.01,0,.02Z"/>
        <path class="cls-1" d="m147.17,85.09s0,0,.01.01c0,0,0-.01,0-.02,0,0,0,0-.01,0,0,0,0,0,0,0Z"/>
        <path class="cls-1" d="m147.19,83.4s0,0-.01,0c0,0,0,.02,0,.03,0,0,.01-.02.01-.02Z"/>
        <path class="cls-1" d="m147.17,85.09c-.45-.42-.81-.85-.24-1.43-.03-.2-.05-.39.25-.26.07-1.02.03-2.05.52-3.14-.99.19-1.83.34-2.68.51-.89.17-1.74-.2-2.63-.19-.82,0-2.18.28-2.21.47-.16,1.12-1.07.6-1.57.82-.21.09-.46.25-.61.28-1.02.23-1.28,1.43-2.08,1.68-1.41.43-1.09,1.25-.99,2.28.09.94.88.49,1.21.78-.13.5-1.02.21-.76.77.3.65.59,1.45,1.36,1.71.48.16,1.24.78,1.41-.4.02-.17.21-.25.38-.2.21.06.31.21.31.44,0,.69,0,1.38,0,2.06.7-.23,1.05-1.05,1.87-.91-.16-.68.58-.73.73-.65,1.16.67,2.69.57,3.62,1.72.1.12.17.25,0,.36.81.05,1.51-.66,2.14-.61.86.07,1.12-.05,1.12-.84,0-.6.87-1.18.12-1.77-1.02-.8-.91-1.93-1.01-3-.34-.03-.33-.24-.24-.49Z"/>
        <path class="cls-1" d="m171.62,152.19c-.11-.47.19-.43.51-.42.64.02,1.27.17,1.92-.17.63-.33.47-.8.47-1.29,0-.54-.35-.66-.77-.72-.94-.14-1.52-.6-1.66-1.61-.09-.67-.89-.63-1.31-.88-.62-.36-.81-.6-.86-1.31-.04-.62.28-1.84-1.19-1.45-.25.07-.53-.19-.66-.45-.19-.35-.63-.5-.79-.31-.94,1.11-1.73.05-2.51-.18-.75-.22-1.43-.62-2.25-.54-.02.5-.58.71-.78.75-1.7.32-1.51.86-.31,1.68,1.17.8,1.58,2.29,2.87,3.09.43.26,1.42.68,1.35,1.63,1.23.24,2.45,1.6,2.72,2.89.29,1.33-.03,2.76.63,4.03.27.52.62,1,.48,1.78.41-.4,1.23-.15,1.08-.69-.18-.66.23-1,.32-1.49.22-1.11,1.3-2.19.19-3.39-.28-.31-.31-.69.29-.69,0-.09,0-.18-.01-.26.08,0,.17,0,.25.01Zm-9.09-7.65h0c.01-.31.12-.57.33-.76-.21.19-.31.45-.33.76Zm-.11.17c.03-.06.06-.11.09-.17-.06.01-.11.03-.17.04.06-.01.11-.03.17-.04,0,0,0,0,0,0h0c-.03.06-.06.11-.09.17h0Z"/>
        <path class="cls-1" d="m165.66,150.02s0,0,0,0c0,0,0,0-.01,0,0,0,.01.01.01.01Z"/>
        <path class="cls-1" d="m137.24,110.9c.14-.93-.55-1.83-1.39-1.5-1.19.47-2.11-.06-3.09-.4-.89-.31-1.16-.05-.83.78.36.9-.17,1.16-.82,1.04-.9-.17-1.73.08-2.58.21-.3.05-.86-.01-.72.54.12.45.23,1.07.93.99.2-.02.38-.17.56-.02-.22.64-1.12.6-1.17,1.5,2.56-.04,5.05-.22,7.51-.71,1.11-.22,2.13-.43,1.58-1.96-.05-.14-.03-.32,0-.47Z"/>
        <path class="cls-1" d="m171.63,152.22s0-.02,0-.03c0,0-.02,0-.02,0,0,0,0,0,0,.02,0,0,0,0,.01.01Z"/>
        <path class="cls-1" d="m171.4,152.44s-.02,0-.03,0c0,0,0,0,0,0,.01,0,.01,0,.03,0,0,0,0,0,0,0h0Z"/>
        <path class="cls-1" d="m173.37,152.41c-.07,0-.19.01-.22.06-.69.93-1.07.15-1.52-.26,0,.14-.08.22-.23.22-.05.46.17.83.38,1.2.4.72.29,1.24-.08,2.05-.32.67-1.03,1.54-.58,2.52.1.21.02.46-.31.52-.22.04-.67-.15-.57.33.06.29.33.49.68.58,1.06.29,1.69-.48,2.31-1.02.91-.79,1.75-1.31,2.98-.51-.47-.73-1.42-1.16-1.16-2.19.32.15.55.88,1.01.2.46-.67.89-1.36,1.31-2.06.35-.59.29-1.15-.25-1.62h.03s0,0,0,0c0,0,0,0-.01,0-1.25-.7-2.51.06-3.77-.03Z"/>
        <path class="cls-1" d="m175.61,7.73c.52-.78.16-1.86.48-2.42.7-1.22-.31-1.02-.73-1.19-.38-.16-.86-.05-1.3-.11-1.27-.15-1.76.24-1.85,1.51-.03.88.43,1.59.9,2.27.79,1.16,1.72,1.12,2.5-.06Z"/>
        <path class="cls-1" d="m131.65,91.42c.4.09.02.44-.02.68-.04.22-.4.58.08.67.34.06.38-.29.42-.58.09-.51-.13-1.26.63-1.37.79-.12,1.11-.66,1.45-1.22.13-.22.55-.53.38-.61-.35-.17-.48-.69-1.13-.57-1.05-.35-1.57,1.1-2.67,1.08-.14,0-.15.2-.07.28.5.43-.07,1.43.92,1.64Z"/>
        <path class="cls-1" d="m131.82,87.29c.53,1.43,1.01.36,1.46-.01.24-.19.58-.49.09-.79-.4-.24-.88-.88-1.27-.39-.38.48-.83.63-1.36.81.37.51.93,0,1.07.38Z"/>
        <path class="cls-1" d="m181.87,4.73c.02-.06.04-.11.07-.17-.05,0-.11.02-.16.03.03.05.06.09.1.14Z"/>
        <polygon class="cls-1" points="181.94 4.56 181.94 4.55 181.93 4.56 181.94 4.56"/>
      </g>
    </g>
  </g>
</svg>