<?xml version="1.0" encoding="UTF-8"?>
<svg id="Layer_2" data-name="Layer 2" xmlns="http://www.w3.org/2000/svg" viewBox="0 0 248.67 244.97">
  <defs>
    <style>
      .cls-1 {
        fill: #0411b1;
      }

      .cls-1, .cls-2 {
        stroke-width: 0px;
      }

      .cls-2 {
        fill: #fff;
      }
    </style>
  </defs>
  <g id="Layer_1-2" data-name="Layer 1">
    <g>
      <path class="cls-1" d="m225.76,244.97l-11.13-9.43c-7.57-6.42-15.04-12.71-22.43-18.94-12.54-10.57-24.39-20.56-36.45-30.88-3.2-2.75-6.53-3.87-11.47-3.87-15.45.17-31.2.17-46.42.17s-30.89,0-46.31.17c-.14,0-.28,0-.41,0-14.41,0-27.48-5.13-36.88-14.46-9.32-9.26-14.25-21.68-14.25-35.92V48.85c0-10.04,2.91-19.29,8.64-27.5C18.58,7.08,32.76.15,52.01.15c19.76.08,39.82.05,59.21.03,15.93-.02,31.88,0,47.86-.1,13.7-.08,27.87-.17,41.82.19,25.87.69,46.6,20.41,47.22,44.89.74,27.27.74,56.13,0,90.84-.31,19.64-11.06,34.46-31.1,42.82-1.07.44-3.13,1.29-3.97,1.81,0,.31.07.99.59,2.29l.06.14c2.55,6.45,5.65,21.55,9.78,47.5l2.29,14.41Zm-81.54-73.93c7.65,0,13.36,2,18.58,6.48,12.02,10.28,23.85,20.26,36.38,30.82,3.72,3.14,7.46,6.29,11.22,9.46-2.78-16.08-5.05-26.4-6.77-30.76l-.04-.11c-1.75-4.41-1.79-8.28-.1-11.52,1.8-3.44,5.31-4.89,9.38-6.57,15.96-6.66,24.19-17.78,24.43-33.03.73-34.56.73-63.26,0-90.35h0c-.47-19.05-16.25-33.82-36.69-34.37-13.78-.36-27.85-.27-41.47-.19-16,.1-31.96.08-47.91.1-19.41.02-39.49.05-59.25-.03-15.64,0-26.6,5.26-34.47,16.57-4.45,6.37-6.7,13.54-6.7,21.31v82.97c0,11.3,3.82,21.06,11.05,28.24,7.43,7.38,17.9,11.39,29.58,11.32,15.46-.17,31.2-.17,46.41-.17s30.9,0,46.36-.17Z"/>
      <path class="cls-2" d="m242.71,45.3c-.52-20.98-17.95-38.99-41.95-39.63-19.93-.52-39.92-.12-59.85-.12-29.69,0-59.27.12-88.9,0-16.15,0-29.46,5.29-38.93,18.88-5.11,7.32-7.67,15.51-7.67,24.4v82.97c0,27.37,20.39,45.15,46.08,44.97,30.91-.35,61.82,0,92.79-.35,5.75,0,10.46,1.28,14.99,5.17,19.29,16.5,38.7,32.71,58.86,49.8.06,0,.12-.06.17-.06-2.85-13.83-6.51-32.48-9.65-46.31-1.8-7.55-1.05-8.19,6.27-11.21,16.85-7.03,27.48-19.35,27.77-37.94.64-30.16.81-60.43,0-90.58Zm0,0c-.52-20.98-17.95-38.99-41.95-39.63-19.93-.52-39.92-.12-59.85-.12-29.69,0-59.27.12-88.9,0-16.15,0-29.46,5.29-38.93,18.88-5.11,7.32-7.67,15.51-7.67,24.4v82.97c0,27.37,20.39,45.15,46.08,44.97,30.91-.35,61.82,0,92.79-.35,5.75,0,10.46,1.28,14.99,5.17,19.29,16.5,38.7,32.71,58.86,49.8.06,0,.12-.06.17-.06-2.85-13.83-6.51-32.48-9.65-46.31-1.8-7.55-1.05-8.19,6.27-11.21,16.85-7.03,27.48-19.35,27.77-37.94.64-30.16.81-60.43,0-90.58Z"/>
    </g>
  </g>
</svg>